<svg width="702" height="271" viewBox="0 0 702 271" fill="none" xmlns="http://www.w3.org/2000/svg">
<g filter="url(#filter0_d)">
<path d="M6.5587 237.994L11.1464 219.623C30.1525 229.902 48.8309 235.042 67.1816 235.042C80.2893 235.042 91.4308 232.418 100.606 227.169C110 221.701 114.697 212.953 114.697 200.924C114.697 190.208 110.765 180.476 102.9 171.728C95.0354 162.761 85.5324 154.888 74.3909 148.108C63.2493 141.328 52.1078 134.439 40.9663 127.44C29.8248 120.223 20.3217 111.475 12.4571 101.196C4.59255 90.6984 0.660248 79.1072 0.660248 66.4224C0.660248 50.8946 6.231 36.7883 17.3725 24.1035C28.514 11.2001 41.9494 4.74835 57.6786 4.74835C69.6939 4.74835 83.0201 7.15408 97.657 11.9655C112.512 16.777 124.965 21.5884 135.014 26.3999L131.081 39.522C106.177 30.9926 85.2047 26.7279 68.1647 26.7279C57.6786 26.7279 48.7217 30.1178 41.294 36.8976C33.8663 43.6774 30.1525 52.4255 30.1525 63.1419C30.1525 71.2339 32.2279 78.5604 36.3786 85.1215C40.5294 91.6826 45.8817 97.3688 52.4355 102.18C59.2078 106.992 66.6355 111.694 74.7185 116.287C83.0201 120.879 91.2124 125.8 99.2954 131.049C107.378 136.298 114.697 141.984 121.251 148.108C128.023 154.231 133.485 161.995 137.635 171.4C141.786 180.585 143.861 190.973 143.861 202.565C143.861 218.967 138.618 232.418 128.132 242.915C117.646 253.194 103.992 258.334 87.1708 258.334C72.7524 258.334 57.3509 256.365 40.9663 252.429C24.8002 248.273 13.331 243.462 6.5587 237.994Z" fill="white"/>
<path d="M271.006 93.9789L269.367 108.085C260.192 106.773 252.327 106.117 245.774 106.117C230.7 106.117 218.247 110.71 208.417 119.895C198.586 128.862 191.814 139.578 188.1 152.044C184.604 164.292 182.857 177.961 182.857 193.051C182.857 200.05 183.294 206.283 184.168 211.75C185.041 217.218 186.571 222.576 188.755 227.825C191.158 233.074 194.763 237.229 199.569 240.291C204.594 243.134 210.711 244.556 217.92 244.556C227.532 244.556 239.766 242.697 254.621 238.979C259.209 237.229 262.814 236.354 265.435 236.354C270.678 236.354 273.846 242.478 274.938 254.725C255.714 260.849 237.909 263.911 221.524 263.911C197.712 263.911 181.546 258.115 173.026 246.524C164.724 234.714 160.574 215.687 160.574 189.443C160.574 174.133 161.557 160.793 163.523 149.42C165.708 137.829 169.421 127.112 174.664 117.271C179.908 107.21 187.444 99.5559 197.275 94.307C207.324 89.0581 219.558 86.4337 233.977 86.4337C250.143 86.4337 262.486 88.9488 271.006 93.9789Z" fill="white"/>
<path d="M291.65 186.818C291.65 178.07 292.524 168.338 294.272 157.621C296.238 146.905 299.078 135.642 302.792 123.832C306.506 112.022 312.076 102.18 319.504 94.307C326.932 86.4337 335.561 82.4971 345.392 82.4971C366.364 82.4971 383.186 92.0106 395.856 111.038C408.527 129.846 414.862 150.842 414.862 174.024C414.862 183.866 413.77 193.707 411.585 203.549C409.619 213.172 406.452 222.685 402.082 232.09C397.713 241.494 391.378 249.367 383.076 255.709C374.993 261.833 365.49 265.332 354.567 266.207C334.469 263.583 318.958 255.053 308.035 240.619C297.112 225.966 291.65 208.032 291.65 186.818ZM347.358 99.5559C339.712 100.431 333.267 107.429 328.024 120.551C322.781 133.673 319.395 146.468 317.866 158.934C316.336 171.181 315.572 182.007 315.572 191.411C315.572 203.658 319.286 215.031 326.713 225.528C334.359 235.807 342.879 240.947 352.273 240.947C359.046 240.947 365.163 238.323 370.624 233.074C376.086 227.825 380.346 221.373 383.404 213.719C386.681 205.845 389.084 197.972 390.613 190.099C392.361 182.225 393.235 175.227 393.235 169.103C393.235 151.17 389.193 135.532 381.11 122.192C373.027 108.851 361.776 101.305 347.358 99.5559Z" fill="white"/>
<path d="M538.73 92.0106L554.459 94.9631V98.2436C554.459 113.115 555.333 138.266 557.081 173.696C559.047 209.126 560.794 236.464 562.324 255.709C557.954 257.459 553.804 258.334 549.871 258.334C546.376 258.334 542.444 257.787 538.074 256.694L535.453 248.164C521.471 256.037 508.145 259.974 495.475 259.974C486.081 259.974 477.888 257.787 470.898 253.413C464.125 249.039 458.882 243.681 455.168 237.338C451.455 230.777 448.505 222.795 446.321 213.39C444.136 203.768 442.716 195.129 442.061 187.474C441.624 179.601 441.405 170.853 441.405 161.23C441.405 133.236 443.153 107.538 446.648 84.1373L461.395 87.4179C462.924 94.635 463.688 102.508 463.688 111.038C463.688 115.849 463.361 124.16 462.705 135.97C462.268 147.78 462.05 156.747 462.05 162.87C462.05 173.587 462.487 182.881 463.361 190.755C464.453 198.409 466.31 205.955 468.931 213.39C471.771 220.608 476.031 226.185 481.711 230.121C487.391 234.058 494.491 236.026 503.011 236.026C512.624 236.026 523.001 233.839 534.142 229.465C534.579 221.373 535.016 200.706 535.453 167.463C535.89 134.001 536.982 108.851 538.73 92.0106Z" fill="white"/>
<path d="M678.326 97.9156L681.931 112.678C676.033 113.115 666.966 114.318 654.733 116.287C642.499 118.036 633.323 119.13 627.207 119.567C628.299 127.222 628.954 137.282 629.173 149.748C629.391 162.214 629.61 173.04 629.828 182.225C630.265 191.192 631.248 200.268 632.777 209.454C634.525 218.421 637.911 225.31 642.936 230.121C648.179 234.933 655.17 237.338 663.908 237.338C670.462 237.338 678.654 235.807 688.485 232.746C692.636 240.838 695.694 246.743 697.66 250.461C680.402 256.584 662.925 259.646 645.23 259.646C638.676 259.646 632.996 257.678 628.19 253.741C623.383 249.804 619.67 244.884 617.048 238.979C614.427 233.074 612.242 225.638 610.494 216.671C608.965 207.485 607.982 198.847 607.545 190.755C607.108 182.663 606.89 173.368 606.89 162.87C606.89 157.184 606.89 149.311 606.89 139.25C607.108 129.19 607.217 122.301 607.217 118.583C605.033 118.802 599.899 119.02 591.816 119.239C583.733 119.239 579.036 119.239 577.725 119.239C576.196 104.586 575.431 97.0408 575.431 96.6034C576.96 97.0408 579.473 97.2595 582.968 97.2595C584.934 97.2595 588.102 97.1501 592.471 96.9314C596.84 96.494 600.117 96.2753 602.302 96.2753C603.176 96.2753 604.268 96.3847 605.579 96.6034C607.108 96.6034 608.091 96.6034 608.528 96.6034C609.402 72.5461 610.385 52.9722 611.477 37.8818L626.223 41.4904C626.442 46.7392 626.551 52.4255 626.551 58.5491C626.77 64.4541 626.879 71.1245 626.879 78.5604C627.097 85.7776 627.207 91.3545 627.207 95.2912C632.887 95.7286 641.407 96.166 652.767 96.6034C664.126 97.0408 672.646 97.4782 678.326 97.9156Z" fill="white"/>
<path d="M201.626 57.6985L202.445 61.3891C200.315 61.3891 196.438 61.4711 190.812 61.6351C185.242 61.8538 181.2 61.9632 178.688 61.9632C174.646 61.9632 171.888 61.7718 170.413 61.3891C170.96 55.3748 171.287 45.3145 171.397 31.2082C171.506 17.1019 171.861 7.26025 172.462 1.68333C174.318 1.84736 179.234 1.98405 187.208 2.0934C195.236 2.20275 200.479 2.44879 202.937 2.83152L203.838 6.52212C201.38 6.95953 196.465 7.47895 189.092 8.08038C181.719 8.68181 177.841 9.00986 177.459 9.06454C177.513 10.3221 177.623 12.8918 177.787 16.7738C178.005 20.6558 178.142 23.8543 178.196 26.3694C180.053 26.5881 183.439 26.9161 188.355 27.3535C193.27 27.7363 196.383 27.9823 197.694 28.0917L198.513 31.8643C186.989 32.9031 180.244 33.4499 178.278 33.5045C178.278 35.9103 178.223 39.5735 178.114 44.4943C178.06 49.3605 178.032 52.9417 178.032 55.2381C190.539 56.3863 198.404 57.2064 201.626 57.6985Z" fill="white"/>
<path d="M233.986 21.8586L233.166 25.1392C227.869 22.9521 223.745 21.8586 220.796 21.8586C218.175 21.8586 216.318 22.2687 215.225 23.0888C214.188 23.8543 213.669 25.5219 213.669 28.0917C213.669 30.1693 214.406 31.8916 215.881 33.2585C217.41 34.6254 219.24 35.7189 221.37 36.539C223.5 37.3045 225.63 38.152 227.76 39.0814C229.944 39.9563 231.774 41.2685 233.248 43.0181C234.778 44.7677 235.542 46.9274 235.542 49.4972C235.542 52.9964 234.259 56.0582 231.692 58.6827C229.125 61.3071 225.793 62.6466 221.697 62.7013C218.693 62.7013 215.881 62.0725 213.259 60.815C210.638 59.5575 208.562 57.9719 207.033 56.0582L209.409 53.5978C210.064 53.8712 211.02 54.3086 212.276 54.91C213.587 55.5115 214.515 55.9215 215.061 56.1402C215.608 56.3043 216.4 56.4956 217.437 56.7143C218.53 56.933 219.676 57.0424 220.878 57.0424C223.445 57.0424 225.548 56.4683 227.186 55.3201C228.825 54.1719 229.644 52.559 229.644 50.4813C229.644 49.1144 229.261 47.9662 228.497 47.0367C227.732 46.0526 226.722 45.2598 225.466 44.6584C224.21 44.0569 222.817 43.4828 221.288 42.9361C219.813 42.3893 218.311 41.7879 216.782 41.1318C215.307 40.421 213.942 39.6009 212.686 38.6714C211.43 37.6872 210.419 36.375 209.655 34.7347C208.89 33.0945 208.508 31.1535 208.508 28.9118C208.508 25.6312 209.381 22.8975 211.129 20.7104C212.931 18.4687 215.444 17.3479 218.666 17.3479C219.922 17.3479 221.342 17.5393 222.926 17.922C224.51 18.3047 225.766 18.6601 226.695 18.9882C227.623 19.3162 228.988 19.863 230.791 20.6284C232.648 21.3392 233.713 21.7493 233.986 21.8586Z" fill="white"/>
<path d="M241.523 18.25L246.11 19.0702C246.11 20.2184 246.138 21.0658 246.192 21.6126C249.196 19.6989 252.227 18.7421 255.286 18.7421C260.256 18.7421 264.133 20.8745 266.919 25.1392C269.704 29.4039 271.097 34.2427 271.097 39.6555C271.097 42.3893 270.878 45.0138 270.441 47.5288C270.059 49.9892 269.349 52.5316 268.311 55.1561C267.274 57.7258 265.663 59.8035 263.478 61.3891C261.348 62.92 258.754 63.6855 255.695 63.6855C252.801 63.6855 250.015 62.92 247.339 61.3891C247.558 70.9573 247.749 78.0652 247.913 82.7126C247.986 84.7952 247.913 87.4265 247.623 88.4208C246.64 88.4208 242.008 88.5391 241.08 87.7189C240.206 86.9535 240.539 82.4259 240.539 81.1543L241.523 18.25ZM246.848 26.9435L247.093 53.4338C247.749 54.746 248.759 55.8122 250.124 56.6323C251.49 57.3978 252.992 57.7805 254.63 57.7805C256.76 57.7805 258.563 57.0971 260.037 55.7302C261.566 54.3633 262.631 52.559 263.232 50.3173C263.887 48.0209 264.324 45.8886 264.543 43.9202C264.816 41.9519 264.952 39.8742 264.952 37.6872C264.952 28.3924 261.812 23.7449 255.531 23.7449C253.511 23.7449 251.626 24.0457 249.879 24.6471C248.186 25.1938 247.175 25.9593 246.848 26.9435Z" fill="white"/>
<path d="M279.535 19.2342L283.303 20.0543C283.74 24.5377 284.122 31.5909 284.45 41.2138C284.778 50.782 284.996 56.7143 285.106 59.0107C284.614 60.7056 283.658 61.5531 282.238 61.5531C281.255 61.5531 280.299 61.1704 279.371 60.4049C278.497 59.5848 277.951 58.6006 277.732 57.4524C277.842 55.2107 278.06 49.3878 278.388 39.9836C278.716 30.5247 279.098 23.6083 279.535 19.2342ZM279.371 13.9033L278.142 13.4933L284.696 0.945213L291.25 0.207092L287.481 7.17823C287.263 7.61564 286.99 8.16239 286.662 8.8185C286.334 9.47461 286.061 10.0214 285.843 10.4588C285.624 10.8962 285.351 11.3883 285.024 11.935C284.751 12.4818 284.423 12.9192 284.041 13.2472C283.713 13.5206 283.331 13.794 282.894 14.0674C282.457 14.2861 281.938 14.3954 281.337 14.3954C280.736 14.3407 280.081 14.1767 279.371 13.9033Z" fill="white"/>
<path d="M319.595 30.142L315.99 29.8959C314.844 26.8341 312.905 25.3032 310.174 25.3032C308.972 25.3032 307.689 25.5766 306.324 26.1233C305.013 26.6701 303.92 27.2442 303.047 27.8456C302.173 28.3924 301.026 29.2125 299.606 30.306C299.606 31.0715 299.579 33.5592 299.524 37.7692C299.524 41.9793 299.551 46.654 299.606 51.7935C299.715 56.933 299.824 59.6942 299.934 60.0769C299.442 61.7171 298.486 62.5373 297.066 62.5373C296.083 62.5373 295.127 62.1546 294.199 61.3891C293.325 60.569 292.779 59.5848 292.561 58.4366C293.598 40.8857 294.527 27.6269 295.346 18.6601L299.032 19.4802L299.278 24.9751C303.101 21.804 306.378 20.2184 309.109 20.2184C312.113 20.2184 314.625 20.9018 316.646 22.2687C318.721 23.6356 319.759 25.6312 319.759 28.2557C319.759 29.0758 319.704 29.7046 319.595 30.142Z" fill="white"/>
<path d="M324.838 19.2342L328.607 20.0543C329.044 24.5377 329.426 31.5909 329.754 41.2138C330.081 50.782 330.3 56.7143 330.409 59.0107C329.917 60.7056 328.962 61.5531 327.542 61.5531C326.559 61.5531 325.603 61.1704 324.674 60.4049C323.8 59.5848 323.254 58.6006 323.036 57.4524C323.145 55.2107 323.364 49.3878 323.691 39.9836C324.019 30.5247 324.401 23.6083 324.838 19.2342ZM325.985 4.5538C327.46 4.5538 328.689 5.20991 329.672 6.52212C330.655 7.77966 331.146 9.22857 331.146 10.8688C331.146 12.0717 330.846 13.0559 330.245 13.8213C329.699 14.5321 328.934 14.8875 327.951 14.8875C326.422 14.8875 325.22 14.2587 324.347 13.0012C323.473 11.7436 323.036 10.2674 323.036 8.57246C323.036 7.3696 323.282 6.41277 323.773 5.70199C324.319 4.93653 325.057 4.5538 325.985 4.5538Z" fill="white"/>
<path d="M360.229 21.6946L361.13 25.3852C359.655 25.4946 357.389 25.7953 354.33 26.2874C351.272 26.7248 348.978 26.9981 347.449 27.1075C347.722 29.0211 347.886 31.5362 347.94 34.6527C347.995 37.7692 348.05 40.4757 348.104 42.772C348.213 45.0137 348.459 47.2828 348.842 49.5792C349.278 51.8209 350.125 53.5431 351.381 54.746C352.692 55.9489 354.44 56.5503 356.624 56.5503C358.263 56.5503 360.311 56.1676 362.768 55.4021C363.806 57.4251 364.571 58.9014 365.062 59.8308C360.748 61.3618 356.378 62.1272 351.955 62.1272C350.316 62.1272 348.896 61.6351 347.695 60.651C346.493 59.6668 345.565 58.4366 344.909 56.9604C344.254 55.4841 343.708 53.6252 343.271 51.3835C342.888 49.0871 342.643 46.9274 342.533 44.9044C342.424 42.8814 342.37 40.5577 342.37 37.9333C342.37 36.5117 342.37 34.5434 342.37 32.0283C342.424 29.5132 342.452 27.7909 342.452 26.8614C341.905 26.9161 340.622 26.9708 338.601 27.0255C336.58 27.0255 335.406 27.0255 335.078 27.0255C334.696 23.3622 334.505 21.4759 334.505 21.3666C334.887 21.4759 335.515 21.5306 336.389 21.5306C336.881 21.5306 337.673 21.5032 338.765 21.4486C339.857 21.3392 340.677 21.2845 341.223 21.2845C341.441 21.2845 341.714 21.3119 342.042 21.3666C342.424 21.3666 342.67 21.3666 342.779 21.3666C342.998 15.3522 343.243 10.4588 343.517 6.68615L347.203 7.5883C347.258 8.90051 347.285 10.3221 347.285 11.853C347.34 13.3292 347.367 14.9968 347.367 16.8558C347.422 18.6601 347.449 20.0543 347.449 21.0385C348.869 21.1478 350.999 21.2572 353.839 21.3666C356.679 21.4759 358.809 21.5853 360.229 21.6946Z" fill="white"/>
<path d="M389.721 20.2184L393.653 20.9565V21.7766C393.653 25.4946 393.872 31.7823 394.309 40.6397C394.8 49.4971 395.237 56.3316 395.62 61.1431C394.527 61.5805 393.49 61.7992 392.506 61.7992C391.633 61.7992 390.65 61.6625 389.557 61.3891L388.902 59.2567C385.406 61.2251 382.075 62.2092 378.907 62.2092C376.559 62.2092 374.511 61.6625 372.763 60.569C371.07 59.4754 369.759 58.1359 368.831 56.5503C367.902 54.91 367.165 52.9144 366.619 50.5633C366.073 48.1576 365.718 45.9979 365.554 44.0843C365.445 42.1159 365.39 39.9289 365.39 37.5232C365.39 30.5247 365.827 24.1003 366.701 18.25L370.387 19.0702C370.77 20.8745 370.961 22.8428 370.961 24.9751C370.961 26.178 370.879 28.2557 370.715 31.2082C370.606 34.1606 370.551 36.4023 370.551 37.9333C370.551 40.6124 370.66 42.9361 370.879 44.9044C371.152 46.818 371.616 48.7044 372.271 50.5633C372.982 52.3676 374.047 53.7618 375.466 54.746C376.887 55.7302 378.661 56.2223 380.791 56.2223C383.195 56.2223 385.789 55.6755 388.574 54.582C388.683 52.559 388.793 47.3921 388.902 39.0814C389.011 30.7161 389.284 24.4284 389.721 20.2184Z" fill="white"/>
<path d="M49.5784 186.372C55.5831 192.478 58.4644 201.547 58.4644 218.27H63.5194C63.5194 201.545 66.1969 192.478 72.2009 186.372C78.2824 180.187 77.3958 170.168 72.2067 163.955C68.0873 159.022 62.8294 148.776 60.8213 144.263C58.8133 148.776 53.692 159.022 49.5726 163.955C44.3835 170.168 43.4969 180.187 49.5784 186.372Z" fill="white"/>
<rect x="47.3863" y="203.776" width="27.3189" height="6.39461" rx="3.19731" fill="white"/>
<path d="M85.9985 192.04C74.1483 189.895 67.499 201.312 68.5746 208.239C69.4681 213.994 72.6617 215.273 75.1354 215.273C77.6092 215.273 82.7718 212.609 77.9319 206.108C81.8038 204.829 88.3454 209.549 85.9985 215.273C83.2021 222.094 77.2865 220.496 73.4145 220.496C69.5426 220.496 65.6706 215.273 65.6706 208.239C65.6706 201.205 66.531 197.411 69.5426 192.04C81.8038 175.427 95.0331 185.232 95.0331 185.232C100.949 190.667 99.4429 197.808 96.6464 201.751L92.7744 205.055C94.3878 199.904 90.1931 192.799 85.9985 192.04Z" fill="white"/>
<path d="M35.9722 191.929C47.8224 189.785 54.4717 201.201 53.3961 208.129C52.5026 213.884 49.3091 215.163 46.8353 215.163C44.3615 215.163 39.1989 212.498 44.0389 205.997C40.1669 204.718 33.6253 209.438 35.9722 215.163C38.7687 221.984 44.6842 220.385 48.5562 220.385C52.4281 220.385 56.3001 215.163 56.3001 208.129C56.3001 201.095 55.4397 197.3 52.4281 191.929C40.1669 175.316 26.9376 185.121 26.9376 185.121C21.0221 190.556 22.5279 197.697 25.3243 201.641L29.1963 204.944C27.583 199.793 31.7776 192.688 35.9722 191.929Z" fill="white"/>
<path d="M65.5621 219.688C65.5621 216.785 62.6174 215.263 61.0864 214.86C59.5555 215.263 56.5294 216.785 56.5294 219.688C56.5294 222.59 53.8758 224.928 52.5489 225.734C54.1309 225.784 56.5294 226.188 58.2135 224.676C59.4893 225.734 60.6324 228.243 61.1223 230.42C61.6122 228.243 62.6022 225.734 63.878 224.676C65.5621 226.188 67.9606 225.784 69.5426 225.734C68.2157 224.928 65.5621 222.59 65.5621 219.688Z" fill="white"/>
<path d="M72.6855 92.6851C78.7269 89.138 84.9841 95.7131 84.9841 100.363C84.9841 106.203 84.1211 106.311 81.3161 107.933C79.0506 109.243 75.318 107.544 74.088 106.311C72.6855 104.905 68.5589 104.498 71.8224 107.933C73.9801 110.204 79.8058 112.467 83.1501 110.196C91.5218 103.787 98.7931 107.525 101.382 110.196C104.727 112.467 110.552 110.196 112.71 107.925C115.974 104.49 111.847 104.897 110.444 106.302C109.214 107.536 105.482 109.235 103.216 107.925C100.411 106.302 99.5483 106.194 99.5483 100.355C99.5483 95.7045 105.806 89.1294 111.847 92.6765C119.399 97.1104 125.98 94.0824 127.49 92.6765C130.638 89.746 131.482 85.3227 128.569 82.1866C127.49 80.5644 133.316 75.9143 131.697 70.8316C129.969 65.4025 124.075 58.6673 116.847 62.0198C111.064 64.7017 111.92 64.5071 110.589 65.1559C109.007 66.2013 106.344 67.4 108.243 64.026C110.637 59.7729 116.814 48.7975 108.216 41.2563C101.311 35.2003 95.5577 38.733 93.5439 41.2563C93.0404 41.7221 91.9256 42.2382 91.0626 41.2563C89.0488 38.733 83.295 35.2089 76.3905 41.2649C67.7928 48.8061 73.9696 59.7815 76.3632 64.0346C78.2619 67.4086 75.5994 66.2099 74.0171 65.1645C72.6865 64.5157 73.5424 64.7103 67.7599 62.0284C60.5317 58.6759 54.5635 65.4111 52.835 70.8402C51.2168 75.9229 57.0425 80.573 55.9636 82.1952C53.0508 85.3313 53.8941 89.7546 57.0425 92.6851C58.5528 94.091 65.1337 97.119 72.6855 92.6851Z" fill="white"/>
</g>
<defs>
<filter id="filter0_d" x="0.660248" y="0.207092" width="701" height="270" filterUnits="userSpaceOnUse" color-interpolation-filters="sRGB">
<feFlood flood-opacity="0" result="BackgroundImageFix"/>
<feColorMatrix in="SourceAlpha" type="matrix" values="0 0 0 0 0 0 0 0 0 0 0 0 0 0 0 0 0 0 127 0"/>
<feOffset dx="4" dy="4"/>
<feColorMatrix type="matrix" values="0 0 0 0 0 0 0 0 0 0 0 0 0 0 0 0 0 0 0.25 0"/>
<feBlend mode="normal" in2="BackgroundImageFix" result="effect1_dropShadow"/>
<feBlend mode="normal" in="SourceGraphic" in2="effect1_dropShadow" result="shape"/>
</filter>
</defs>
</svg>
