<svg width="511" height="284" viewBox="0 0 511 284" fill="none" xmlns="http://www.w3.org/2000/svg">
  <path fill-rule="evenodd" clip-rule="evenodd"
        d="M245.719 38.0606C246.312 38.6088 247.176 38.7469 247.91 38.4105L254.171 35.5416C254.721 35.2894 255.357 35.3001 255.898 35.5709L261.327 38.2845C262.085 38.6638 263.001 38.5231 263.611 37.9332L302.201 0.615789C302.995 -0.152056 304.261 -0.130827 305.029 0.663206C305.797 1.45724 305.776 2.72339 304.982 3.49123L266.624 40.5837C265.959 41.2269 265.822 42.2424 266.293 43.039L268.231 46.3176C268.591 46.9265 269.245 47.3 269.952 47.3H281.784C282.397 47.3 282.977 47.5817 283.356 48.0642L287.337 53.1297C287.614 53.4821 287.765 53.9174 287.765 54.3655V62.3259C287.765 62.7495 287.63 63.1621 287.381 63.5043L275.923 79.2159C275.761 79.438 275.773 79.7423 275.952 79.951C276.136 80.166 276.447 80.2206 276.694 80.0812L309.289 61.6598C309.696 61.4296 310.01 61.0638 310.175 60.6261L321.422 30.8882C321.474 30.75 321.542 30.6179 321.623 30.4945L328.996 19.3174C329.304 18.8508 329.793 18.5342 330.345 18.4446L342.349 16.4942C344.392 16.1621 345.532 18.7736 343.899 20.0461L328.608 31.9574C328.178 32.292 327.904 32.7872 327.847 33.3287L325.2 58.8398C325.139 59.423 324.826 59.9502 324.343 60.2821L283.523 88.5742C283.663 89.714 285.124 91.3918 286.161 90.8974L448.541 13.4344C449.079 13.1776 449.704 13.1744 450.245 13.4257L509.472 40.9397C510.178 41.2676 510.629 41.9753 510.629 42.7536V70.5301C510.629 71.1581 510.334 71.7496 509.833 72.1274L454.537 113.792C454.094 114.126 453.533 114.261 452.987 114.165L432.369 110.538C430.764 110.255 429.513 111.908 430.221 113.376L433.907 121.022C434.295 121.826 434.103 122.791 433.435 123.385L383.381 167.932C383.049 168.227 382.629 168.403 382.187 168.433L347.594 170.792C347.111 170.825 346.632 170.681 346.246 170.387L287.734 125.823C286.921 125.203 285.772 125.297 285.069 126.039L278.24 133.258C277.318 134.233 277.599 135.821 278.799 136.422L297.791 145.917C297.977 146.01 298.147 146.131 298.295 146.276L332.86 180.064C333.079 180.278 333.246 180.54 333.348 180.829L336.049 188.482C336.141 188.743 336.286 188.981 336.475 189.183L368.292 223.191C368.988 223.935 369.014 225.081 368.354 225.856L368.093 226.161C367.433 226.935 366.296 227.09 365.453 226.521L333.323 204.84C333.085 204.679 332.884 204.468 332.734 204.222L325.815 192.856L308.349 168.063C308.018 167.594 307.503 167.289 306.932 167.227L301.115 166.587C299.931 166.457 298.897 167.384 298.897 168.575V170.184L300.486 195.208C300.505 195.507 300.591 195.798 300.737 196.06L331.325 250.606C331.489 250.898 331.724 251.144 332.008 251.322L360.686 269.293C361.189 269.608 361.526 270.132 361.606 270.721L362.93 280.557C363.114 281.922 361.894 283.06 360.544 282.782L352.602 281.147C352.168 281.058 351.776 280.827 351.487 280.491L328.959 254.239C328.827 254.086 328.674 253.953 328.503 253.846L305.754 239.591C305.301 239.307 304.98 238.853 304.864 238.331L298.852 211.301C298.387 209.213 295.411 209.214 294.947 211.302L289.863 234.191L254.084 262.908C253.308 263.531 252.192 263.488 251.466 262.809L221.008 234.316L212.433 208.73C211.792 206.806 209.024 206.949 208.583 208.929L201.798 239.435C201.682 239.957 201.361 240.411 200.908 240.695L178.159 254.951C177.988 255.058 177.835 255.19 177.703 255.343L155.175 281.595C154.886 281.931 154.494 282.162 154.06 282.251L146.117 283.887C144.768 284.164 143.548 283.026 143.732 281.661L145.056 271.825C145.136 271.236 145.473 270.713 145.976 270.397L174.654 252.426C174.938 252.248 175.173 252.002 175.337 251.71L207.512 194.333C207.679 194.035 207.767 193.698 207.767 193.355L207.765 169.641C207.765 168.47 206.748 167.559 205.584 167.687L199.73 168.331C199.159 168.393 198.644 168.698 198.313 169.167L180.847 193.96L173.928 205.326C173.778 205.572 173.577 205.783 173.338 205.944L141.209 227.625C140.366 228.194 139.229 228.039 138.569 227.265L138.308 226.96C137.648 226.185 137.674 225.039 138.37 224.296L170.187 190.287C170.376 190.085 170.521 189.847 170.613 189.586L173.314 181.933C173.416 181.644 173.583 181.382 173.802 181.168L208.367 147.38C208.515 147.235 208.685 147.114 208.871 147.021L229.824 136.545C231.065 135.925 231.313 134.26 230.306 133.306L221.936 125.365C221.224 124.69 220.128 124.631 219.348 125.225L161.861 169.009C161.475 169.303 160.996 169.446 160.513 169.413L126.541 167.097C126.098 167.067 125.678 166.891 125.347 166.596L76.1909 122.848C75.5236 122.255 75.331 121.29 75.719 120.486L79.2786 113.104C79.9864 111.636 78.7356 109.983 77.1306 110.265L57.0206 113.803C56.4746 113.899 55.9133 113.764 55.4706 113.43L1.16711 72.5134C0.66559 72.1355 0.370667 71.544 0.370667 70.9161V43.6382C0.370667 42.8598 0.82219 42.1522 1.52805 41.8243L59.6923 14.8042C60.2331 14.5529 60.8578 14.5561 61.396 14.8129L220.636 90.7779C221.508 91.1938 222.527 90.6123 222.612 89.6502C222.657 89.1479 222.89 88.6809 223.264 88.3429C223.678 87.9694 223.634 87.3074 223.174 86.9919L183.286 59.6015C182.802 59.2696 182.489 58.7424 182.428 58.1592L179.781 32.6482C179.725 32.1066 179.45 31.6114 179.02 31.2768L163.73 19.3655C162.096 18.0931 163.236 15.4815 165.279 15.8136L177.284 17.764C177.835 17.8537 178.325 18.1702 178.632 18.6369L186.005 29.8139C186.087 29.9373 186.154 30.0694 186.206 30.2077L197.453 59.9455C197.618 60.3832 197.932 60.749 198.339 60.9792L231.918 79.9567C232.15 80.0879 232.44 80.0558 232.638 79.8771C232.883 79.6562 232.912 79.2825 232.704 79.0267L220.158 63.5872C219.868 63.2306 219.71 62.7853 219.71 62.3259V54.3655C219.71 53.7129 220.029 53.1012 220.563 52.727L227.801 47.6614C228.137 47.4262 228.538 47.3 228.948 47.3H239.332C240.039 47.3 240.694 46.9265 241.053 46.3176L242.954 43.1015C243.433 42.2906 243.282 41.2553 242.59 40.6157L202.452 3.48949C201.641 2.73946 201.592 1.47409 202.342 0.663204C203.092 -0.147679 204.357 -0.197013 205.168 0.553014L245.719 38.0606ZM236.652 137.604L212.871 149.493C212.193 149.832 211.765 150.525 211.765 151.282V167.235C211.765 168.41 212.773 169.332 213.943 169.227L255 165.584L292.706 169.187C293.88 169.3 294.897 168.377 294.897 167.197V150.178C294.897 149.421 294.469 148.728 293.791 148.389L270.99 136.99L255.82 129.706C255.287 129.45 254.668 129.443 254.13 129.687L236.652 137.604ZM216.669 198.724C215.109 198.223 213.641 199.707 214.159 201.261L223.864 230.37C224.258 231.553 225.628 232.09 226.722 231.491L251.871 217.706C252.431 217.398 253.105 217.377 253.683 217.649L283.8 231.799C284.959 232.344 286.325 231.674 286.603 230.423L293.022 201.522C293.359 200.003 291.91 198.698 290.434 199.192L255.639 210.845C255.235 210.98 254.798 210.983 254.392 210.852L216.669 198.724ZM87.0871 109.353C86.2214 109.225 85.373 109.674 84.9929 110.462L82.3926 115.855C81.7172 117.256 82.8288 118.858 84.3774 118.715L108.454 116.5C110.81 116.284 110.904 112.877 108.563 112.53L87.0871 109.353ZM138.206 120.549C138.622 119.19 137.526 117.843 136.111 117.973L86.881 122.502C85.1388 122.662 84.4276 124.824 85.7346 125.987L123.346 159.46C124.435 160.43 126.162 159.945 126.588 158.551L138.206 120.549ZM130.062 160.869C129.686 162.101 130.554 163.362 131.839 163.449L154.666 165.006C156.107 165.104 157.174 163.689 156.683 162.33L144.059 127.401C143.406 125.593 140.827 125.658 140.265 127.496L130.062 160.869ZM142.13 113.454L181.574 118.331C183.25 118.538 184.413 116.702 183.508 115.275L171.187 95.8408C170.757 95.1626 169.963 94.8074 169.171 94.9386L109.963 104.747C107.712 105.12 107.74 108.365 109.997 108.699L142.13 113.454ZM181.163 97.5448C179.389 97.0105 177.905 98.9662 178.897 100.531L189.617 117.441C190.138 118.262 191.175 118.59 192.073 118.217L211.174 110.29C212.91 109.57 212.784 107.07 210.984 106.528L181.163 97.5448ZM219.732 114.233C219.86 112.738 218.358 111.64 216.973 112.215L209.039 115.507C207.018 116.346 207.618 119.354 209.806 119.354H217.457C218.496 119.354 219.361 118.56 219.45 117.525L219.732 114.233ZM210.487 126.946C212.01 125.786 211.19 123.354 209.275 123.354H191.936C191.25 123.354 190.611 123.706 190.245 124.287L174.184 149.725C172.994 151.61 175.314 153.735 177.087 152.384L210.487 126.946ZM159.75 159.049C160.316 160.614 162.434 160.844 163.323 159.437L184.674 125.618C185.456 124.378 184.683 122.746 183.228 122.566L148.084 118.22C146.603 118.037 145.45 119.482 145.957 120.885L159.75 159.049ZM220.715 102.764C220.607 104.029 219.362 104.874 218.146 104.508L201.565 99.5131C199.321 98.8372 199.869 95.5182 202.211 95.5993L219.169 96.1869C220.313 96.2265 221.191 97.2162 221.093 98.3565L220.715 102.764ZM205.241 87.8657C207.199 88.7995 206.478 91.7448 204.311 91.6697L173.979 90.6187C173.227 90.5926 172.553 90.1464 172.236 89.464L164.204 72.2142C163.413 70.5141 165.186 68.7575 166.879 69.565L205.241 87.8657ZM149.317 61.187C150.831 61.9093 150.836 64.0622 149.326 64.7926L61.0128 107.512C59.7539 108.121 58.2747 107.283 58.1499 105.89L54.0843 60.4953C54.0675 60.3076 54.0773 60.1185 54.1134 59.9336L61.5085 22.0673C61.759 20.7844 63.1527 20.0828 64.3325 20.6456L149.317 61.187ZM54.2628 21.737C55.7443 21.0487 57.3814 22.3309 57.0683 23.9342L50.9497 55.2642C50.7187 56.4472 49.5015 57.1585 48.3574 56.7792L12.5746 44.9144C10.8554 44.3444 10.7188 41.9653 12.3614 41.2022L54.2628 21.737ZM4.37067 49.1786C4.37067 47.8148 5.70564 46.851 7.00012 47.2803L37.5433 57.4076C39.4746 58.048 39.3273 60.8276 37.3391 61.2603L6.79591 67.9063C5.5492 68.1776 4.37067 67.228 4.37067 65.9521V49.1786ZM11.3184 71.0159C9.6468 71.3796 9.17381 73.5379 10.5401 74.5675L50.6829 104.814C52.0675 105.858 54.0331 104.765 53.8785 103.039L50.454 64.8019C50.3466 63.6033 49.2127 62.7702 48.0367 63.0261L11.3184 71.0159ZM84.1228 104.974C81.9216 105.361 80.9387 102.317 82.9507 101.344L154.909 66.5353C155.914 66.0493 157.122 66.4798 157.593 67.4916L167.422 88.6028C167.981 89.8023 167.241 91.2038 165.936 91.4201L84.1228 104.974ZM425.249 119.251C426.798 119.394 427.909 117.792 427.234 116.391L424.506 110.735C424.126 109.947 423.278 109.497 422.412 109.625L399.887 112.958C397.547 113.305 397.64 116.712 399.997 116.928L425.249 119.251ZM423.892 126.523C425.199 125.36 424.488 123.198 422.745 123.038L372.34 118.401C370.924 118.271 369.828 119.618 370.244 120.977L382.14 159.887C382.566 161.281 384.293 161.765 385.382 160.796L423.892 126.523ZM351.423 163.709C350.932 165.067 351.999 166.482 353.44 166.384L376.889 164.785C378.174 164.698 379.042 163.436 378.665 162.205L368.185 127.924C367.623 126.086 365.044 126.021 364.391 127.829L351.423 163.709ZM324.067 115.811C323.162 117.238 324.325 119.074 326.001 118.867L366.32 113.882L399.503 108.972C401.759 108.638 401.787 105.393 399.537 105.02L338.738 94.9478C337.946 94.8166 337.152 95.1718 336.722 95.85L324.067 115.811ZM315.502 118.753C316.4 119.126 317.437 118.798 317.958 117.977L329.012 100.54C330.004 98.9754 328.52 97.0197 326.746 97.5539L295.996 106.817C294.196 107.359 294.07 109.859 295.806 110.58L315.502 118.753ZM297.77 119.891C299.957 119.891 300.557 116.882 298.536 116.043L290.007 112.504C288.622 111.929 287.12 113.027 287.248 114.522L287.551 118.061C287.64 119.096 288.506 119.891 289.544 119.891H297.77ZM317.33 124.823C316.964 124.242 316.326 123.891 315.639 123.891H297.726C295.811 123.891 294.991 126.322 296.514 127.482L331.02 153.762C332.793 155.113 335.112 152.988 333.923 151.103L317.33 124.823ZM324.347 123.102C322.892 123.282 322.119 124.914 322.902 126.154L344.784 160.815C345.673 162.222 347.791 161.992 348.356 160.427L362.493 121.313C363 119.909 361.847 118.465 360.367 118.648L324.347 123.102ZM305.698 95.6085C308.04 95.5273 308.588 98.8464 306.344 99.5223L288.835 104.797C287.618 105.163 286.373 104.318 286.265 103.053L285.866 98.3986C285.768 97.2583 286.646 96.2686 287.789 96.229L305.698 95.6085ZM335.674 89.4732C335.356 90.1556 334.682 90.6018 333.93 90.6279L302.648 91.7118C300.481 91.7869 299.76 88.8416 301.718 87.9079L341.282 69.0337C342.975 68.2263 344.748 69.9829 343.956 71.683L335.674 89.4732ZM451.858 106.252C451.733 107.645 450.254 108.483 448.995 107.874L358.834 64.2613C357.324 63.5309 357.33 61.378 358.844 60.6558L445.604 19.2671C446.784 18.7043 448.178 19.4059 448.428 20.6888L455.979 59.35C456.015 59.535 456.025 59.7241 456.008 59.9118L451.858 106.252ZM461.735 56.1956C460.591 56.575 459.373 55.8636 459.142 54.6806L452.868 22.5557C452.555 20.9523 454.192 19.6702 455.674 20.3585L498.639 40.3177C500.281 41.0807 500.145 43.4598 498.425 44.0299L461.735 56.1956ZM472.753 60.6767C470.765 60.2441 470.617 57.4645 472.549 56.8241L504 46.3957C505.294 45.9664 506.629 46.9302 506.629 48.294V65.5661C506.629 66.842 505.451 67.7917 504.204 67.5204L472.753 60.6767ZM456.129 103.401C455.974 105.127 457.94 106.22 459.324 105.176L500.46 74.1815C501.826 73.152 501.353 70.9937 499.682 70.6299L462.055 62.4426C460.879 62.1867 459.745 63.0198 459.638 64.2184L456.129 103.401ZM350.567 66.9604C351.038 65.9485 352.247 65.518 353.251 66.0041L426.592 101.481C428.679 102.491 427.66 105.648 425.377 105.246L341.973 91.4292C340.668 91.213 339.928 89.8115 340.487 88.612L350.567 66.9604Z"
        fill="currentColor"/>
</svg>
