<svg width="342" height="315" viewBox="0 0 342 315" fill="none" xmlns="http://www.w3.org/2000/svg">
<path d="M87.2435 235.345C113.179 220.134 140.04 248.329 140.04 268.27C140.04 293.311 136.335 293.775 124.294 300.731C114.568 306.349 98.5446 299.062 93.2641 293.775C87.2435 287.746 69.5287 286.001 83.5385 300.731C92.801 310.469 117.81 320.17 132.167 310.432C168.105 282.95 199.32 298.981 210.435 310.432C224.792 320.17 249.801 310.432 259.063 300.694C273.073 285.964 255.358 287.709 249.337 293.738C244.057 299.025 228.034 306.312 218.308 300.694C206.267 293.738 202.562 293.274 202.562 268.233C202.562 248.292 229.423 220.098 255.358 235.308C287.777 254.321 316.027 241.336 322.511 235.308C336.027 222.741 339.647 203.774 327.143 190.326C322.511 183.37 347.52 163.429 340.573 141.634C333.153 118.354 307.85 89.4726 276.821 103.848C251.997 115.349 255.671 114.514 249.959 117.296C243.167 121.779 231.737 126.919 239.888 112.451C250.163 94.2134 276.68 47.1495 239.771 14.8121C210.131 -11.1567 185.431 3.99178 176.786 14.8121C174.624 16.8093 169.839 19.0226 166.134 14.8121C157.489 3.99178 132.789 -11.1198 103.149 14.849C66.2397 47.1864 92.7561 94.2503 103.031 112.488C111.182 126.956 99.7523 121.816 92.9598 117.333C87.248 114.551 90.9221 115.386 66.0986 103.885C35.0692 89.5095 9.44864 118.391 2.02843 141.671C-4.91842 163.466 20.0903 183.407 15.4591 190.363C2.95468 203.811 6.57474 222.778 20.0903 235.345C26.5741 241.373 54.8247 254.358 87.2435 235.345Z" fill="currentColor"/>
</svg>
