<svg width="391" height="331" viewBox="0 0 391 331" fill="none" xmlns="http://www.w3.org/2000/svg">
  <path
    d="M133.274 37.1904C133.346 36.8686 133.497 36.5696 133.713 36.3201L163.9 1.43132C164.908 0.266894 166.798 0.630015 167.303 2.08487L173.999 21.4018C174.122 21.7557 174.143 22.137 174.059 22.5022L150.166 127.115C149.769 128.852 147.471 129.243 146.523 127.734L122.218 89.0672C121.937 88.62 121.844 88.0798 121.96 87.5645L133.274 37.1904Z"
    fill="currentColor"/>
  <path
    d="M104.428 63.1245L124.808 44.5968C126.254 43.2824 128.533 44.6084 128.105 46.515L120.406 80.792C120.029 82.4683 117.854 82.921 116.84 81.5341L103.952 63.9059C103.827 63.7342 103.879 63.4914 104.064 63.3869C104.195 63.3133 104.317 63.2253 104.428 63.1245Z"
    fill="currentColor"/>
  <path
    d="M94.9981 69.1868C95.1371 68.6673 95.4795 68.2257 95.948 67.9617L100.477 65.4089C101.504 64.8299 102.769 65.5977 102.73 66.7762L99.4585 164.58C99.4429 165.047 99.2638 165.495 98.9524 165.844L63.0478 206.109C61.8249 207.481 59.5551 206.616 59.5551 204.778V201.84C59.5551 201.665 59.578 201.491 59.6231 201.323L94.9981 69.1868Z"
    fill="currentColor"/>
  <path
    d="M53.1409 208.415C54.4008 207.155 56.5551 208.047 56.5551 209.829V212.628C56.5551 213.119 56.3745 213.593 56.0478 213.96L16.1437 258.71C15.3173 259.637 13.8541 259.595 13.0982 258.61C8.34531 252.415 4.08205 245.865 0.36988 238.976C0.173752 238.612 0.097479 238.196 0.149253 237.785L9.51407 163.586C9.53604 163.412 9.58081 163.242 9.64723 163.079L26.9014 120.903C27.7555 118.815 30.8739 119.518 30.7495 121.77L24.5875 233.266C24.5116 234.641 26.1725 235.383 27.1459 234.41L53.1409 208.415Z"
    fill="currentColor"/>
  <path
    d="M157.887 328.692C157.657 329.644 156.771 330.29 155.795 330.211C101.197 325.774 49.7854 302.325 17.5717 264.166C16.9349 263.411 16.9576 262.305 17.6146 261.568L99.2534 170.014C100.082 169.085 101.549 169.13 102.319 170.109L173.517 260.695C173.895 261.176 174.032 261.805 173.889 262.4L167.211 290.064C166.836 291.616 164.885 292.125 163.8 290.955L93.1957 214.806C92.6225 214.188 91.669 214.118 91.0113 214.645C90.3537 215.173 90.2154 216.119 90.6945 216.812L159.988 317.147C160.311 317.616 160.42 318.2 160.286 318.753L157.887 328.692Z"
    fill="currentColor"/>
  <path
    d="M188.433 328.767C188.394 329.797 187.58 330.63 186.551 330.682C178.65 331.083 170.754 331.078 162.909 330.68C161.666 330.617 160.793 329.436 161.086 328.227L177.19 261.507L179.984 252.776C180.09 252.444 180.077 252.085 179.948 251.761L115.654 91.3069C114.827 89.2413 117.625 87.6902 118.938 89.4866L148.281 136.169C148.356 136.288 148.418 136.414 148.466 136.546L181.362 226.486C181.861 227.849 183.811 227.78 184.212 226.386L188.928 210.012C189.582 207.743 192.937 208.281 192.849 210.64L188.433 328.767Z"
    fill="currentColor"/>
  <path
    d="M215.687 327.331C208.752 328.586 201.776 329.512 194.79 330.117C193.406 330.237 192.341 328.932 192.719 327.596L250.111 124.454C250.747 122.202 254.07 122.688 254.035 125.028L251.184 317.467C251.183 317.519 251.224 317.561 251.276 317.562C251.38 317.564 251.405 317.708 251.307 317.744C239.685 321.966 227.755 325.147 215.687 327.331Z"
    fill="currentColor"/>
  <path
    d="M314.782 279.969C314.711 280.44 314.474 280.872 314.113 281.183C296.754 296.119 277.378 307.512 256.942 315.605C255.629 316.125 254.219 315.137 254.24 313.725L257.431 98.3589C257.447 97.2691 258.696 96.6612 259.563 97.3208L331.023 151.652C331.205 151.79 331.362 151.959 331.487 152.15L339.314 164.138C339.645 164.644 339.729 165.273 339.542 165.848L325.321 209.734C325.296 209.812 325.277 209.892 325.264 209.974L314.782 279.969Z"
    fill="currentColor"/>
  <path
    d="M254.815 93.7103L254.945 93.8091C255.809 94.4662 255.991 95.6928 255.355 96.5728L200.511 172.45C199.377 174.02 196.896 173.221 196.891 171.283L196.557 41.9028C196.552 40.2874 198.366 39.3338 199.695 40.2529L237.457 66.3801C237.545 66.4417 237.629 66.5103 237.707 66.5854L237.89 66.7618C238.01 66.8771 238.114 67.0068 238.202 67.148L254.325 93.1716C254.454 93.3796 254.62 93.5622 254.815 93.7103Z"
    fill="currentColor"/>
  <path
    d="M173.035 9.46078C172.346 7.47297 174.799 5.90563 176.313 7.36622L206.49 36.4745C208.26 38.1816 205.986 40.9577 203.964 39.5587L177.539 21.2757C177.19 21.034 176.926 20.6874 176.787 20.286L173.035 9.46078Z"
    fill="currentColor"/>
  <path
    d="M35.0071 101.089C34.9228 101.295 34.8735 101.513 34.8613 101.736L28.0883 224.289C27.987 226.122 30.2015 227.111 31.4994 225.814L56.331 200.982C56.5794 200.734 56.7579 200.424 56.8488 200.085L91.7238 69.8166C91.7635 69.6683 91.6926 69.5127 91.5547 69.4455L64.5508 56.273C63.6298 55.8238 62.5182 56.1433 61.9764 57.0131L36.0299 98.6636C35.9704 98.7592 35.919 98.8596 35.8764 98.9639L35.0071 101.089Z"
    fill="currentColor"/>
  <path
    d="M331.916 263.79C328.791 267.252 325.574 270.573 322.272 273.753C320.917 275.058 318.725 273.897 319.003 272.036L328.189 210.704C328.205 210.595 328.23 210.488 328.264 210.384L341.816 168.562C341.868 168.403 342.08 168.375 342.172 168.514C342.264 168.656 342.481 168.624 342.528 168.462L343.628 164.71C344.035 163.321 346.091 163.663 346.027 165.108L342.238 250.787C342.22 251.196 342.077 251.59 341.827 251.915C338.639 256.046 335.332 260.004 331.916 263.79Z"
    fill="currentColor"/>
  <path
    d="M349.224 241.692C348.111 243.334 345.609 242.47 345.697 240.489L350 143.179C350.007 143.018 350.033 142.859 350.078 142.705L350.911 139.862C350.971 139.661 351.061 139.47 351.18 139.296L373.787 106.229C374.353 105.402 375.443 105.121 376.338 105.572L389.58 112.249C390.303 112.614 390.735 113.385 390.67 114.192C386.447 167.003 371.299 209.143 349.224 241.692Z"
    fill="currentColor"/>
  <path
    d="M193.544 37.0405C193.542 36.3859 193.22 35.7735 192.682 35.401L179.144 26.0339C177.98 25.2287 176.371 25.8537 176.056 27.2333L151.441 135.008C151.355 135.385 151.379 135.778 151.512 136.14L180.497 215.386C181.161 217.203 183.762 217.112 184.297 215.253L193.839 182.121C193.891 181.939 193.918 181.751 193.917 181.562L193.544 37.0405Z"
    fill="currentColor"/>
  <path
    d="M197.255 182.076C197.024 182.396 196.892 182.778 196.878 183.173L192.39 303.22C192.302 305.585 195.67 306.116 196.313 303.839L249.113 116.95C249.721 114.798 246.878 113.422 245.568 115.235L197.255 182.076Z"
    fill="currentColor"/>
  <path
    d="M109.027 82.8337C108.222 80.8247 105.244 81.3477 105.172 83.5107L102.457 164.671C102.441 165.142 102.592 165.603 102.884 165.973L172.849 254.99C173.84 256.251 175.837 255.891 176.326 254.364L176.743 253.062C176.885 252.618 176.868 252.14 176.695 251.708L109.027 82.8337Z"
    fill="currentColor"/>
  <path
    d="M158.899 310.292C159.882 311.715 162.084 311.305 162.489 309.625L165.239 298.233C165.396 297.582 165.217 296.895 164.762 296.404L123.149 251.524C121.462 249.704 118.626 251.978 120.037 254.021L158.899 310.292Z"
    fill="currentColor"/>
</svg>
