<svg width="242" height="397" viewBox="0 0 242 397" fill="none" xmlns="http://www.w3.org/2000/svg">
  <path
    d="M68.7005 2.73499C67.3636 3.15276 66.8592 4.77973 67.7251 5.88052L75.6671 15.9762C76.9183 17.5668 79.4697 16.5058 79.2242 14.497L77.7435 2.38212C77.592 1.14238 76.3538 0.343258 75.1617 0.7158L68.7005 2.73499Z"
    fill="currentColor"/>
  <path
    d="M140.637 23.1295C139.766 24.6018 137.569 24.3722 137.021 22.7517L133.55 12.4811C133.111 11.1845 134.076 9.84067 135.444 9.84067H144.992C146.541 9.84067 147.502 11.5257 146.713 12.8589L140.637 23.1295Z"
    fill="currentColor"/>
  <path
    d="M58.0955 57.6054C56.6091 58.3795 56.677 60.5289 58.2093 61.2078L68.1768 65.6237C69.9033 66.3887 71.6306 64.5549 70.7638 62.8771L66.8524 55.3068C66.3442 54.3232 65.1336 53.9396 64.1517 54.451L58.0955 57.6054Z"
    fill="currentColor"/>
  <path
    d="M73.6706 95.2015C74.6751 97.0096 72.6098 98.9666 70.8584 97.8664L61.477 91.9729C60.2166 91.1811 60.2319 89.3391 61.5053 88.5684L66.0757 85.8019C67.0456 85.2149 68.3091 85.5506 68.8596 86.5416L73.6706 95.2015Z"
    fill="currentColor"/>
  <path
    d="M17.8454 108.288C16.8181 109.441 17.4295 111.273 18.9433 111.579L38.2396 115.47C40.1205 115.85 41.4044 113.62 40.1319 112.184L28.7813 99.3732C27.9869 98.4766 26.5879 98.4747 25.7911 99.3691L17.8454 108.288Z"
    fill="currentColor"/>
  <path
    d="M17.8454 150.797C16.7136 151.586 16.7015 153.257 17.8217 154.062L24.849 159.113C26.509 160.306 28.6784 158.534 27.8406 156.669L24.4368 149.093C23.9233 147.95 22.497 147.555 21.4689 148.272L17.8454 150.797Z"
    fill="currentColor"/>
  <path
    d="M8.62929 209.381C8.94005 211.528 6.08981 212.564 4.94891 210.72L0.613442 203.709C-0.210548 202.377 0.747837 200.657 2.31445 200.657H5.6351C6.62899 200.657 7.47208 201.387 7.61447 202.371L8.62929 209.381Z"
    fill="currentColor"/>
  <path
    d="M90.9703 137.157C89.8218 137.719 89.4884 139.2 90.285 140.2L96.4499 147.939C97.6292 149.419 100.014 148.585 100.014 146.692V135.937C100.014 134.457 98.4639 133.49 97.1352 134.14L90.9703 137.157Z"
    fill="currentColor"/>
  <path
    d="M150.462 61.9168C148.913 62.5906 147.277 61.158 147.742 59.5332L150.544 49.725C150.939 48.3433 152.619 47.8164 153.732 48.7251L160.598 54.3298C161.758 55.2769 161.504 57.1162 160.13 57.7133L150.462 61.9168Z"
    fill="currentColor"/>
  <path
    d="M182.893 76.1076C181.892 76.2327 181.141 77.0835 181.141 78.0922V85.7463C181.141 87.6369 183.522 88.472 184.703 86.9957L191.507 78.4911C192.628 77.0894 191.478 75.0345 189.697 75.2572L182.893 76.1076Z"
    fill="currentColor"/>
  <path
    d="M208.709 116.07C206.825 116.881 205.087 114.667 206.322 113.029L212.338 105.049C213.003 104.166 214.26 103.991 215.142 104.658L219.684 108.096C220.907 109.021 220.676 110.922 219.268 111.528L208.709 116.07Z"
    fill="currentColor"/>
  <path
    d="M190.172 161.896C188.958 161.706 187.862 162.644 187.862 163.872V172.243C187.862 174.096 190.163 174.953 191.375 173.551L197.747 166.179C198.773 164.992 198.094 163.139 196.544 162.896L190.172 161.896Z"
    fill="currentColor"/>
  <path
    d="M232.032 184.896C230.436 185.906 228.458 184.343 229.072 182.556L231.983 174.074C232.383 172.91 233.73 172.38 234.816 172.959L240.513 175.997C241.866 176.719 241.937 178.633 240.641 179.452L232.032 184.896Z"
    fill="currentColor"/>
  <path
    d="M198.022 231.86C196.918 231.86 196.022 232.755 196.022 233.86V243.549C196.022 245.66 198.867 246.331 199.811 244.444L204.656 234.754C205.321 233.424 204.354 231.86 202.867 231.86H198.022Z"
    fill="currentColor"/>
  <path
    d="M128.574 150.413C127.746 148.542 124.975 148.975 124.757 151.009L121.901 177.659C121.861 178.038 121.712 178.398 121.474 178.695L103.788 200.803C103.187 201.554 103.206 202.628 103.834 203.357L116.962 218.608C117.96 219.767 119.839 219.422 120.359 217.983L137.223 171.323C137.399 170.838 137.38 170.305 137.171 169.833L128.574 150.413Z"
    fill="currentColor"/>
  <path
    d="M141.356 182.182C140.766 180.373 138.22 180.332 137.573 182.122L130.553 201.546C129.776 203.695 132.629 205.256 134.02 203.444L143.392 191.238C143.794 190.715 143.912 190.027 143.708 189.4L141.356 182.182Z"
    fill="currentColor"/>
  <path
    d="M146.869 198.33C146.331 196.845 144.364 196.54 143.402 197.793L121.679 226.084C121.619 226.162 121.565 226.245 121.517 226.331L117.184 234.135C116.1 236.086 118.541 238.077 120.234 236.624L125.26 232.311C126.02 231.66 127.143 231.67 127.891 232.334L128.243 232.647C128.991 233.311 129.133 234.426 128.576 235.256L120.073 247.931C118.916 249.655 120.827 251.781 122.664 250.815L157.426 232.545C158.311 232.08 158.716 231.033 158.376 230.093L146.869 198.33Z"
    fill="currentColor"/>
  <path
    d="M154.179 242.859C155.039 241.122 153.172 239.3 151.456 240.202L111.437 261.235C111.142 261.39 110.891 261.615 110.706 261.891L76.8807 312.309C75.678 314.102 77.7757 316.265 79.6043 315.118L135.401 280.115C135.714 279.919 135.967 279.64 136.131 279.309L154.179 242.859Z"
    fill="currentColor"/>
  <path
    d="M117.817 295.868C119.736 294.665 121.862 297.075 120.428 298.829L101.513 321.957C101.414 322.078 101.301 322.187 101.177 322.281L55.447 357.122C53.7458 358.418 51.4714 356.499 52.4628 354.604L66.0244 328.68C66.1887 328.366 66.4335 328.102 66.7337 327.913L117.817 295.868Z"
    fill="currentColor"/>
  <path
    d="M65.7098 315.406C65.8831 317.28 68.3135 317.899 69.3622 316.336L110.044 255.699C111.312 253.809 108.874 251.643 107.146 253.126C106.428 253.742 105.37 253.755 104.637 253.157L103.973 252.616C103.325 252.087 103.149 251.17 103.555 250.439C104.543 248.661 102.178 246.936 100.786 248.42L63.8361 287.822C63.4447 288.239 63.2508 288.804 63.3035 289.374L65.7098 315.406Z"
    fill="currentColor"/>
  <path
    d="M57.0901 289.571C57.7843 288.721 57.6639 287.47 56.8202 286.768L41.6215 274.123C40.951 273.565 39.9964 273.506 39.2623 273.977L16.3462 288.679C15.2962 289.353 15.1124 290.813 15.9629 291.726L35.379 312.566C36.2053 313.453 37.6245 313.406 38.3913 312.467L57.0901 289.571Z"
    fill="currentColor"/>
  <path
    d="M32.7934 318.562C33.588 317.807 33.626 316.552 32.8785 315.75L17.233 298.957C15.9618 297.593 13.6799 298.557 13.7721 300.419L15.2697 330.667C15.3543 332.376 17.4058 333.196 18.6455 332.017L32.7934 318.562Z"
    fill="currentColor"/>
  <path
    d="M20.856 339.761C19.3678 340.131 18.8322 341.969 19.8889 343.08L39.9525 364.182C40.8972 365.175 42.5386 364.946 43.1741 363.731L58.8593 333.748C59.6587 332.22 58.2786 330.464 56.6049 330.88L20.856 339.761Z"
    fill="currentColor"/>
  <path
    d="M60.9369 325.682C61.8959 325.443 62.5372 324.541 62.4462 323.557L60.0544 297.681C59.8896 295.899 57.646 295.214 56.5138 296.6L38.5101 318.646L26.0484 330.497C24.5604 331.912 25.916 334.382 27.9089 333.887L60.9369 325.682Z"
    fill="currentColor"/>
  <path
    d="M53.5083 368.482C51.7117 368.999 51.5438 371.479 53.2543 372.234L108.707 396.698C109.228 396.928 109.823 396.925 110.342 396.689L152.527 377.514C154.052 376.82 154.1 374.672 152.608 373.911L143.603 369.322C143.327 369.182 143.088 368.98 142.904 368.731L127.858 348.433C127.361 347.762 126.5 347.471 125.698 347.702L53.5083 368.482Z"
    fill="currentColor"/>
  <path
    d="M131.34 343.869C130.757 344.578 130.732 345.593 131.278 346.33L145.558 365.594C145.742 365.842 145.981 366.045 146.257 366.185L160.104 373.242C160.647 373.518 161.286 373.533 161.84 373.281L187.876 361.446C188.59 361.122 189.048 360.41 189.048 359.626V340.181C189.048 339.948 189.008 339.717 188.928 339.498L170.035 287.437C169.442 285.802 167.189 285.652 166.383 287.192L146.283 325.617C146.219 325.738 146.143 325.853 146.056 325.959L131.34 343.869Z"
    fill="currentColor"/>
  <path
    d="M168.113 261.359C168.45 263.437 171.355 263.652 171.994 261.646L173.619 256.538C173.688 256.32 173.72 256.092 173.712 255.863L172.258 213.419C172.179 211.096 168.869 210.755 168.317 213.012L163.58 232.379C163.517 232.639 163.506 232.909 163.549 233.174L168.113 261.359Z"
    fill="currentColor"/>
  <path
    d="M161.466 245.332C161.155 243.411 158.562 243.02 157.699 244.764L139.784 280.946C139.599 281.32 139.535 281.743 139.602 282.155L144.554 312.526C144.863 314.423 147.409 314.834 148.3 313.131L166.429 278.474C166.629 278.091 166.7 277.654 166.631 277.227L161.466 245.332Z"
    fill="currentColor"/>
  <path
    d="M141.817 324.818C142.182 324.373 142.338 323.794 142.246 323.226L136.875 290.287C136.598 288.587 134.444 288.009 133.353 289.343L104.311 324.853C104.212 324.974 104.1 325.083 103.975 325.178L60.5321 358.277C58.7717 359.618 60.1707 362.402 62.2974 361.789L126.064 343.434C126.453 343.322 126.799 343.095 127.056 342.782L141.817 324.818Z"
    fill="currentColor"/>
  <path
    d="M158.821 219.577C159.495 221.438 162.173 221.294 162.644 219.371L171.012 185.153C171.113 184.742 171.08 184.309 170.919 183.917L144.735 120.215C144.171 118.844 142.364 118.541 141.384 119.653L127.552 135.351C127.036 135.936 126.908 136.769 127.224 137.483L141.52 169.776L148.154 190.133L158.821 219.577Z"
    fill="currentColor"/>
  <path
    d="M128.515 128.208C127.393 129.482 125.295 128.867 125.037 127.19L114.129 56.1291C113.77 53.7893 117.055 52.8758 117.955 55.0653L141.343 111.963C141.632 112.667 141.497 113.475 140.994 114.046L128.515 128.208Z"
    fill="currentColor"/>
  <path
    d="M124.155 59.6273L160.834 128.44C160.93 128.622 160.999 128.817 161.036 129.019L164.349 147.003C164.784 149.366 161.446 150.348 160.532 148.126L124.155 59.6273Z"
    fill="currentColor"/>
  <path
    d="M20.974 280.958C19.3218 282.018 17.2904 280.311 18.0496 278.501L25.4881 260.764C25.63 260.426 25.8622 260.133 26.1594 259.918L33.9518 254.275C35.2002 253.371 36.959 254.159 37.1146 255.693L38.4106 268.47C38.4867 269.219 38.135 269.948 37.5008 270.355L20.974 280.958Z"
    fill="currentColor"/>
  <path
    d="M45.0427 268.992C44.2457 269.83 44.3239 271.168 45.213 271.908L59.5279 283.818C60.3416 284.495 61.5419 284.42 62.2659 283.648L115.995 226.354C116.694 225.609 116.719 224.456 116.052 223.682L102.079 207.449C101.215 206.445 99.6308 206.543 98.8974 207.646L89.0493 222.46C88.9877 222.552 88.9182 222.64 88.842 222.721L73.7554 238.792L73.7467 238.801L45.0427 268.992Z"
    fill="currentColor"/>
  <path
    d="M97.1007 203.124C97.5247 202.486 97.5473 201.662 97.1587 201.002L75.4367 164.101C74.2278 162.047 71.0854 163.45 71.807 165.721L86.7643 212.798C87.2726 214.397 89.4066 214.697 90.336 213.299L97.1007 203.124Z"
    fill="currentColor"/>
  <path
    d="M84.3189 221.695C84.8149 221.167 84.9863 220.411 84.7669 219.721L63.623 153.172C62.9544 151.068 59.8708 151.44 59.7215 153.643L57.2447 190.172C57.2279 190.419 57.2573 190.667 57.3312 190.903L69.2867 229.159C69.3436 229.341 69.4261 229.514 69.5318 229.672L71.1655 232.122C71.8801 233.193 73.4061 233.32 74.2875 232.381L84.3189 221.695Z"
    fill="currentColor"/>
  <path
    d="M68.6454 238.361C69.2894 237.684 69.3784 236.651 68.8598 235.873L68.0433 234.649C67.4425 233.748 66.2341 233.489 65.3168 234.065L41.5713 248.956C40.9267 249.36 40.5673 250.095 40.6441 250.852L41.7593 261.847C41.9319 263.548 44.0206 264.262 45.1986 263.023L68.6454 238.361Z"
    fill="currentColor"/>
</svg>
