<svg width="328" height="279" viewBox="0 0 328 279" fill="none" xmlns="http://www.w3.org/2000/svg">
  <path
    d="M54.9949 138.804C53.7151 138.973 52.6126 137.904 52.7429 136.619L56.231 102.237C56.2553 101.997 56.3226 101.764 56.4298 101.549L76.5177 61.1277C77.2397 59.6748 79.3 59.6409 80.0695 61.0691L116.122 127.988C116.785 129.22 116.011 130.736 114.623 130.919L54.9949 138.804Z"
    fill="currentColor"/>
  <path
    d="M123.032 127.002C122.081 127.931 120.505 127.691 119.874 126.52L83.855 59.662C83.0612 58.1886 84.3202 56.4501 85.9677 56.7446L174.289 72.5336C175.891 72.8199 176.499 74.7968 175.335 75.9334L123.032 127.002Z"
    fill="currentColor"/>
  <path
    d="M133.866 127.182C131.902 127.615 130.601 125.203 132.04 123.798L178.706 78.2316C179.811 77.153 181.669 77.6797 182.044 79.1775L190.409 112.637C190.682 113.73 189.999 114.833 188.898 115.075L133.866 127.182Z"
    fill="currentColor"/>
  <path
    d="M127.398 135.884C126.248 134.776 126.796 132.834 128.356 132.491L191.448 118.61C192.166 118.452 192.912 118.7 193.392 119.256L303.946 247.295C305.181 248.725 303.928 250.911 302.07 250.569L233.869 238.012C233.483 237.941 233.126 237.758 232.843 237.486L127.398 135.884Z"
    fill="currentColor"/>
  <path
    d="M232.045 242.225C232.456 241.99 232.936 241.908 233.402 241.994L301.13 254.463C302.999 254.808 303.38 257.32 301.696 258.202L300.698 258.725C300.386 258.888 300.038 258.966 299.687 258.952L216.304 255.498C214.299 255.415 213.652 252.761 215.392 251.764L232.045 242.225Z"
    fill="currentColor"/>
  <path
    d="M179.873 257.889C180.258 257.18 181.031 256.772 181.833 256.853L193.585 258.043C195.278 258.215 195.997 260.289 194.772 261.472L178.095 277.574C177.394 278.251 176.308 278.324 175.523 277.748L172.332 275.408C171.525 274.816 171.279 273.72 171.757 272.841L179.873 257.889Z"
    fill="currentColor"/>
  <path
    d="M157.351 236.261L170.81 249.151C172.112 250.398 171.229 252.595 169.426 252.595H133.142C132.761 252.595 132.388 252.486 132.067 252.281L100.209 231.958C99.9143 231.77 99.6744 231.509 99.5125 231.2L54.6706 145.593C54.0257 144.361 54.8022 142.864 56.18 142.682L117.73 134.543C118.655 134.421 119.542 134.955 119.867 135.83L156.859 235.512C156.965 235.796 157.133 236.052 157.351 236.261Z"
    fill="currentColor"/>
  <path
    d="M124.246 271.899C123.018 271.398 122.608 269.863 123.423 268.817L132.351 257.366C132.73 256.879 133.312 256.595 133.929 256.595H143.964C145.948 256.595 146.721 259.171 145.066 260.264L127.107 272.124C126.556 272.488 125.861 272.557 125.25 272.308L124.246 271.899Z"
    fill="currentColor"/>
  <path
    d="M221.519 237.031C223.381 237.156 224.384 234.89 223.041 233.595L131.869 145.747C130.338 144.272 127.867 145.89 128.606 147.883L159.709 231.695C159.983 232.433 160.665 232.942 161.45 232.995L221.519 237.031Z"
    fill="currentColor"/>
  <path
    d="M180.957 252.744C180.513 252.699 180.097 252.507 179.775 252.199L168.072 240.99C166.723 239.698 167.725 237.425 169.59 237.551L218.99 240.87C220.965 241.003 221.568 243.617 219.85 244.601L202.484 254.549C202.122 254.756 201.704 254.845 201.288 254.803L180.957 252.744Z"
    fill="currentColor"/>
  <path
    d="M195.057 114.736C195.133 115.04 195.279 115.321 195.483 115.558L313.073 251.745C313.492 252.23 314.117 252.485 314.755 252.431L325.707 251.505C327.321 251.369 328.112 249.472 327.073 248.229L191.935 86.583C190.573 84.9535 187.945 86.2904 188.46 88.3508L195.057 114.736Z"
    fill="currentColor"/>
  <path
    d="M86.795 49.4045C85.3872 50.4492 85.9092 52.6708 87.6349 52.9793L169.053 67.5341C171.026 67.8868 172.233 65.4419 170.755 64.0895L125.497 22.6985C124.79 22.0521 123.725 21.9975 122.956 22.5683L86.795 49.4045Z"
    fill="currentColor"/>
  <path
    d="M88.5329 9.31568C88.7673 8.07776 90.0741 7.36232 91.2432 7.83182L117.034 18.1884C118.485 18.7711 118.736 20.7186 117.48 21.6504L85.1915 45.6133C83.7293 46.6984 81.6957 45.4242 82.0345 43.6352L88.5329 9.31568Z"
    fill="currentColor"/>
  <path
    d="M81.8036 7.82832C83.2324 7.42794 84.5844 8.66825 84.3083 10.1262L77.426 46.4733C77.1468 47.9477 75.4037 48.6009 74.2243 47.6731L41.9634 22.2945C40.6771 21.2826 41.0844 19.2384 42.6604 18.7968L81.8036 7.82832Z"
    fill="currentColor"/>
  <path
    d="M77.7551 1.23244C79.3442 2.08247 79.0867 4.43556 77.3514 4.92181L69.5199 7.11629C67.2155 7.76202 65.928 4.54968 68.0405 3.42506L74.0216 0.24082C74.6104 -0.0726311 75.3167 -0.0719324 75.9048 0.242683L77.7551 1.23244Z"
    fill="currentColor"/>
  <path
    d="M2.22077 55.3897C0.386689 55.3897 -0.480121 53.127 0.884531 51.9016L33.3699 22.7314C34.0932 22.0819 35.1787 22.0466 35.9427 22.6476L68.9327 48.5997C70.3607 49.7231 69.6719 52.0148 67.8612 52.1648L28.9269 55.3897H2.22077Z"
    fill="currentColor"/>
  <path
    d="M71.2616 55.8969C72.8139 55.7683 73.9109 57.3852 73.2177 58.7801L54.6993 96.0426C54.137 97.1742 52.6791 97.5071 51.6813 96.7319L17.6273 70.2745L5.45407 63.1136C3.6978 62.0805 4.43053 59.3897 6.46813 59.3897H29.0923L71.2616 55.8969Z"
    fill="currentColor"/>
</svg>
