<svg width="367" height="399" viewBox="0 0 367 399" fill="none" xmlns="http://www.w3.org/2000/svg">
  <path
    d="M201.205 5.21676C200.501 4.56969 199.438 4.51121 198.667 5.07719L186.308 14.1553C186.005 14.3782 185.77 14.6823 185.632 15.0325L180.226 28.7216C180.001 29.2905 180.049 29.9309 180.356 30.46L185.75 39.7554C185.926 40.0603 186.02 40.4066 186.02 40.7591V52.9992C186.02 53.5668 186.261 54.1077 186.683 54.487L190.751 58.1418C191.705 58.9988 193.208 58.7493 193.834 57.6301L200.024 46.559C200.347 45.9806 200.936 45.5999 201.596 45.5425L212.85 44.5645C213.05 44.5472 213.251 44.5599 213.446 44.6022L220.409 46.1082C220.777 46.1878 221.16 46.1619 221.513 46.0337L235.619 40.9205C236.876 40.4646 237.34 38.9265 236.545 37.851L228.863 27.4635C228.637 27.1586 228.503 26.7959 228.476 26.4177L227.813 17.1987L227.242 8.76135C227.207 8.23818 226.968 7.74984 226.576 7.40147L219.473 1.08821C218.846 0.530697 217.937 0.424021 217.198 0.821086L212.05 3.58585C211.964 3.6325 211.88 3.68551 211.801 3.74444L206.395 7.77566C205.624 8.35036 204.553 8.29531 203.846 7.6446L201.205 5.21676Z"
    fill="currentColor"/>
  <path
    d="M204.572 5.59542C203.882 4.96114 204.331 3.80998 205.268 3.80998C206.257 3.80998 206.676 5.07118 205.882 5.66281C205.486 5.95832 204.936 5.93002 204.572 5.59542Z"
    fill="currentColor"/>
  <path
    d="M193.871 61.6615C193.837 61.7231 193.811 61.7893 193.796 61.8582C193.657 62.4809 194.329 62.9686 194.878 62.6433L204.728 56.805C204.879 56.7154 205.041 56.6461 205.21 56.5989L216.698 53.3964C216.807 53.3661 216.918 53.3451 217.03 53.3335L222.913 52.7272C223.414 52.6756 223.916 52.8147 224.318 53.1167L230.578 57.8117C230.904 58.0559 231.296 58.195 231.703 58.2103L242.676 58.6235C242.998 58.6356 243.312 58.7252 243.591 58.8847L249.323 62.1533C249.598 62.3099 249.831 62.5292 250.005 62.7935L255.351 70.9414C256.26 72.327 258.363 72.0691 258.911 70.5049L259.588 68.5705C259.637 68.4288 259.671 68.282 259.688 68.1328L261.09 55.6319C261.156 55.0382 260.954 54.4458 260.538 54.0168L253.484 46.741C253.273 46.5229 253.015 46.3558 252.729 46.2524L240.422 41.8C239.982 41.6408 239.5 41.6409 239.06 41.8004L221.654 48.1102C221.3 48.2385 220.917 48.2643 220.549 48.1848L213.319 46.6208C213.123 46.5785 212.922 46.5658 212.723 46.5831L202.825 47.4433C202.165 47.5007 201.576 47.8813 201.252 48.4597L193.871 61.6615Z"
    fill="currentColor"/>
  <path
    d="M241.165 30.5357L240.298 34.0515C239.893 35.6957 237.755 36.1235 236.748 34.762L230.816 26.741C230.59 26.4361 230.456 26.0734 230.429 25.6952L229.808 17.0595L229.62 14.2825C229.502 12.5385 231.521 11.493 232.877 12.5957L242.437 20.368C243.034 20.8534 243.3 21.6383 243.12 22.3866L241.166 30.5297L241.165 30.5357Z"
    fill="currentColor"/>
  <path
    d="M255.262 77.5482C255.997 76.8877 256.14 75.7895 255.598 74.9633L248.596 64.2927C248.423 64.0284 248.189 63.809 247.915 63.6525L243.026 60.8648C242.747 60.7054 242.433 60.6157 242.111 60.6036L231.003 60.1854C230.596 60.17 230.204 60.031 229.878 59.7868L223.635 55.1044C223.303 54.8551 222.889 54.7403 222.476 54.7829C221.117 54.923 220.506 56.5589 221.441 57.5548L230.013 66.6831C230.179 66.86 230.376 67.0052 230.594 67.1116L242.34 72.8416C242.691 73.0129 242.985 73.2834 243.184 73.6196L247.656 81.1672C248.3 82.2528 249.775 82.4787 250.714 81.6353L255.262 77.5482Z"
    fill="currentColor"/>
  <path
    d="M240.925 74.3765C241.276 74.5478 241.57 74.8183 241.769 75.1545L247.382 84.6267C247.564 84.9354 247.661 85.2875 247.661 85.6463V90.3964C247.661 90.7702 247.766 91.1366 247.963 91.4539L249.851 94.4834C250.703 95.8514 249.67 97.6138 248.06 97.5387L223.323 96.384C221.922 96.3186 221.022 94.8693 221.584 93.5846L223.203 89.8826L224.538 85.4265C225.07 83.651 223.11 82.1696 221.547 83.1661L208.284 91.6235C207.708 91.9908 207.359 92.6267 207.359 93.3098V113.66C207.359 114.229 206.86 114.668 206.297 114.595C206.171 114.579 206.051 114.538 205.942 114.474L198.12 109.906C197.739 109.684 197.443 109.343 197.277 108.935L193.834 100.507C193.79 100.398 193.736 100.294 193.674 100.195L189.106 92.9614C188.473 91.9585 188.846 90.6281 189.909 90.1015L195.43 87.3662C196.441 86.865 196.838 85.6264 196.305 84.6309L193.748 79.8487L191.272 75.6201C191.016 75.1838 190.936 74.667 191.046 74.1737L192.642 67.0256C192.762 66.4871 193.1 66.0223 193.574 65.741L205.52 58.6605C205.671 58.5709 205.833 58.5016 206.002 58.4544L215.567 55.7879C216.284 55.588 217.053 55.8028 217.562 56.3454L228.806 68.3197C228.972 68.4966 229.169 68.6418 229.387 68.7482L240.925 74.3765Z"
    fill="currentColor"/>
  <path
    d="M257.798 107.995C257.85 107.542 257.747 107.085 257.504 106.699L253.708 100.663C253.36 100.109 252.762 99.7604 252.108 99.7298L220.325 98.2463C218.924 98.1809 218.024 96.7316 218.586 95.4468L221.322 89.1922C221.77 87.6967 220.119 86.4488 218.803 87.2882L210.284 92.7202C209.708 93.0875 209.359 93.7234 209.359 94.4065V113.229C209.359 114.235 210.107 115.084 211.105 115.212L212.553 115.398C212.998 115.456 213.45 115.361 213.835 115.13L225.819 107.949C226.392 107.606 227.099 107.571 227.702 107.857L233.632 110.661C233.998 110.833 234.302 111.113 234.506 111.463L237.312 116.285C237.616 116.808 238.14 117.164 238.738 117.256L248.664 118.777C249.034 118.833 249.413 118.785 249.757 118.637L255.858 116.013C256.516 115.73 256.972 115.117 257.054 114.406L257.798 107.995Z"
    fill="currentColor"/>
  <path
    d="M250.94 120.305C252.633 119.577 254.327 121.334 253.537 123L252.515 125.154C252.302 125.603 251.929 125.957 251.469 126.147L249.868 126.804C249.149 127.1 248.324 126.952 247.752 126.425L245.068 123.951C243.617 122.613 244.776 120.204 246.727 120.503L248.928 120.84C249.298 120.897 249.677 120.849 250.021 120.701L250.94 120.305Z"
    fill="currentColor"/>
  <path
    d="M251.491 130.45C251.604 129.436 250.589 128.671 249.644 129.059C249.354 129.178 249.115 129.396 248.968 129.673L245.858 135.551C245.546 136.141 245.549 136.847 245.865 137.434L246.845 139.254C247.775 140.981 250.377 140.477 250.593 138.527L251.491 130.45Z"
    fill="currentColor"/>
  <path
    d="M236.044 118.958C236.502 118.987 236.936 119.173 237.273 119.484L246.104 127.625C246.771 128.241 246.94 129.229 246.516 130.031L243.591 135.559C243.279 136.149 243.282 136.855 243.598 137.443L249.677 148.735L255.837 157.134C256.321 157.795 256.354 158.685 255.918 159.379L248.477 171.241C248.194 171.692 247.743 172.012 247.223 172.129L235.515 174.769C235.228 174.834 234.93 174.835 234.642 174.771L220.862 171.716C219.85 171.492 219.177 170.531 219.312 169.502L219.401 168.827C219.494 168.12 219.204 167.417 218.639 166.981L207.993 158.78C207.808 158.637 207.649 158.463 207.524 158.265L202.198 149.847C202.037 149.592 201.935 149.304 201.901 149.005L200.503 136.753C200.454 136.324 200.545 135.891 200.762 135.519L206.858 125.062C207.05 124.732 207.144 124.354 207.128 123.972L206.924 119.048C206.873 117.81 207.948 116.824 209.177 116.981L213.362 117.519L236.044 118.958Z"
    fill="currentColor"/>
  <path
    d="M218.817 174.722C218.192 173.958 217.103 173.764 216.253 174.265L208.947 178.571C208.337 178.93 207.963 179.586 207.963 180.294V199.91C207.963 200.118 207.995 200.325 208.059 200.524L208.337 201.386C208.802 202.826 210.635 203.249 211.683 202.158L215.879 197.79C216.616 197.022 216.623 195.812 215.895 195.036L212.765 191.699C212.059 190.947 212.041 189.781 212.724 189.007L220.827 179.829C221.476 179.095 221.497 177.998 220.876 177.239L218.817 174.722Z"
    fill="currentColor"/>
  <path
    d="M215.469 191.659C214.763 190.906 214.745 189.74 215.428 188.966L219.525 184.326C220.675 183.024 222.823 183.705 223.013 185.431L224.39 197.953C224.408 198.12 224.406 198.288 224.382 198.455L222.285 213.133C222.272 213.226 222.265 213.321 222.265 213.415V233.3C222.265 234.552 221.128 235.496 219.897 235.266L218.294 234.966C217.389 234.797 216.716 234.031 216.665 233.111L215.718 216.056C215.697 215.684 215.78 215.315 215.958 214.989L218.668 210.01C218.811 209.748 218.893 209.457 218.909 209.158L219.55 196.906C219.578 196.362 219.384 195.83 219.011 195.433L215.469 191.659Z"
    fill="currentColor"/>
  <path
    d="M223.2 238.341C222.906 238.012 222.511 237.79 222.078 237.709L219.803 237.283C218.442 237.028 217.241 238.199 217.46 239.566L218.467 245.841C218.578 246.532 219.043 247.115 219.692 247.378L222.854 248.657C224.169 249.188 225.604 248.221 225.604 246.803V241.792C225.604 241.3 225.423 240.825 225.094 240.458L223.2 238.341Z"
    fill="currentColor"/>
  <path
    d="M217.945 251.334C218.217 250.131 219.503 249.458 220.646 249.921L223.245 250.972C224.32 251.407 224.801 252.663 224.292 253.705L221.493 259.429C221.35 259.721 221.281 260.043 221.291 260.368L221.863 279.016C221.904 280.352 220.647 281.352 219.354 281.011L217.237 280.453C216.359 280.222 215.747 279.427 215.747 278.519V261.284C215.747 261.136 215.764 260.988 215.796 260.843L217.945 251.334Z"
    fill="currentColor"/>
  <path
    d="M222.055 285.271C222.028 284.386 221.422 283.624 220.566 283.399L219.708 283.173C218.192 282.773 216.826 284.195 217.286 285.694L218.552 289.814C218.653 290.144 218.667 290.493 218.594 290.83L217.147 297.425C216.993 298.126 217.227 298.856 217.76 299.337L218.924 300.389C220.21 301.551 222.265 300.638 222.265 298.905V292.105L222.055 285.271Z"
    fill="currentColor"/>
  <path
    d="M215.134 303.297C215.648 302 217.298 301.615 218.333 302.55L221.29 305.221C221.827 305.707 222.06 306.444 221.899 307.15L219.762 316.521C219.728 316.667 219.712 316.816 219.712 316.966V327.892C219.712 328.57 219.369 329.201 218.8 329.57L214.745 332.202C213.431 333.055 211.69 332.134 211.657 330.567L211.33 315.091C211.326 314.894 211.351 314.698 211.404 314.508L213.145 308.31L215.134 303.297Z"
    fill="currentColor"/>
  <path
    d="M219.712 335.045C219.712 333.459 217.953 332.504 216.623 333.368L212.562 336.004C212.038 336.343 211.703 336.908 211.656 337.531L211.059 345.449C211.02 345.97 210.585 346.374 210.062 346.374C209.48 346.374 209.021 345.879 209.065 345.298L209.596 338.252C209.666 337.331 209.096 336.483 208.218 336.198L203.831 334.778C202.828 334.453 201.744 334.963 201.356 335.944L197.309 346.147C197.255 346.284 197.123 346.374 196.976 346.374C196.955 346.374 196.934 346.376 196.913 346.379L171.404 350.922C169.438 351.272 169.142 353.969 170.985 354.737L183.643 360.011C183.852 360.098 184.075 360.149 184.301 360.162L248.851 363.741C249.074 363.753 249.297 363.728 249.511 363.667L274.636 356.485C276.686 355.9 276.519 352.942 274.417 352.59L237.478 346.401C237.368 346.383 237.258 346.374 237.147 346.374H219.626C218.908 346.374 218.685 345.402 219.331 345.089C219.564 344.976 219.712 344.739 219.712 344.48V335.045Z"
    fill="currentColor"/>
  <path
    d="M203.059 330.503C202.824 331.515 203.403 332.538 204.391 332.857L207.066 333.723C208.375 334.147 209.711 333.154 209.682 331.778L209.324 314.836C209.32 314.64 209.345 314.443 209.398 314.253L211.248 307.669L214.778 298.769C214.818 298.669 214.85 298.565 214.873 298.46L216.527 290.915C216.601 290.578 216.587 290.228 216.486 289.899L213.934 281.589C213.871 281.384 213.775 281.19 213.651 281.015L211.611 278.153C210.653 276.807 208.569 277.138 208.074 278.714L202.639 296.019C202.542 296.329 202.522 296.658 202.58 296.978L206.141 316.47C206.19 316.739 206.184 317.015 206.122 317.281L203.059 330.503Z"
    fill="currentColor"/>
  <path
    d="M213.747 272.059C213.747 273.816 211.491 274.538 210.471 273.106C210.172 272.687 210.067 272.159 210.181 271.657L212.415 261.862C212.468 261.632 212.479 261.395 212.449 261.162L210.121 243.072C210.036 242.417 210.281 241.762 210.775 241.322L212.373 239.901C213.553 238.851 215.427 239.519 215.677 241.078L216.669 247.257C216.709 247.509 216.701 247.766 216.645 248.015L213.796 260.62C213.764 260.765 213.747 260.913 213.747 261.061V272.059Z"
    fill="currentColor"/>
  <path
    d="M214.719 234.126C214.752 234.735 214.507 235.326 214.051 235.731L213.838 235.92C212.492 237.118 210.372 236.064 210.515 234.268L211.292 224.501C211.301 224.398 211.301 224.293 211.293 224.189L210.027 207.733C209.983 207.165 210.184 206.605 210.579 206.194L213.714 202.93C214.997 201.594 217.251 202.57 217.154 204.42L216.935 208.601C216.919 208.899 216.837 209.19 216.694 209.452L213.93 214.532C213.752 214.858 213.669 215.228 213.689 215.599L214.719 234.126Z"
    fill="currentColor"/>
  <path
    d="M191.769 160.46C192.271 160.553 192.719 160.834 193.021 161.245L204.687 177.166C205.255 177.941 205.191 179.011 204.535 179.713L202.729 181.645C202.309 182.095 202.119 182.713 202.215 183.321L203.044 188.61C203.113 189.05 203.033 189.501 202.817 189.891L200.776 193.564C200.449 194.154 199.847 194.538 199.175 194.588L188.035 195.41C187.653 195.438 187.287 195.575 186.981 195.804L182.443 199.21C181.748 199.732 180.795 199.745 180.085 199.241L174.595 195.345C174.176 195.048 173.888 194.601 173.79 194.096L172.079 185.316C172.005 184.933 171.82 184.581 171.547 184.301L161.864 174.385C161.383 173.893 161.189 173.188 161.35 172.519L162.424 168.057C162.54 167.578 162.828 167.159 163.233 166.879L169.682 162.432C169.827 162.332 169.985 162.251 170.152 162.192L180.274 158.619C180.604 158.503 180.958 158.475 181.301 158.538L191.769 160.46Z"
    fill="currentColor"/>
  <path
    d="M161.14 155.689C161.328 156.139 161.674 156.504 162.112 156.717L168.752 159.936C169.233 160.169 169.787 160.2 170.291 160.022L180.111 156.556C180.441 156.439 180.795 156.411 181.138 156.474L190.36 158.168C191.445 158.367 192.486 157.651 192.688 156.567L193.542 151.981C193.67 151.292 193.428 150.586 192.904 150.12L190.117 147.643C189.661 147.238 189.045 147.063 188.444 147.168L178.023 148.987C177.843 149.019 177.66 149.025 177.478 149.007L167.339 147.981C166.854 147.932 166.403 147.707 166.072 147.348L162.728 143.729C161.493 142.392 159.259 143.265 159.259 145.086V150.794C159.259 151.06 159.312 151.322 159.414 151.567L161.14 155.689Z"
    fill="currentColor"/>
  <path
    d="M168.295 146.067C167.809 146.018 167.358 145.793 167.027 145.435L159.203 136.966C159.11 136.865 159.028 136.755 158.957 136.637L154.46 129.142C153.949 128.29 154.14 127.192 154.91 126.564L161.605 121.095C161.929 120.83 162.329 120.673 162.747 120.647L176.656 119.786C176.882 119.772 177.105 119.719 177.314 119.63L184.679 116.503C185.536 116.139 186.531 116.414 187.078 117.167L190.698 122.145L197.454 134.421C197.877 135.189 197.75 136.143 197.142 136.774L189.659 144.535C189.364 144.84 188.981 145.044 188.563 145.117L177.95 146.97C177.77 147.001 177.587 147.008 177.405 146.989L168.295 146.067Z"
    fill="currentColor"/>
  <path
    d="M190.389 117.492C190.146 117.383 189.915 117.668 190.072 117.884C190.221 118.088 190.544 117.983 190.544 117.73C190.544 117.628 190.483 117.534 190.389 117.492Z"
    fill="currentColor"/>
  <path
    d="M192.791 121.801C192.629 121.505 192.544 121.174 192.544 120.837V119.36C192.544 118.411 193.211 117.592 194.142 117.401L198.157 116.578C198.289 116.55 198.424 116.537 198.559 116.537H202.9C203.972 116.537 204.854 117.383 204.898 118.454L205.106 123.47C205.122 123.852 205.028 124.23 204.835 124.56L201.199 130.798C200.416 132.14 198.468 132.116 197.719 130.755L192.791 121.801Z"
    fill="currentColor"/>
  <path
    d="M198.864 114.037C198.949 114.333 199.22 114.537 199.528 114.537C200.234 114.537 200.486 113.604 199.877 113.248C199.338 112.934 198.691 113.437 198.864 114.037Z"
    fill="currentColor"/>
  <path
    d="M196.142 114.949C196.602 114.855 196.884 114.389 196.754 113.938C196.572 113.306 195.75 113.146 195.345 113.665C194.885 114.255 195.409 115.1 196.142 114.949Z"
    fill="currentColor"/>
  <path
    d="M199.124 142.314C198.933 140.634 196.871 139.935 195.697 141.153L192.587 144.378C191.799 145.196 191.849 146.507 192.698 147.261L195.077 149.376C195.601 149.842 195.843 150.548 195.715 151.237L194.344 158.6C194.243 159.142 194.37 159.703 194.697 160.148L206.165 175.799C206.772 176.628 207.908 176.862 208.793 176.34L216.194 171.979C216.724 171.666 217.081 171.127 217.161 170.517L217.268 169.708C217.361 169.001 217.071 168.298 216.506 167.863L206.492 160.149C206.307 160.006 206.148 159.831 206.023 159.634L200.263 150.529C200.101 150.275 200 149.986 199.966 149.687L199.124 142.314Z"
    fill="currentColor"/>
  <path
    d="M232.216 112.203C232.581 112.376 232.886 112.656 233.089 113.005L233.477 113.671C234.282 115.054 233.218 116.775 231.622 116.673L223.144 116.135C221.185 116.011 220.559 113.433 222.243 112.424L225.931 110.214C226.504 109.871 227.21 109.836 227.814 110.122L232.216 112.203Z"
    fill="currentColor"/>
  <path
    d="M187.22 93.7209C186.705 92.9051 185.59 92.7291 184.848 93.3466C184.405 93.7158 184.195 94.2954 184.3 94.8627L184.79 97.5245C185.006 98.6965 184.155 99.796 182.967 99.8817L177.743 100.258C177.179 100.299 176.658 100.576 176.31 101.022L173.209 104.995C172.58 105.8 172.66 106.951 173.394 107.662L173.463 107.729C174.177 108.421 175.292 108.483 176.079 107.874L177.926 106.443C178.219 106.217 178.568 106.076 178.936 106.036L187.288 105.133C187.809 105.077 188.287 104.819 188.619 104.414L190.728 101.843C191.275 101.177 191.333 100.235 190.873 99.5063L187.22 93.7209Z"
    fill="currentColor"/>
  <path
    d="M172.028 103.257C171.296 104.195 169.914 104.29 169.06 103.463L167.967 102.405C167.485 101.938 167.269 101.26 167.393 100.601L169.153 91.1796C169.242 90.7025 169.501 90.2741 169.883 89.9742L177.73 83.8093C177.986 83.6081 178.287 83.4725 178.608 83.4142L182.169 82.7667C183.276 82.5655 184.331 83.3165 184.503 84.4282L185.236 89.1577C185.343 89.8517 185.079 90.5512 184.54 91.0007L182.851 92.4075C182.295 92.87 182.033 93.5959 182.164 94.3066L182.419 95.6902C182.634 96.8622 181.784 97.9617 180.595 98.0473L176.713 98.327C176.149 98.3676 175.628 98.6452 175.28 99.0911L172.028 103.257Z"
    fill="currentColor"/>
  <path
    d="M186.608 80.8246C186.268 81.26 186.122 81.8171 186.207 82.3635L186.845 86.4825C187.052 87.8187 188.498 88.5686 189.71 87.9683L192.693 86.4901C193.705 85.9889 194.101 84.7503 193.569 83.7548L192.002 80.826L191.18 79.4223C190.467 78.2038 188.75 78.0883 187.879 79.2003L186.608 80.8246Z"
    fill="currentColor"/>
  <path
    d="M83.3402 112.592C83.4769 112.242 83.7094 111.938 84.011 111.714L91.9401 105.829C92.7139 105.255 93.7873 105.314 94.4933 105.97L95.6314 107.027C96.3413 107.686 97.422 107.742 98.196 107.159L101.762 104.473C101.841 104.413 101.924 104.359 102.011 104.312L105.032 102.673C105.775 102.269 106.692 102.377 107.322 102.943L111.609 106.793C111.997 107.142 112.233 107.628 112.268 108.148L112.648 113.822L112.648 113.826L113.111 120.323C113.137 120.699 113.269 121.059 113.492 121.362L118.202 127.798C118.988 128.872 118.526 130.4 117.276 130.857L108.636 134.022C108.279 134.153 107.892 134.179 107.521 134.098L102.905 133.089C102.708 133.046 102.505 133.033 102.303 133.051L94.5593 133.731C93.8967 133.789 93.3063 134.173 92.9843 134.755L89.2298 141.54C88.6051 142.669 87.0909 142.919 86.1356 142.052L84.3785 140.457C83.9608 140.078 83.7227 139.54 83.7227 138.976V130.692C83.7227 130.342 83.6311 129.999 83.4571 129.696L79.8871 123.479C79.5853 122.953 79.538 122.319 79.7587 121.755L83.3402 112.592Z"
    fill="currentColor"/>
  <path
    d="M97.2894 105.338C97.6297 105.082 97.4484 104.54 97.0223 104.54C96.619 104.54 96.4248 105.034 96.7203 105.309C96.8778 105.455 97.1177 105.467 97.2894 105.338Z"
    fill="currentColor"/>
  <path
    d="M89.5494 145.976C89.3769 146.079 89.1643 145.926 89.2077 145.73C89.2125 145.708 89.2203 145.688 89.231 145.668L94.2191 136.654C94.5411 136.072 95.1315 135.688 95.7941 135.63L102.174 135.07C102.376 135.052 102.579 135.065 102.776 135.108L107.662 136.176C108.034 136.257 108.42 136.231 108.777 136.1L120.677 131.741C121.121 131.579 121.608 131.579 122.052 131.741L130.239 134.734C130.526 134.839 130.785 135.008 130.996 135.228L135.56 139.984C135.97 140.412 136.17 141 136.104 141.59L135.166 150.047C135.151 150.18 135.121 150.31 135.078 150.437C134.588 151.849 132.689 152.08 131.874 150.827L128.898 146.244C128.726 145.979 128.493 145.758 128.219 145.6L124.297 143.34C124.015 143.178 123.699 143.087 123.374 143.074L115.983 142.793C115.573 142.777 115.178 142.636 114.851 142.388L110.748 139.279C110.343 138.972 109.837 138.831 109.332 138.884L105.321 139.301C105.208 139.313 105.096 139.335 104.986 139.365L96.9372 141.633C96.7668 141.681 96.6036 141.751 96.4518 141.842L89.5494 145.976Z"
    fill="currentColor"/>
  <path
    d="M118.364 124.633C119.368 126.005 121.518 125.577 121.921 123.925L122.084 123.258L122.085 123.252L123.343 117.955C123.52 117.212 123.257 116.433 122.667 115.948L117.883 112.018C116.54 110.914 114.527 111.949 114.643 113.684L114.644 113.688L115.065 119.607C115.091 119.982 115.223 120.342 115.446 120.646L118.364 124.633Z"
    fill="currentColor"/>
  <path
    d="M126.804 147.093C127.078 147.251 127.311 147.471 127.483 147.737L131.922 154.573C132.456 155.395 132.315 156.484 131.589 157.143L129.727 158.834C128.786 159.688 127.299 159.46 126.657 158.365L124.095 153.996C123.897 153.658 123.605 153.387 123.254 153.214L115.184 149.236C114.965 149.128 114.768 148.982 114.603 148.803L108.639 142.386C108.144 141.853 108.47 140.984 109.193 140.909C109.416 140.886 109.639 140.948 109.817 141.083L114.145 144.363C114.472 144.611 114.867 144.752 115.277 144.768L122.804 145.054C123.129 145.066 123.445 145.158 123.727 145.32L126.804 147.093Z"
    fill="currentColor"/>
  <path
    d="M126.663 162.873C126.663 162.517 126.568 162.168 126.389 161.861L122.673 155.525C122.475 155.187 122.183 154.915 121.832 154.743L113.969 150.867C113.751 150.76 113.554 150.613 113.388 150.435L105.855 142.328C105.344 141.778 104.569 141.561 103.847 141.764L97.7361 143.486C97.5657 143.534 97.4025 143.604 97.2507 143.695L89.2384 148.493C88.7665 148.776 88.4319 149.241 88.3132 149.778L87.3359 154.2C87.2278 154.689 87.3072 155.201 87.5583 155.634L89.1446 158.372L90.8183 161.534C91.3433 162.526 90.9495 163.755 89.946 164.258L87.1531 165.656C86.0988 166.184 85.7276 167.504 86.3524 168.504L89.0715 172.855C89.1331 172.954 89.186 173.058 89.2296 173.165L91.5423 178.887C91.7071 179.294 92.0016 179.636 92.3802 179.86L97.6481 182.968C97.691 182.993 97.7386 183.01 97.788 183.016C98.0086 183.045 98.204 182.873 98.204 182.651V168.267C98.204 167.587 98.5494 166.953 99.1208 166.585L107.689 161.065C109.249 160.06 111.217 161.536 110.69 163.315L109.964 165.763L109.304 167.287C108.748 168.57 109.648 170.013 111.045 170.079L125.605 170.766C127.211 170.842 128.245 169.087 127.402 167.719L126.961 167.004C126.766 166.688 126.663 166.325 126.663 165.954V162.873Z"
    fill="currentColor"/>
  <path
    d="M129.616 172.957C130.272 172.988 130.872 173.34 131.219 173.898L133.501 177.564C133.74 177.948 133.841 178.401 133.79 178.849L133.354 182.644C133.273 183.353 132.82 183.966 132.165 184.25L128.556 185.818C128.21 185.969 127.827 186.018 127.453 185.961L121.124 184.981C120.524 184.888 119.999 184.528 119.696 184.003L117.969 181.002C117.767 180.652 117.463 180.37 117.098 180.196L113.139 178.304C112.531 178.014 111.817 178.049 111.241 178.398L103.171 183.284C102.792 183.514 102.346 183.607 101.907 183.551C100.933 183.424 100.204 182.595 100.204 181.612V169.357C100.204 168.677 100.549 168.044 101.121 167.676L106.727 164.064C107.43 163.611 108.318 164.276 108.081 165.079L106.318 169.148C105.763 170.432 106.662 171.875 108.06 171.941L129.616 172.957Z"
    fill="currentColor"/>
  <path
    d="M129.325 191.364C129.715 191.202 130.031 190.9 130.21 190.518L130.521 189.856C131.077 188.671 129.87 187.428 128.669 187.95C128.422 188.057 128.151 188.092 127.885 188.051L127.827 188.042C126.248 187.798 125.303 189.744 126.473 190.833L126.898 191.229C127.415 191.711 128.165 191.846 128.817 191.575L129.325 191.364Z"
    fill="currentColor"/>
  <path
    d="M128.144 194.184C128.215 194.049 128.331 193.943 128.472 193.884C128.931 193.693 129.426 194.065 129.372 194.559L128.875 199.083C128.712 200.562 126.737 200.941 126.038 199.629C125.803 199.188 125.801 198.66 126.033 198.217L128.144 194.184Z"
    fill="currentColor"/>
  <path
    d="M125.589 194.753C126.006 193.955 125.839 192.976 125.18 192.362L119.651 187.211C119.313 186.896 118.876 186.708 118.415 186.678L102.708 185.671L100.782 185.421C99.5524 185.262 98.4755 186.248 98.5263 187.487L98.6251 189.898C98.6406 190.276 98.5484 190.651 98.3592 190.979L94.2342 198.129C94.0206 198.499 93.9312 198.928 93.9792 199.353L94.914 207.63C94.9476 207.927 95.0475 208.213 95.2063 208.467L98.7839 214.181C98.9081 214.379 99.066 214.554 99.2505 214.697L106.655 220.461C107.129 220.83 107.372 221.422 107.295 222.018C107.181 222.887 107.75 223.699 108.605 223.891L117.631 225.913C117.921 225.978 118.222 225.977 118.512 225.911L126.22 224.155C126.741 224.036 127.193 223.714 127.475 223.26L132.238 215.587C132.666 214.897 132.635 214.015 132.157 213.358L128.13 207.808L123.897 199.865C123.586 199.282 123.584 198.582 123.89 197.997L125.589 194.753Z"
    fill="currentColor"/>
  <path
    d="M99.2178 230.659C99.2178 229.954 99.5889 229.301 100.195 228.941L104.265 226.517C105.119 226.008 106.217 226.204 106.842 226.977L107.364 227.622C107.976 228.377 107.956 229.464 107.316 230.196L102.23 236.017C101.556 236.788 101.574 237.943 102.271 238.694L103.766 240.304C104.485 241.078 104.478 242.277 103.75 243.043L101.757 245.139C100.986 245.95 99.6279 245.638 99.2876 244.572C99.2413 244.428 99.2178 244.277 99.2178 244.125V230.659Z"
    fill="currentColor"/>
  <path
    d="M109.476 235.862C109.287 234.13 107.128 233.451 105.982 234.763L104.922 235.976C104.248 236.747 104.265 237.903 104.962 238.653L106.862 240.699C107.23 241.095 107.422 241.623 107.394 242.163L106.95 250.724C106.935 251.019 106.854 251.308 106.714 251.569L104.943 254.856C104.768 255.18 104.687 255.546 104.707 255.914L105.339 267.415C105.382 268.194 105.951 268.844 106.718 268.989C107.763 269.186 108.73 268.385 108.73 267.322V253.689L110.213 243.2C110.236 243.035 110.239 242.868 110.221 242.703L109.476 235.862Z"
    fill="currentColor"/>
  <path
    d="M106.113 273.632C105.896 272.265 107.1 271.096 108.46 271.353L108.536 271.368C108.971 271.45 109.367 271.675 109.661 272.007L110.585 273.05C110.909 273.416 111.088 273.888 111.088 274.376V276.34C111.088 277.761 109.647 278.729 108.331 278.191L107.775 277.964C107.128 277.7 106.666 277.117 106.557 276.426L106.113 273.632Z"
    fill="currentColor"/>
  <path
    d="M109.796 283.246C110.299 282.208 109.816 280.959 108.748 280.522C107.602 280.054 106.305 280.727 106.035 281.935L104.763 287.621C104.731 287.764 104.715 287.91 104.715 288.057V299.72C104.715 300.559 105.279 301.293 106.09 301.509C107.288 301.828 108.454 300.903 108.417 299.664L108.044 287.388C108.034 287.066 108.103 286.747 108.243 286.457L109.796 283.246Z"
    fill="currentColor"/>
  <path
    d="M105.909 305.694C105.598 304.667 106.534 303.697 107.571 303.973C108.155 304.129 108.568 304.65 108.587 305.254L108.73 309.971V313.932C108.73 315.246 107.169 315.935 106.199 315.049C105.801 314.686 105.626 314.138 105.741 313.612L106.703 309.176C106.775 308.843 106.761 308.497 106.662 308.17L105.909 305.694Z"
    fill="currentColor"/>
  <path
    d="M108.37 321.107C108.529 320.406 108.299 319.674 107.768 319.189L107.004 318.491C105.968 317.546 104.306 317.932 103.794 319.238L102.863 321.607L101.671 325.897C101.619 326.085 101.594 326.279 101.598 326.474L101.793 335.818C101.826 337.39 103.576 338.311 104.89 337.449L106.024 336.705C106.587 336.336 106.927 335.707 106.927 335.033V327.725C106.927 327.577 106.943 327.43 106.976 327.285L108.37 321.107Z"
    fill="currentColor"/>
  <path
    d="M101.794 342.806C101.84 342.186 102.172 341.623 102.692 341.282L103.83 340.536C105.16 339.663 106.927 340.618 106.927 342.208V344.364C106.927 345.375 107.681 346.227 108.685 346.349L142.836 350.505C145.085 350.779 145.217 353.992 142.997 354.45L109.545 361.339C109.206 361.408 108.856 361.389 108.528 361.283L88.1697 354.722L74.9804 351.775C72.7732 351.281 72.9524 348.078 75.2009 347.834L91.5261 346.063C92.266 345.982 92.9001 345.498 93.172 344.805L94.2307 342.108C94.6179 341.121 95.7071 340.608 96.7142 340.937L98.442 341.503C99.2698 341.773 99.8059 342.574 99.7411 343.443L99.6777 344.292C99.638 344.825 100.024 345.295 100.554 345.359C101.121 345.428 101.63 345.01 101.672 344.441L101.794 342.806Z"
    fill="currentColor"/>
  <path
    d="M99.8195 337.081C99.8479 338.443 98.5231 339.425 97.2287 339.001C96.257 338.684 95.688 337.677 95.9165 336.681L97.8984 328.037C97.9589 327.774 97.9652 327.501 97.9171 327.234L95.449 313.585C95.3918 313.268 95.4117 312.943 95.5072 312.635L98.7524 302.195C99.2447 300.61 101.341 300.28 102.297 301.636L102.619 302.093C102.742 302.267 102.836 302.46 102.898 302.664L104.597 308.254C104.697 308.581 104.711 308.927 104.638 309.26L103.53 314.365C103.508 314.469 103.477 314.572 103.438 314.671L100.964 320.972L99.665 325.644C99.6128 325.832 99.5883 326.027 99.5924 326.222L99.8195 337.081Z"
    fill="currentColor"/>
  <path
    d="M100.774 295.444C100.713 295.715 100.769 295.999 100.93 296.226C101.482 297.01 102.715 296.619 102.715 295.66V287.836C102.715 287.689 102.731 287.543 102.763 287.4L104.733 278.592C104.788 278.345 104.796 278.091 104.756 277.842L104.265 274.75C104.046 273.371 102.387 272.783 101.349 273.717C100.919 274.103 100.707 274.675 100.78 275.249L102.378 287.793C102.407 288.025 102.396 288.259 102.345 288.486L100.774 295.444Z"
    fill="currentColor"/>
  <path
    d="M101.031 268.559C100.947 269.628 102.211 270.252 103.009 269.536C103.276 269.295 103.42 268.946 103.401 268.587L102.679 255.462C102.659 255.094 102.74 254.727 102.915 254.403L104.74 251.016C104.88 250.755 104.961 250.467 104.976 250.171L104.999 249.739C105.095 247.885 102.831 246.912 101.552 248.258L101.248 248.577C100.858 248.987 100.66 249.543 100.703 250.107L101.567 261.454C101.575 261.557 101.575 261.66 101.567 261.763L101.031 268.559Z"
    fill="currentColor"/>
  <path
    d="M95.8132 230.081C96.4607 229.381 96.5238 228.321 95.9639 227.549L88.3387 217.034C88.0376 216.619 87.5887 216.336 87.0845 216.242L80.2811 214.979C79.9342 214.915 79.5765 214.944 79.2442 215.062L72.437 217.49C72.2697 217.55 72.1112 217.632 71.9655 217.733L67.7799 220.65C67.377 220.93 67.0915 221.349 66.9777 221.827L66.4013 224.246C66.2431 224.91 66.4344 225.609 66.9087 226.099L73.3637 232.779C73.6333 233.058 73.8159 233.409 73.8894 233.79L75.0171 239.639C75.114 240.142 75.3997 240.588 75.8155 240.886L78.8754 243.08C79.5881 243.591 80.5505 243.579 81.2493 243.049L83.8577 241.071C84.165 240.838 84.533 240.699 84.9175 240.67L92.2146 240.126C92.8892 240.076 93.4926 239.688 93.8185 239.095L94.8928 237.141C95.1056 236.754 95.1843 236.307 95.1166 235.871L94.5953 232.514C94.5017 231.91 94.6888 231.297 95.1033 230.849L95.8132 230.081Z"
    fill="currentColor"/>
  <path
    d="M72.5787 215.316C72.0708 215.497 71.5112 215.466 71.0269 215.229L66.9757 213.244C66.5384 213.03 66.1942 212.663 66.0079 212.213L64.9778 209.727C64.8773 209.485 64.8255 209.224 64.8255 208.962V207.311C64.8255 205.486 67.07 204.614 68.3016 205.962L69.0475 206.777C69.3788 207.14 69.8317 207.368 70.3202 207.418L77.3246 208.134C77.5083 208.153 77.6937 208.146 77.8755 208.114L84.762 206.899C85.3675 206.792 85.9884 206.97 86.4459 207.38L87.7353 208.539C88.2531 209.004 88.4919 209.704 88.3658 210.389L88.0058 212.342C87.8055 213.429 86.761 214.148 85.674 213.946L80.1164 212.915C79.7695 212.85 79.4118 212.879 79.0795 212.997L72.5787 215.316Z"
    fill="currentColor"/>
  <path
    d="M64.528 198.808C64.5977 198.926 64.6794 199.036 64.7716 199.136L70.0092 204.865C70.3405 205.228 70.7935 205.456 71.2819 205.506L77.2512 206.116C77.4349 206.135 77.6203 206.128 77.8021 206.096L84.8838 204.846C85.3037 204.772 85.6889 204.566 85.9833 204.258L90.64 199.378C91.2403 198.748 91.3653 197.804 90.9495 197.04L86.4813 188.837L84.3512 185.877C83.8035 185.116 82.8008 184.837 81.9393 185.207L77.4469 187.134C77.2364 187.225 77.0119 187.278 76.7833 187.293L67.304 187.886C66.883 187.912 66.4811 188.071 66.1558 188.34L62.213 191.594C61.4526 192.222 61.263 193.31 61.7664 194.158L64.528 198.808Z"
    fill="currentColor"/>
  <path
    d="M94.6824 193.35C93.9018 194.703 91.9408 194.679 91.1936 193.307L88.5732 188.496C88.4133 188.202 88.3296 187.874 88.3296 187.539V187.396C88.3296 186.448 88.9953 185.63 89.9237 185.438L91.9704 185.013C92.1039 184.986 92.2399 184.972 92.3762 184.972H94.5018C95.5745 184.972 96.4562 185.818 96.5001 186.89L96.6031 189.401C96.6186 189.779 96.5263 190.154 96.3371 190.482L94.6824 193.35Z"
    fill="currentColor"/>
  <path
    d="M90.5161 183.272C90.2604 183.325 90.0768 183.032 90.2363 182.825C90.3774 182.642 90.6663 182.698 90.7295 182.92C90.7743 183.077 90.6761 183.239 90.5161 183.272Z"
    fill="currentColor"/>
  <path
    d="M93.0797 182.595C93.2574 182.699 93.1831 182.972 92.9767 182.972C92.8862 182.972 92.8066 182.912 92.7818 182.825C92.7317 182.649 92.9221 182.502 93.0797 182.595Z"
    fill="currentColor"/>
  <path
    d="M92.6014 204.974C92.4109 203.288 90.3387 202.59 89.1671 203.818L88.8851 204.114C88.1062 204.93 88.1563 206.228 88.9956 206.982L89.9052 207.799C90.4231 208.264 90.6618 208.965 90.5357 209.65L89.6613 214.394C89.5621 214.933 89.6878 215.488 90.0091 215.931L97.4185 226.148C98.0259 226.986 99.1719 227.222 100.061 226.692L104.346 224.141C104.794 223.874 105.096 223.416 105.163 222.898C105.241 222.3 104.997 221.705 104.52 221.334L97.7431 216.058C97.5585 215.915 97.4006 215.74 97.2765 215.542L93.27 209.143C93.1112 208.89 93.0113 208.604 92.9777 208.306L92.6014 204.974Z"
    fill="currentColor"/>
  <path
    d="M115.844 181.814C116.099 181.935 116.311 182.132 116.452 182.376C117.008 183.341 116.265 184.536 115.153 184.465L112.261 184.28C110.351 184.157 109.736 181.647 111.373 180.656C111.937 180.315 112.635 180.28 113.229 180.564L115.844 181.814Z"
    fill="currentColor"/>
  <path
    d="M84.0289 168.56C83.7599 168.13 83.1722 168.037 82.7839 168.364C82.5548 168.557 82.4466 168.857 82.5003 169.152L82.793 170.758C83.0063 171.928 82.1571 173.025 80.9706 173.111L78.0042 173.327C77.4371 173.368 76.9144 173.649 76.5668 174.099L74.6247 176.612C74.2625 177.081 74.3086 177.747 74.7319 178.161C75.1504 178.571 75.8074 178.607 76.2686 178.247L77.4633 177.312C77.7567 177.083 78.1082 176.94 78.4784 176.899L83.9268 176.304C84.4503 176.247 84.9302 175.985 85.2622 175.577L86.1425 174.492C86.6813 173.829 86.7389 172.897 86.286 172.172L84.0289 168.56Z"
    fill="currentColor"/>
  <path
    d="M73.7684 174.449C73.12 175.289 71.8847 175.374 71.1268 174.632C70.7052 174.22 70.5166 173.624 70.6239 173.044L71.7494 166.957C71.8372 166.481 72.0941 166.054 72.4726 165.754L77.5869 161.694C77.8436 161.49 78.1466 161.352 78.469 161.293L79.8644 161.037C80.9735 160.833 82.0317 161.586 82.2027 162.701L82.513 164.724C82.6188 165.414 82.3577 166.108 81.824 166.558L81.0964 167.17C80.5655 167.617 80.3146 168.314 80.439 168.997C80.6454 170.128 79.8241 171.189 78.6766 171.273L76.9679 171.397C76.4008 171.438 75.878 171.719 75.5304 172.169L73.7684 174.449Z"
    fill="currentColor"/>
  <path
    d="M84.2718 159.128C83.9554 159.536 83.8206 160.057 83.8989 160.568L84.1208 162.014C84.3265 163.355 85.7797 164.107 86.993 163.499L87.2212 163.385C88.2248 162.883 88.6186 161.653 88.0935 160.661L87.3949 159.341C86.724 158.183 85.0912 158.07 84.2718 159.128Z"
    fill="currentColor"/>
  <path
    d="M122.296 85.5298C121.76 86.5465 120.479 86.9034 119.495 86.3103L113.65 82.7895C113.175 82.5032 112.84 82.0325 112.725 81.4897L112.116 78.604C111.902 77.5906 112.497 76.5813 113.487 76.2782L125.21 72.6905C126.911 72.1699 128.394 73.9621 127.565 75.5356L122.296 85.5298Z"
    fill="currentColor"/>
  <path
    d="M130.86 69.7879C130.673 69.9295 130.463 70.0371 130.238 70.1058L113.62 75.1917C112.497 75.5355 111.321 74.8419 111.078 73.6927L109.994 68.5612C109.84 67.8337 110.103 67.0811 110.676 66.607L129.718 50.847C130.367 50.3104 131.298 50.2881 131.972 50.7931C132.206 50.9687 132.394 51.1983 132.521 51.4622L137.82 62.5098C138.231 63.367 137.982 64.3953 137.224 64.9692L130.86 69.7879Z"
    fill="currentColor"/>
  <path
    d="M127.971 47.7923C129.006 48.5685 129.043 50.1082 128.046 50.933L109.622 66.1808C109.237 66.4996 108.746 66.6626 108.247 66.6375L89.1574 65.6791C87.0607 65.5738 86.5216 62.7219 88.4351 61.8585L96.8585 58.0582L125.071 46.8146C125.718 46.5565 126.454 46.6542 127.011 47.0725L127.971 47.7923Z"
    fill="currentColor"/>
  <path
    d="M94.8029 55.4479C95.4129 56.4738 94.9943 57.8022 93.9063 58.293L80.6659 64.2667C79.7245 64.6915 78.6145 64.3296 78.1044 63.4316L70.6782 50.3586C69.9617 49.0973 70.7842 47.5167 72.2284 47.3797L83.3091 46.3285C83.4363 46.3164 83.554 46.2561 83.6382 46.16L85.1823 44.3952C86.0778 43.3718 87.7115 43.5212 88.4065 44.6901L94.8029 55.4479Z"
    fill="currentColor"/>
  <path
    d="M63.6565 65.1594C62.1926 65.1594 61.2247 63.6385 61.8446 62.3125L66.7396 51.8413C67.4272 50.3704 69.4884 50.2886 70.2904 51.7004L76.2385 62.1716C76.9959 63.5049 76.0329 65.1594 74.4995 65.1594H63.6565Z"
    fill="currentColor"/>
  <path
    d="M63.3933 69.4138C62.3397 68.1053 63.2711 66.1594 64.9511 66.1594H78.026C78.4268 66.1594 78.8183 66.2798 79.1499 66.505L95.0077 77.2771C95.4336 77.5665 95.7315 78.009 95.8394 78.5125L97.2142 84.9281C97.4947 86.237 96.4351 87.4466 95.1006 87.3409L77.5115 85.9473C76.9631 85.9038 76.4568 85.6364 76.1118 85.2079L63.3933 69.4138Z"
    fill="currentColor"/>
  <path
    d="M100.427 87.6044C99.4842 87.6044 98.6692 86.9456 98.4716 86.0234L96.9346 78.8505C96.7743 78.1025 97.0547 77.3287 97.6568 76.8569L106.342 70.0533C107.508 69.1404 109.227 69.7659 109.533 71.2143L111.672 81.3431C111.821 82.0443 111.582 82.7711 111.048 83.2484L106.738 87.0962C106.372 87.4235 105.897 87.6044 105.406 87.6044H100.427Z"
    fill="currentColor"/>
  <path
    d="M86.4542 70.2579C84.7816 69.1218 85.6589 66.5047 87.6784 66.6061L102.48 67.3492C104.328 67.442 105.07 69.7798 103.613 70.9212L97.2466 75.908C96.5619 76.4444 95.609 76.4767 94.8895 75.988L86.4542 70.2579Z"
    fill="currentColor"/>
  <path
    d="M98.4611 56.343C97.5473 56.7072 96.5044 56.3527 96.0016 55.5072L90.3328 45.9731C89.453 44.4935 90.7292 42.6676 92.421 42.9853L110.19 46.3221C110.22 46.3278 110.251 46.3307 110.282 46.3307H113.163C115.367 46.3307 115.951 49.3728 113.904 50.1886L98.4611 56.343Z"
    fill="currentColor"/>
  <path
    d="M130.992 71.179C131.128 70.92 131.32 70.694 131.553 70.5172L134.863 68.011C136.258 66.9548 138.241 68.0724 138.06 69.8127L137.162 78.4302C137.093 79.1002 136.69 79.6901 136.092 79.9995L128.347 84.0036C126.608 84.9027 124.746 83.0262 125.659 81.2944L130.992 71.179Z"
    fill="currentColor"/>
  <path
    d="M36.9988 135.886C37.1143 136.43 37.4507 136.901 37.9275 137.186L41.3399 139.23C42.3226 139.818 43.5979 139.463 44.1345 138.451L46.8805 133.272C47.7141 131.7 46.2338 129.904 44.5314 130.422L38.1212 132.372C37.1281 132.674 36.5313 133.686 36.747 134.701L36.9988 135.886Z"
    fill="currentColor"/>
  <path
    d="M35.7039 129.792C35.9475 130.939 37.1208 131.631 38.2424 131.29L49.5715 127.843C49.7953 127.775 50.0053 127.668 50.1922 127.527L54.2958 124.438C55.0585 123.864 55.3091 122.831 54.8943 121.971L51.2712 114.462C51.1874 114.288 51.0628 114.137 50.9081 114.022C50.4658 113.692 49.8556 113.707 49.4296 114.057L35.8386 125.24C35.2622 125.714 34.9978 126.47 35.153 127.2L35.7039 129.792Z"
    fill="currentColor"/>
  <path
    d="M33.4071 125.271C33.9044 125.296 34.3931 125.134 34.7775 124.818L47.5603 114.3C48.4601 113.56 48.427 112.172 47.4928 111.475C46.9937 111.103 46.3374 111.016 45.7585 111.245L25.3894 119.316L21.8415 120.907C19.9236 121.768 20.461 124.625 22.5603 124.73L33.4071 125.271Z"
    fill="currentColor"/>
  <path
    d="M11.4506 122.493C11.9612 123.387 13.0666 123.747 14.0057 123.326L22.4245 119.55C23.517 119.06 23.937 117.726 23.3225 116.698L19.5201 110.341C18.8244 109.178 17.1977 109.028 16.3023 110.046L15.7801 110.639C15.696 110.735 15.5785 110.795 15.4517 110.807L8.40607 111.471C6.95926 111.608 6.13638 113.193 6.85734 114.454L11.4506 122.493Z"
    fill="currentColor"/>
  <path
    d="M6.45252 115.762C5.64915 114.356 3.59515 114.437 2.9061 115.903L0.340454 121.359C-0.283247 122.686 0.684599 124.21 2.15036 124.21H7.83367C9.36928 124.21 10.332 122.551 9.5702 121.218L6.45252 115.762Z"
    fill="currentColor"/>
  <path
    d="M12.4957 125.553C12.1651 125.33 11.7752 125.21 11.3763 125.21H3.45442C1.77177 125.21 0.841195 127.162 1.90028 128.469L10.1031 138.596C10.4483 139.023 10.9534 139.288 11.5002 139.331L23.1599 140.25C24.4951 140.355 25.5543 139.144 25.2721 137.835L24.5199 134.345C24.4112 133.841 24.1118 133.398 23.6842 133.109L12.4957 125.553Z"
    fill="currentColor"/>
  <path
    d="M26.3427 132.687C25.7369 133.159 25.4547 133.936 25.6165 134.686L26.5319 138.933C26.7304 139.854 27.5448 140.512 28.487 140.512H31.3293C31.8187 140.512 32.291 140.333 32.657 140.008L35.3159 137.647C35.8541 137.17 36.0941 136.44 35.9446 135.736L34.6894 129.83C34.3824 128.385 32.6694 127.76 31.5042 128.667L26.3427 132.687Z"
    fill="currentColor"/>
  <path
    d="M28.7328 129.558C30.1955 128.419 29.4553 126.075 27.6037 125.983L21.0668 125.656C19.0448 125.556 18.17 128.178 19.8478 129.311L23.5731 131.827C24.2905 132.312 25.2383 132.28 25.9213 131.748L28.7328 129.558Z"
    fill="currentColor"/>
  <path
    d="M23.549 108.653C21.8554 108.336 20.5812 110.167 21.4655 111.645L24.5333 116.775C25.0364 117.616 26.0751 117.969 26.9864 117.608L35.7772 114.125C37.539 113.426 37.0393 110.809 35.1442 110.809C35.1134 110.809 35.0827 110.806 35.0525 110.8L23.549 108.653Z"
    fill="currentColor"/>
  <path
    d="M55.141 129.263C55.3231 127.525 53.3452 126.406 51.949 127.457L50.8851 128.258C50.6509 128.434 50.4583 128.659 50.3209 128.918L47.5143 134.212C46.5971 135.941 48.4543 137.822 50.1955 136.927L53.6116 135.171C54.2119 134.863 54.6161 134.272 54.6865 133.601L55.141 129.263Z"
    fill="currentColor"/>
  <path
    d="M347.275 156.675C346.739 157.69 345.461 158.046 344.477 157.455L336.895 152.9C336.419 152.614 336.083 152.144 335.968 151.6L335.11 147.552C334.895 146.538 335.491 145.527 336.483 145.225L351.97 140.499C353.672 139.979 355.154 141.774 354.322 143.346L347.275 156.675Z"
    fill="currentColor"/>
  <path
    d="M357.626 137.6C357.439 137.741 357.228 137.849 357.004 137.917L336.61 144.14C335.488 144.483 334.313 143.79 334.07 142.642L332.612 135.76C332.457 135.031 332.721 134.277 333.295 133.803L356.377 114.756C357.088 114.168 358.109 114.144 358.848 114.696L359.07 114.863C359.327 115.055 359.535 115.307 359.674 115.597L366.183 129.127C366.596 129.986 366.346 131.016 365.586 131.59L357.626 137.6Z"
    fill="currentColor"/>
  <path
    d="M354.727 111.615C355.764 112.391 355.801 113.934 354.802 114.759L332.238 133.379C331.853 133.696 331.364 133.858 330.865 133.834L305.967 132.587C303.869 132.482 303.331 129.627 305.246 128.766L317.069 123.447L350.952 109.983C351.598 109.726 352.331 109.823 352.888 110.24L354.727 111.615Z"
    fill="currentColor"/>
  <path
    d="M315.008 120.833C315.62 121.86 315.201 123.191 314.111 123.681L297.444 131.179C296.504 131.602 295.396 131.241 294.886 130.345L285.459 113.799C284.74 112.537 285.563 110.954 287.009 110.818L300.948 109.499C301.075 109.487 301.192 109.427 301.277 109.331L303.555 106.734C304.451 105.714 306.081 105.863 306.776 107.029L315.008 120.833Z"
    fill="currentColor"/>
  <path
    d="M276.783 132.068C275.318 132.068 274.35 130.545 274.972 129.219L281.514 115.265C282.203 113.796 284.26 113.715 285.063 115.123L293.013 129.078C293.772 130.411 292.809 132.068 291.275 132.068H276.783Z"
    fill="currentColor"/>
  <path
    d="M276.526 136.324C275.47 135.016 276.401 133.068 278.082 133.068H294.809C295.209 133.068 295.6 133.187 295.931 133.412L315.113 146.404C315.54 146.693 315.839 147.136 315.947 147.64L317.758 156.066C318.039 157.375 316.98 158.586 315.645 158.48L293.831 156.757C293.283 156.714 292.778 156.447 292.433 156.02L276.526 136.324Z"
    fill="currentColor"/>
  <path
    d="M332.149 138.401C331.843 136.955 330.127 136.329 328.961 137.24L317.767 145.983C317.163 146.455 316.882 147.23 317.043 147.98L319.016 157.163C319.214 158.085 320.029 158.743 320.972 158.743H327.48C327.971 158.743 328.444 158.563 328.81 158.237L334.288 153.36C334.824 152.883 335.063 152.155 334.914 151.452L332.149 138.401Z"
    fill="currentColor"/>
  <path
    d="M325.08 134.545C326.93 134.638 327.671 136.979 326.211 138.119L317.351 145.039C316.667 145.573 315.717 145.605 314.998 145.119L303.259 137.167C301.584 136.033 302.46 133.413 304.481 133.514L325.08 134.545Z"
    fill="currentColor"/>
  <path
    d="M318.669 121.735C317.756 122.098 316.716 121.744 316.213 120.901L308.712 108.323C307.83 106.844 309.105 105.016 310.798 105.333L333.015 109.493C333.045 109.499 333.076 109.501 333.107 109.501H339.006C341.211 109.501 341.794 112.546 339.745 113.36L318.669 121.735Z"
    fill="currentColor"/>
  <path
    d="M357.756 138.991C357.893 138.732 358.085 138.507 358.319 138.33L363.232 134.621C364.628 133.567 366.608 134.685 366.426 136.425L365.216 148.007C365.146 148.677 364.743 149.267 364.144 149.576L353.331 155.15C351.591 156.047 349.732 154.169 350.647 152.438L357.756 138.991Z"
    fill="currentColor"/>
  <path
    d="M70.8767 352.907C68.7596 352.434 67.5422 355.152 69.3229 356.391C75.8908 360.961 82.3226 365.153 88.6443 368.97C88.9388 369.148 89.274 369.246 89.6179 369.256L223.817 373.069C224.01 373.074 224.203 373.052 224.389 373.002L238.401 369.267C238.521 369.235 238.646 369.225 238.769 369.239L272.32 372.987C272.71 373.03 273.104 372.959 273.454 372.779C280.797 369.001 288.322 364.811 296.062 360.211C297.609 359.291 297.23 356.964 295.473 356.57L288.205 354.941C287.879 354.868 287.539 354.877 287.218 354.969L249.575 365.729C249.468 365.76 249.356 365.772 249.245 365.766L183.677 362.13C183.564 362.124 183.453 362.098 183.348 362.055L161.635 353.008C161.264 352.853 160.856 352.814 160.462 352.895L109.174 363.457C109.005 363.492 108.83 363.482 108.666 363.429L87.6437 356.654L70.8767 352.907Z"
    fill="currentColor"/>
  <path
    d="M263.571 377.665C265.372 376.812 264.91 374.172 262.93 373.95L239.108 371.289C238.861 371.262 238.611 371.28 238.371 371.344L224.482 375.047C224.389 375.072 224.293 375.083 224.196 375.081L100.481 371.565C98.4094 371.506 97.6554 374.207 99.4741 375.2C127.216 390.344 153.045 398.023 179.282 398.504C206.046 398.995 233.32 391.997 263.571 377.665Z"
    fill="currentColor"/>
</svg>
