<svg width="393" height="393" viewBox="0 0 393 393" fill="none" xmlns="http://www.w3.org/2000/svg">
  <path
    d="M134.443 363.905C134.376 363.84 134.349 363.743 134.377 363.655L150.345 312.401C150.82 310.878 152.798 310.496 153.806 311.733L177.939 341.362C178.765 342.375 178.412 343.895 177.224 344.442L134.786 363.969C134.67 364.022 134.534 363.994 134.443 363.905Z"
    fill="currentColor"/>
  <path fill-rule="evenodd" clip-rule="evenodd"
        d="M196.167 392.714C304.359 392.714 392.066 305.008 392.066 196.816C392.066 88.6246 304.359 0.917969 196.167 0.917969C87.9757 0.917969 0.269043 88.6246 0.269043 196.816C0.269043 305.008 87.9757 392.714 196.167 392.714ZM178.457 11.2499C180.182 11.2499 181.581 9.85084 181.581 8.12496C181.581 6.39909 180.182 5 178.457 5C176.731 5 175.332 6.39909 175.332 8.12496C175.332 9.85084 176.731 11.2499 178.457 11.2499ZM160.285 33.1113C160.285 34.8372 158.885 36.2363 157.16 36.2363C155.434 36.2363 154.035 34.8372 154.035 33.1113C154.035 31.3854 155.434 29.9863 157.16 29.9863C158.885 29.9863 160.285 31.3854 160.285 33.1113ZM125.51 39.3613C127.236 39.3613 128.635 37.9622 128.635 36.2363C128.635 34.5104 127.236 33.1113 125.51 33.1113C123.784 33.1113 122.385 34.5104 122.385 36.2363C122.385 37.9622 123.784 39.3613 125.51 39.3613ZM211.738 67.7523C211.422 67.4371 211.309 66.9808 211.342 66.5363C211.35 66.4295 211.354 66.3216 211.354 66.2128C211.354 63.8241 209.417 61.8877 207.029 61.8877C205.511 61.8877 204.176 62.6694 203.404 63.8521C203.264 64.0674 203.032 64.2129 202.775 64.2129C202.393 64.2129 202.084 64.522 202.084 64.9032V67.5225C202.084 67.9038 202.393 68.2129 202.775 68.2129C203.032 68.2129 203.264 68.3584 203.404 68.5737C204.176 69.7563 205.511 70.5379 207.029 70.5379C207.335 70.5379 207.634 70.506 207.923 70.4453C208.331 70.3596 208.77 70.4414 209.065 70.7362C209.477 71.1484 210.145 71.1484 210.557 70.7362L211.738 69.5558C212.236 69.0577 212.236 68.2503 211.738 67.7523ZM181.504 67.287C181.504 69.6757 179.568 71.6121 177.179 71.6121C176.873 71.6121 176.575 71.5804 176.287 71.5199C176.284 71.5195 176.282 71.5208 176.282 71.523C176.281 71.5253 176.279 71.5267 176.276 71.526L174.076 70.926C173.162 70.6768 172.624 69.7338 172.873 68.8198C172.952 68.5309 172.946 68.2275 172.902 67.9314C172.87 67.7212 172.854 67.506 172.854 67.287C172.854 66.0908 173.34 65.008 174.124 64.225C174.126 64.2238 174.127 64.2222 174.127 64.2205L174.128 64.2176C174.129 64.2148 174.131 64.2129 174.134 64.2129C174.136 64.2129 174.137 64.2122 174.139 64.211C174.92 63.4387 175.994 62.9619 177.179 62.9619C178.29 62.9619 179.303 63.3806 180.069 64.0688C180.169 64.1587 180.297 64.2129 180.432 64.2129C180.714 64.2129 180.942 64.4416 180.942 64.7236V64.957C180.942 65.0858 180.977 65.2118 181.035 65.3267C181.335 65.9151 181.504 66.5813 181.504 67.287ZM250.74 68.9553C250.745 68.9299 250.756 68.9061 250.772 68.8858C251.351 68.1501 251.697 67.2218 251.697 66.2128C251.697 63.8241 249.76 61.8877 247.371 61.8877C244.983 61.8877 243.046 63.8241 243.046 66.2128C243.046 66.4639 242.966 66.7117 242.795 66.895L242.458 67.2549C241.71 68.0541 241.752 69.308 242.551 70.0556L243.231 70.6917C243.67 71.102 244.358 71.079 244.768 70.6404C245.104 70.281 245.637 70.2067 246.108 70.3503C246.507 70.4723 246.932 70.5379 247.371 70.5379C248.641 70.5379 249.783 69.9909 250.574 69.1197C250.591 69.1012 250.616 69.0926 250.641 69.0973C250.679 69.1046 250.717 69.0792 250.724 69.0406L250.74 68.9553ZM196.799 66.2129C196.799 67.3175 195.903 68.2129 194.799 68.2129H188.228C187.123 68.2129 186.228 67.3175 186.228 66.2129C186.228 65.1083 187.123 64.2129 188.228 64.2129H194.799C195.903 64.2129 196.799 65.1083 196.799 66.2129ZM265.821 69.944C265.615 71.0292 264.568 71.7418 263.483 71.5358L257.588 70.4164C256.503 70.2104 255.79 69.1636 255.996 68.0784C256.202 66.9933 257.249 66.2806 258.334 66.4866L264.229 67.606C265.314 67.812 266.027 68.8588 265.821 69.944ZM272.185 73.1882C272.607 73.2682 272.978 73.5031 273.3 73.7866C273.366 73.8445 273.434 73.9003 273.503 73.9542C273.894 74.2588 274.222 74.6568 274.328 75.1415C274.526 76.0448 275.419 76.6165 276.322 76.4185L277.681 76.1208C278.185 76.0103 278.505 75.5117 278.394 75.0073C278.305 74.6031 278.5 74.1967 278.825 73.9411C279.833 73.1492 280.481 71.9192 280.481 70.538C280.481 68.1493 278.544 66.2129 276.156 66.2129C274.434 66.2129 272.947 67.2187 272.251 68.6748C272.138 68.9116 271.886 69.06 271.629 69.011C271.34 68.9563 271.062 69.1456 271.007 69.434L270.707 71.0167C270.515 72.0246 271.177 72.9968 272.185 73.1882ZM215.319 77.2284C215.319 78.8831 216.248 80.3207 217.613 81.048C218.117 81.3166 218.585 81.6797 218.831 82.1951L219.005 82.5583C219.482 83.5548 220.676 83.9763 221.672 83.4997L222.273 83.2124C222.938 82.8946 223.219 82.098 222.901 81.4333C222.641 80.8893 222.797 80.2495 223.15 79.761C223.665 79.0491 223.969 78.1742 223.969 77.2284C223.969 74.8397 222.033 72.9033 219.644 72.9033C219.067 72.9033 218.516 73.0165 218.012 73.2218C217.684 73.3557 217.298 73.3124 217.047 73.0618C216.742 72.7567 216.248 72.7567 215.943 73.0618L214.814 74.1907C214.18 74.8243 214.18 75.8515 214.814 76.485L215.161 76.8318C215.265 76.9364 215.319 77.0805 215.319 77.2284ZM231.502 82.9672C231.121 82.7847 230.959 82.3275 231.142 81.946C231.331 81.551 231.145 81.0829 230.78 80.8418C229.607 80.0683 228.833 78.7388 228.833 77.2284C228.833 74.8397 230.769 72.9033 233.158 72.9033C233.925 72.9033 234.646 73.1034 235.271 73.4542C235.765 73.7311 236.409 73.7212 236.795 73.308C237.183 72.8934 237.834 72.8717 238.248 73.2596L238.958 73.9236C239.765 74.6782 239.807 75.9438 239.052 76.7505L237.504 78.406C237.319 78.6033 237.182 78.8385 237.066 79.0824C236.957 79.3119 236.829 79.5304 236.682 79.7355C236.595 79.8578 236.514 79.9844 236.449 80.1199L235.283 82.5584C234.806 83.5548 233.612 83.9763 232.616 83.4997L231.502 82.9672ZM173.045 75.789C174.111 76.0796 174.739 77.1791 174.448 78.2447L172.889 83.9618C172.599 85.0274 171.499 85.6557 170.433 85.3651C169.368 85.0744 168.74 83.975 169.03 82.9093L170.589 77.1923C170.88 76.1266 171.98 75.4984 173.045 75.789ZM279.625 89.9667C278.546 90.2032 277.48 89.5202 277.243 88.4413L276.11 83.2699C275.874 82.191 276.557 81.1246 277.635 80.8881C278.714 80.6516 279.781 81.3346 280.017 82.4135L281.151 87.5849C281.387 88.6639 280.704 89.7302 279.625 89.9667ZM224.948 94.9855C225.077 95.2549 225.144 95.5498 225.144 95.8484V100.652C225.144 101.756 226.039 102.652 227.144 102.652C228.248 102.652 229.144 101.756 229.144 100.652V95.8485C229.144 95.5498 229.21 95.255 229.339 94.9856L230.821 91.8876C231.298 90.8912 230.876 89.697 229.88 89.2204L228.706 88.6589C228.358 88.4925 227.94 88.6397 227.774 88.9878C227.521 89.5173 226.767 89.5173 226.514 88.9878C226.347 88.6397 225.93 88.4925 225.582 88.659L224.408 89.2205C223.411 89.697 222.99 90.8911 223.466 91.8876L224.948 94.9855ZM171.133 91.7291C170.957 91.5965 170.868 91.3737 170.926 91.1614C170.998 90.8952 170.841 90.6205 170.575 90.5479L168.29 89.9247C167.687 89.7602 167.065 90.1157 166.9 90.7187C166.811 91.0453 166.576 91.3075 166.287 91.4832C165.038 92.2417 164.204 93.6147 164.204 95.1825C164.204 97.2408 165.641 98.9633 167.567 99.4004C168.126 99.5272 168.665 99.7916 168.984 100.267C169.52 101.066 170.601 101.279 171.4 100.744L172.204 100.205C172.796 99.8078 172.955 99.0062 172.558 98.4142C172.26 97.9698 172.285 97.3941 172.498 96.9033C172.727 96.376 172.854 95.7941 172.854 95.1825C172.854 93.7716 172.178 92.5185 171.133 91.7291ZM278.647 95.6951C278.739 95.5944 278.781 95.4564 278.752 95.3231C278.705 95.1083 278.841 94.896 279.056 94.849L280.138 94.6116C280.217 94.5944 280.293 94.5705 280.369 94.5432C280.731 94.4119 281.117 94.3278 281.517 94.2981C281.566 94.2945 281.615 94.2879 281.663 94.2774L282.405 94.1148C282.498 94.0944 282.59 94.1535 282.611 94.2468C282.626 94.3147 282.68 94.3669 282.748 94.3814C284.701 94.7982 286.166 96.5336 286.166 98.6112C286.166 101 284.23 102.936 281.841 102.936C281.519 102.936 281.204 103.068 281.018 103.33L280.717 103.753C280.155 104.541 279.06 104.725 278.272 104.163L277.811 103.835C277.055 103.296 276.879 102.246 277.418 101.49C277.788 100.97 277.804 100.292 277.648 99.6735C277.562 99.3337 277.516 98.9778 277.516 98.6112C277.516 97.4876 277.945 96.4641 278.647 95.6951ZM175.408 106.258C176.326 105.643 177.568 105.888 178.183 106.806L183.542 114.801C184.157 115.718 183.912 116.96 182.994 117.575C182.077 118.19 180.834 117.945 180.219 117.028L174.86 109.033C174.245 108.116 174.491 106.873 175.408 106.258ZM267.438 118.944C266.538 118.303 266.328 117.054 266.969 116.154L271.737 109.463C272.378 108.563 273.627 108.353 274.526 108.994C275.426 109.635 275.636 110.884 274.995 111.784L270.227 118.475C269.586 119.375 268.337 119.584 267.438 118.944ZM157.462 115.255C157.986 114.945 158.634 114.825 159.176 115.102C159.877 115.46 160.736 115.182 161.093 114.481L161.355 113.969C161.857 112.985 161.467 111.781 160.483 111.278L160.418 111.245C159.856 110.958 159.491 110.411 159.243 109.832C158.583 108.287 157.05 107.204 155.264 107.204C153.518 107.204 152.013 108.239 151.33 109.729C151.251 109.902 151.103 110.037 150.919 110.084C150.607 110.163 150.419 110.479 150.498 110.791L151.28 113.879C151.312 114.003 151.439 114.079 151.563 114.047C151.657 114.024 151.755 114.061 151.814 114.138C152.604 115.181 153.855 115.854 155.264 115.854C156.067 115.854 156.818 115.636 157.462 115.255ZM224.597 111.72C224.907 111.625 225.144 111.353 225.144 111.028C225.144 110.661 225.442 110.363 225.809 110.363H227.204C228.275 110.363 229.144 111.231 229.144 112.302C229.144 112.768 229.327 113.21 229.569 113.608C229.968 114.263 230.198 115.032 230.198 115.854C230.198 118.243 228.261 120.18 225.872 120.18C223.484 120.18 221.547 118.243 221.547 115.854C221.547 113.91 222.831 112.265 224.597 111.72ZM136.855 115.71C136.584 114.64 137.232 113.552 138.303 113.28L143.753 111.9C144.823 111.628 145.911 112.277 146.183 113.347C146.454 114.418 145.806 115.506 144.735 115.777L139.285 117.158C138.215 117.429 137.127 116.781 136.855 115.71ZM127.037 116.134L129.762 115.444C130.833 115.173 131.921 115.821 132.192 116.892C132.463 117.962 131.804 119.053 130.733 119.325C129.92 119.53 129.314 120.223 129.227 121.057L129.166 121.64C129.051 122.739 128.067 123.536 126.969 123.421C125.87 123.306 125.073 122.322 125.188 121.224L125.539 117.865C125.626 117.031 126.224 116.34 127.037 116.134ZM167.2 116.954C167.702 115.97 168.907 115.58 169.891 116.082L178.019 120.232C179.002 120.735 179.393 121.939 178.89 122.923C178.388 123.907 177.183 124.297 176.199 123.795L168.072 119.644C167.088 119.142 166.698 117.937 167.2 116.954ZM293.263 114.846C291.835 114.846 290.569 115.538 289.781 116.605C289.509 116.973 289.163 117.292 288.728 117.435C287.82 117.734 287.326 118.714 287.625 119.622L288.114 121.106C288.236 121.476 288.635 121.677 289.005 121.555C289.319 121.452 289.658 121.585 289.863 121.844C290.655 122.85 291.884 123.496 293.263 123.496C295.408 123.496 297.189 121.934 297.529 119.885C297.554 119.74 297.589 119.597 297.646 119.461L297.971 118.689C298.123 118.326 297.953 117.909 297.591 117.757C297.411 117.681 297.273 117.534 297.191 117.357C296.505 115.874 295.004 114.846 293.263 114.846ZM271.293 125.286C270.947 124.237 271.517 123.106 272.566 122.761L279.711 120.406C280.761 120.06 281.891 120.631 282.237 121.68C282.583 122.729 282.012 123.859 280.963 124.205L273.818 126.56C272.769 126.905 271.639 126.335 271.293 125.286ZM301.762 121.68C302.19 120.661 303.363 120.183 304.381 120.611L309.274 122.667C310.293 123.095 310.771 124.268 310.343 125.286C309.915 126.304 308.743 126.783 307.725 126.355L302.831 124.298C301.813 123.87 301.334 122.698 301.762 121.68ZM194.414 129.652C194.414 127.761 193.201 126.154 191.51 125.566C190.961 125.375 190.434 125.082 190.11 124.599L189.562 123.782C188.947 122.864 187.705 122.619 186.787 123.234L185.343 124.203C185.223 124.283 185.191 124.445 185.271 124.564C185.324 124.643 185.33 124.744 185.287 124.828L184.413 126.538C184.089 127.174 184.341 127.952 184.977 128.277L185.035 128.306C185.523 128.556 185.764 129.104 185.764 129.652C185.764 132.041 187.701 133.977 190.089 133.977C190.693 133.977 191.267 133.854 191.789 133.631C192.004 133.538 192.259 133.576 192.42 133.746C192.616 133.954 192.944 133.963 193.152 133.767L194.745 132.259C195.262 131.77 195.285 130.954 194.795 130.437L194.651 130.285C194.491 130.115 194.414 129.885 194.414 129.652ZM255.662 129.652C255.662 129.79 255.668 129.926 255.681 130.061C255.705 130.322 255.624 130.587 255.433 130.767C255.125 131.056 255.11 131.54 255.399 131.848L257.257 133.826C257.454 134.036 257.784 134.046 257.994 133.849C258.147 133.706 258.369 133.67 258.566 133.739C259.011 133.893 259.489 133.977 259.987 133.977C262.042 133.977 263.762 132.544 264.202 130.623C264.328 130.076 264.67 129.574 265.203 129.399C265.89 129.172 266.263 128.432 266.037 127.745L265.318 125.565C265.29 125.479 265.304 125.384 265.357 125.31C265.448 125.182 265.418 125.005 265.29 124.913L263.893 123.918C262.994 123.277 261.745 123.487 261.104 124.386L260.669 124.996C260.514 125.214 260.254 125.327 259.987 125.327C257.598 125.327 255.662 127.264 255.662 129.652ZM320.924 132.318C320.924 131.839 321.137 131.392 321.424 131.009C321.965 130.287 322.285 129.39 322.285 128.418C322.285 126.029 320.349 124.093 317.96 124.093C315.572 124.093 313.635 126.029 313.635 128.418C313.635 130.228 314.747 131.778 316.325 132.423C316.668 132.563 316.924 132.879 316.924 133.249C316.924 133.693 317.285 134.054 317.729 134.054H319.188C320.147 134.054 320.924 133.276 320.924 132.318ZM125.29 139.464C124.191 139.349 123.394 138.365 123.509 137.267L124.212 130.55C124.327 129.451 125.31 128.654 126.409 128.769C127.508 128.884 128.305 129.867 128.19 130.966L127.487 137.683C127.372 138.782 126.388 139.579 125.29 139.464ZM252.141 136.603C252.897 137.408 252.858 138.674 252.053 139.43L246.76 144.403C245.955 145.159 244.689 145.119 243.933 144.314C243.177 143.509 243.216 142.243 244.021 141.487L249.314 136.515C250.119 135.759 251.385 135.798 252.141 136.603ZM205.173 144.314C204.37 145.073 203.104 145.038 202.345 144.236L197.798 139.431C197.039 138.628 197.074 137.363 197.877 136.603C198.679 135.844 199.945 135.879 200.704 136.682L205.251 141.487C206.01 142.289 205.975 143.555 205.173 144.314ZM318.924 139.215C320.029 139.215 320.924 140.11 320.924 141.215V147.537C320.924 148.642 320.029 149.537 318.924 149.537C317.82 149.537 316.924 148.642 316.924 147.537V141.215C316.924 140.11 317.82 139.215 318.924 139.215ZM119.845 148.664C119.845 150.723 121.284 152.445 123.21 152.882C123.738 153.002 124.256 153.213 124.622 153.612L125.449 154.514C126.195 155.328 127.46 155.383 128.274 154.637L128.53 154.403C129.203 153.786 129.248 152.739 128.631 152.066C128.112 151.5 128.087 150.656 128.31 149.921C128.431 149.523 128.495 149.101 128.495 148.664C128.495 147.24 127.808 145.977 126.746 145.189C126.721 145.17 126.707 145.139 126.71 145.108C126.715 145.059 126.68 145.016 126.631 145.011L126.507 144.998C126.474 144.994 126.443 144.983 126.416 144.967C125.761 144.568 124.993 144.339 124.17 144.339C121.782 144.339 119.845 146.275 119.845 148.664ZM239.829 148.17C240.585 148.975 240.545 150.24 239.74 150.997L234.448 155.969C233.643 156.725 232.377 156.685 231.621 155.88C230.864 155.075 230.904 153.81 231.709 153.053L237.002 148.081C237.807 147.325 239.072 147.365 239.829 148.17ZM216.117 155.88C215.314 156.64 214.048 156.605 213.289 155.802L208.742 150.997C207.983 150.195 208.018 148.929 208.821 148.17C209.623 147.41 210.889 147.445 211.648 148.248L216.195 153.053C216.954 153.855 216.919 155.121 216.117 155.88ZM320.47 154.698C320.721 154.698 320.924 154.902 320.924 155.153C320.924 155.323 321.02 155.476 321.164 155.564C322.414 156.322 323.249 157.696 323.249 159.265C323.249 161.653 321.313 163.59 318.924 163.59C318.905 163.59 318.886 163.59 318.866 163.589C318.277 163.582 317.673 163.713 317.238 164.111C316.511 164.776 315.382 164.726 314.717 163.998L314.129 163.355C313.628 162.807 313.666 161.958 314.214 161.457C314.623 161.082 314.74 160.496 314.653 159.948C314.617 159.725 314.599 159.497 314.599 159.265C314.599 157.696 315.434 156.322 316.684 155.564C316.829 155.476 316.924 155.322 316.924 155.153C316.924 154.902 317.128 154.698 317.379 154.698H320.47ZM133.387 163.59C133.387 163.337 133.308 163.088 133.137 162.902L132.256 161.94C131.509 161.125 131.564 159.86 132.378 159.114L132.723 158.798C133.347 158.226 134.316 158.268 134.888 158.892C135.36 159.407 136.117 159.508 136.799 159.361C137.093 159.298 137.399 159.265 137.712 159.265C139.311 159.265 140.706 160.131 141.455 161.421C141.685 161.816 142.062 162.125 142.517 162.169C143.172 162.233 143.651 162.815 143.587 163.47L143.442 164.968C143.372 165.685 142.734 166.209 142.017 166.139C141.549 166.094 141.103 166.316 140.77 166.649C139.987 167.431 138.906 167.915 137.712 167.915C135.324 167.915 133.387 165.978 133.387 163.59ZM228.153 162.488C228.078 162.203 228.143 161.892 228.358 161.689C228.65 161.415 228.664 160.957 228.39 160.666L226.865 159.042C226.469 158.62 225.805 158.599 225.384 158.996C225.127 159.237 224.767 159.324 224.417 159.288C224.27 159.272 224.12 159.265 223.969 159.265C223.638 159.265 223.316 159.302 223.007 159.372C222.61 159.462 222.18 159.378 221.9 159.082C221.523 158.684 220.895 158.667 220.496 159.044L219.303 160.172C218.756 160.69 218.732 161.554 219.25 162.102C219.563 162.433 219.675 162.897 219.65 163.352C219.646 163.43 219.644 163.51 219.644 163.59C219.644 164.355 219.843 165.075 220.192 165.699C220.384 166.041 220.469 166.444 220.356 166.82L220.196 167.355C220.09 167.706 220.29 168.077 220.642 168.182C220.936 168.27 221.132 168.549 221.114 168.856L221.096 169.176C221.067 169.705 221.471 170.157 221.999 170.187L222.549 170.217C222.659 170.223 222.751 170.303 222.773 170.41C222.8 170.541 222.928 170.626 223.059 170.599L224.337 170.336C224.384 170.326 224.432 170.323 224.48 170.326L224.942 170.352C224.994 170.354 225.039 170.315 225.042 170.263C225.044 170.22 225.075 170.184 225.117 170.176L225.783 170.039C226.311 169.93 226.652 169.414 226.543 168.885L226.496 168.658C226.406 168.22 226.598 167.772 226.977 167.534L227.438 167.246C227.685 167.091 227.76 166.765 227.605 166.518C227.489 166.332 227.502 166.095 227.62 165.909C228.047 165.239 228.294 164.443 228.294 163.59C228.294 163.209 228.245 162.84 228.153 162.488ZM154.321 168.385C154.951 168.316 154.945 167.398 154.314 167.336L151.192 167.033C150.723 166.987 150.379 166.569 150.425 166.1L150.536 164.959C150.643 163.86 151.621 163.055 152.72 163.162L163.476 164.209C164.197 164.28 164.726 164.922 164.655 165.644L164.585 166.364C164.541 166.823 164.929 167.207 165.388 167.156C165.786 167.111 166.145 167.399 166.189 167.797L166.33 169.063C166.452 170.161 165.661 171.15 164.563 171.272L156.226 172.198C155.129 172.32 154.14 171.529 154.018 170.432L153.855 168.968C153.823 168.678 154.032 168.418 154.321 168.385ZM172.624 169.626C172.591 169.327 172.353 169.093 172.054 169.063C171.705 169.029 171.449 168.719 171.483 168.369L171.736 165.769C171.777 165.356 172.144 165.053 172.557 165.093C172.895 165.126 173.208 164.925 173.369 164.625C174.099 163.27 175.531 162.349 177.179 162.349C179.568 162.349 181.504 164.285 181.504 166.674C181.504 169.062 179.568 170.999 177.179 170.999C176.411 170.999 175.69 170.799 175.065 170.448C174.763 170.278 174.421 170.177 174.076 170.215L173.399 170.29C173.017 170.333 172.672 170.057 172.63 169.675L172.624 169.626ZM301.605 168.96C301.351 169.434 300.894 169.8 300.356 169.8C299.69 169.8 299.151 170.339 299.151 171.005V171.8C299.151 172.904 300.046 173.8 301.151 173.8H301.2C301.786 173.8 302.328 174.079 302.793 174.435C303.522 174.993 304.432 175.324 305.42 175.324C307.809 175.324 309.745 173.388 309.745 170.999C309.745 170.976 309.755 170.954 309.772 170.938L310.305 170.451C311.003 169.813 311.051 168.73 310.413 168.032L309.443 166.971C309.126 166.625 308.588 166.601 308.242 166.918C307.957 167.178 307.535 167.206 307.183 167.048C306.644 166.808 306.048 166.674 305.42 166.674C303.769 166.674 302.333 167.6 301.605 168.96ZM141.485 169.812L145.653 169.349C146.751 169.227 147.74 170.018 147.862 171.116C147.984 172.213 147.193 173.202 146.095 173.324L143.406 173.623C142.929 173.676 142.487 173.899 142.161 174.251L139.806 176.791C139.055 177.601 137.79 177.649 136.98 176.899C136.17 176.148 136.122 174.882 136.873 174.072L140.239 170.44C140.565 170.088 141.008 169.865 141.485 169.812ZM266.509 176.565C267.542 176.565 268.49 176.203 269.234 175.599C269.608 175.296 270.095 175.131 270.559 175.26L270.734 175.309C271.297 175.465 271.879 175.136 272.035 174.574L272.246 173.815C272.249 173.806 272.257 173.8 272.267 173.8C272.278 173.8 272.288 173.79 272.288 173.778V173.681C272.288 173.67 272.289 173.66 272.292 173.649L272.739 172.042C272.785 171.874 272.687 171.7 272.519 171.653C272.382 171.615 272.288 171.491 272.288 171.349V170.816C272.288 170.255 271.833 169.8 271.271 169.8H270.843C270.366 169.8 269.931 169.552 269.597 169.212C268.812 168.411 267.719 167.915 266.509 167.915C264.12 167.915 262.184 169.851 262.184 172.24C262.184 174.629 264.12 176.565 266.509 176.565ZM279.411 174.063C279.448 173.931 279.348 173.8 279.211 173.8C279.096 173.8 279.003 173.707 279.003 173.592V171.8C279.003 170.695 279.899 169.8 281.003 169.8H290.435C291.539 169.8 292.435 170.695 292.435 171.8V172.338C292.435 173.145 291.78 173.8 290.973 173.8C289.271 173.8 288.942 176.215 290.582 176.67L291.444 176.91C292.287 177.144 292.78 178.017 292.546 178.86L292.435 179.261C292.139 180.325 291.037 180.948 289.973 180.652L280.048 177.896C279.175 177.654 278.665 176.75 278.907 175.878L279.411 174.063ZM234.523 181.334C233.586 181.92 232.352 181.637 231.766 180.701L228.334 175.219C227.748 174.283 228.031 173.049 228.968 172.463C229.904 171.877 231.138 172.16 231.724 173.096L235.156 178.578C235.742 179.514 235.459 180.748 234.523 181.334ZM221.985 175.314C221.752 176.089 222.305 176.878 223.114 176.924L224.578 177.006C224.625 177.008 224.661 177.049 224.659 177.096C224.655 177.151 224.706 177.195 224.761 177.184L226.605 176.805C227.435 176.634 228.246 177.169 228.417 177.998L230.441 187.844C230.663 188.926 229.967 189.983 228.885 190.206L228.257 190.335C227.522 190.486 226.803 190.013 226.652 189.278L226.56 188.831C226.254 187.341 224.075 187.501 223.99 189.02C223.95 189.737 223.336 190.285 222.62 190.245L221.92 190.206C220.817 190.144 219.974 189.2 220.035 188.097L220.489 180.007C220.494 179.927 220.397 179.883 220.34 179.94L217.536 182.702C216.749 183.477 215.483 183.468 214.708 182.681C213.933 181.894 213.942 180.628 214.729 179.853L216.803 177.809C217.042 177.573 217.218 177.281 217.315 176.959L217.938 174.881C218.256 173.823 219.37 173.223 220.428 173.54L221.145 173.755C221.807 173.954 222.183 174.652 221.985 175.314ZM309.624 185.764C309.374 185.299 309.396 184.745 309.552 184.241C309.678 183.836 309.745 183.405 309.745 182.959C309.745 180.57 307.809 178.634 305.42 178.634C304.575 178.634 303.787 178.876 303.121 179.295C302.589 179.63 301.954 179.829 301.348 179.661C300.43 179.406 299.479 179.943 299.224 180.861L299.052 181.479C298.811 182.348 299.32 183.249 300.189 183.49C300.789 183.657 301.218 184.163 301.474 184.731C302.151 186.236 303.663 187.284 305.42 187.284C305.703 187.284 305.974 187.422 306.107 187.671L306.27 187.974C306.585 188.56 307.315 188.781 307.902 188.466L308.984 187.885C309.747 187.476 310.033 186.526 309.624 185.764ZM128.593 182.96C128.619 182.961 128.644 182.95 128.662 182.931L129.428 182.105C130.179 181.295 131.444 181.247 132.254 181.998L132.777 182.482C133.298 182.965 133.329 183.78 132.846 184.301C132.453 184.725 132.411 185.355 132.595 185.903C132.741 186.336 132.821 186.801 132.821 187.284C132.821 188.918 131.914 190.341 130.577 191.076C130.42 191.163 130.327 191.337 130.359 191.514C130.398 191.728 130.255 191.933 130.041 191.972L127.651 192.404C127.012 192.52 126.399 192.095 126.284 191.455C126.225 191.13 126.027 190.851 125.771 190.643C124.794 189.85 124.17 188.64 124.17 187.284C124.17 184.895 126.107 182.959 128.496 182.959C128.528 182.959 128.56 182.959 128.593 182.96ZM242.855 194.641C241.919 195.228 240.685 194.944 240.098 194.008L236.666 188.527C236.08 187.59 236.364 186.356 237.3 185.77C238.236 185.184 239.47 185.468 240.057 186.404L243.489 191.885C244.075 192.821 243.791 194.055 242.855 194.641ZM210.479 186.848C211.255 187.634 211.245 188.901 210.458 189.676L204.851 195.201C204.064 195.977 202.798 195.967 202.022 195.18C201.247 194.394 201.256 193.127 202.043 192.352L207.651 186.827C208.438 186.051 209.704 186.061 210.479 186.848ZM312.399 192.62C312.787 192.412 313.269 192.557 313.477 192.945C313.642 193.253 313.989 193.409 314.338 193.389C314.425 193.383 314.512 193.381 314.599 193.381C316.988 193.381 318.924 195.317 318.924 197.706C318.924 199.657 317.633 201.306 315.858 201.845C315.426 201.976 315.05 202.283 314.93 202.719C314.767 203.312 314.154 203.661 313.561 203.498L312.17 203.115C311.401 202.904 310.949 202.109 311.161 201.34C311.291 200.868 311.157 200.37 310.902 199.952C310.504 199.297 310.274 198.528 310.274 197.706C310.274 197.364 310.314 197.032 310.388 196.713C310.49 196.282 310.482 195.822 310.272 195.433C309.888 194.716 310.157 193.823 310.874 193.438L312.399 192.62ZM228.433 205.367C228.559 205.853 228.612 206.367 228.46 206.845L228.301 207.343C227.966 208.395 228.547 209.52 229.6 209.855L230.469 210.132C231.041 210.315 231.653 209.999 231.836 209.426L231.952 209.06C232.043 208.776 232.322 208.601 232.62 208.601C235.008 208.601 236.945 206.665 236.945 204.276C236.945 202.52 235.898 201.008 234.394 200.331C233.577 199.963 232.808 199.356 232.627 198.478L232.615 198.416C232.392 197.334 231.335 196.637 230.253 196.859C229.171 197.082 228.474 198.139 228.696 199.221L229.008 200.738C229.126 201.309 228.964 201.891 228.714 202.416C228.445 202.98 228.294 203.61 228.294 204.276C228.294 204.653 228.343 205.019 228.433 205.367ZM215.319 204.276C215.319 205.658 215.967 206.888 216.975 207.68C217.203 207.859 217.312 208.161 217.211 208.433C217.094 208.748 217.254 209.098 217.568 209.215L219.128 209.795C220.023 210.127 221.018 209.672 221.35 208.777C221.502 208.369 221.812 208.045 222.166 207.79C223.258 207.005 223.969 205.724 223.969 204.276C223.969 203.639 223.831 203.033 223.583 202.488C223.407 202.1 223.28 201.683 223.304 201.257L223.432 198.968C223.494 197.865 222.65 196.921 221.547 196.859L221.252 196.843C220.312 196.79 219.508 197.509 219.455 198.449C219.407 199.311 218.697 199.967 217.907 200.314C216.383 200.983 215.319 202.505 215.319 204.276ZM131.259 207.741C130.172 207.937 129.132 207.215 128.936 206.129L127.781 199.743C127.585 198.656 128.307 197.615 129.394 197.419C130.481 197.222 131.521 197.944 131.718 199.031L132.872 205.417C133.068 206.504 132.346 207.544 131.259 207.741ZM197.794 199.347C198.569 200.133 198.56 201.4 197.773 202.175L194.969 204.938C194.883 205.023 194.789 205.1 194.688 205.168L191.12 207.589C190.206 208.209 188.962 207.971 188.342 207.057C187.722 206.143 187.96 204.9 188.874 204.279L192.141 202.063C192.241 201.995 192.335 201.918 192.421 201.832L194.965 199.326C195.752 198.55 197.019 198.56 197.794 199.347ZM244.608 202.514C244.804 202.076 244.829 201.563 244.575 201.157C244.223 200.595 244.393 199.853 244.956 199.501L246.083 198.795C246.77 198.365 247.676 198.573 248.107 199.26L248.529 199.935C248.535 199.945 248.547 199.951 248.559 199.951C250.948 199.951 252.884 201.888 252.884 204.276C252.884 204.359 252.882 204.441 252.877 204.523L252.874 204.571C252.873 204.59 252.881 204.609 252.896 204.621L253.479 205.102C254.13 205.639 254.222 206.601 253.685 207.252L252.784 208.344C252.413 208.794 251.747 208.858 251.296 208.487C250.955 208.205 250.479 208.178 250.064 208.332C249.595 208.506 249.088 208.601 248.559 208.601C246.17 208.601 244.234 206.665 244.234 204.276C244.234 203.649 244.368 203.052 244.608 202.514ZM311.338 208.237C312.403 208.53 313.029 209.631 312.736 210.696L311.061 216.788C310.768 217.853 309.667 218.479 308.602 218.186C307.537 217.893 306.911 216.793 307.204 215.728L308.879 209.635C309.172 208.57 310.273 207.944 311.338 208.237ZM183.119 210.602C183.739 211.516 183.501 212.759 182.587 213.38L175.45 218.222C174.536 218.842 173.293 218.604 172.672 217.69C172.052 216.776 172.29 215.532 173.204 214.912L180.341 210.07C181.255 209.449 182.499 209.688 183.119 210.602ZM268.308 219.928C267.605 220.78 266.345 220.901 265.493 220.198L258.629 214.536C257.777 213.833 257.656 212.573 258.359 211.72C259.062 210.868 260.322 210.747 261.175 211.45L268.038 217.112C268.89 217.815 269.011 219.076 268.308 219.928ZM133.387 222.525C134.62 222.525 135.733 222.009 136.521 221.181C136.653 221.043 136.846 220.974 137.033 221.018C137.305 221.08 137.576 220.911 137.639 220.639L138.299 217.781C138.368 217.479 138.18 217.177 137.878 217.107C137.677 217.061 137.521 216.908 137.451 216.715C137.027 215.556 136.121 214.629 134.976 214.176C134.648 214.046 134.382 213.776 134.32 213.428C134.232 212.941 133.766 212.618 133.279 212.706L131.307 213.062C130.709 213.17 130.312 213.743 130.42 214.341C130.488 214.721 130.345 215.102 130.095 215.395C129.451 216.15 129.062 217.13 129.062 218.2C129.062 220.589 130.998 222.525 133.387 222.525ZM211.971 228.261C210.936 227.876 210.409 226.725 210.794 225.689L214.001 217.064C214.386 216.029 215.537 215.502 216.573 215.887C217.608 216.272 218.135 217.423 217.75 218.459L214.543 227.083C214.158 228.119 213.006 228.646 211.971 228.261ZM227.579 216.198C228.631 216.533 229.213 217.658 228.877 218.711L226.05 227.584C225.714 228.637 224.589 229.218 223.537 228.883C222.485 228.547 221.903 227.422 222.239 226.37L225.066 217.496C225.401 216.444 226.526 215.863 227.579 216.198ZM152.526 222.54C152.277 223.617 151.203 224.288 150.127 224.039L144.324 222.7C143.248 222.452 142.577 221.378 142.825 220.302C143.074 219.225 144.147 218.554 145.224 218.803L151.026 220.142C152.103 220.39 152.774 221.464 152.526 222.54ZM159.392 221.565C159.19 221.814 158.871 221.952 158.558 221.88C158.153 221.786 157.75 222.039 157.656 222.444L157.213 224.366C157.054 225.052 157.482 225.737 158.168 225.895C158.56 225.985 158.875 226.262 159.09 226.601C159.856 227.813 161.208 228.618 162.748 228.618C165.137 228.618 167.074 226.682 167.074 224.293C167.074 224.227 167.072 224.161 167.069 224.095C167.064 223.985 167.114 223.879 167.205 223.817L167.617 223.537C168.145 223.18 168.282 222.462 167.924 221.935L166.919 220.453C166.591 219.971 165.935 219.845 165.453 220.172C165.118 220.399 164.687 220.404 164.31 220.258C163.826 220.071 163.299 219.968 162.748 219.968C161.394 219.968 160.185 220.59 159.392 221.565ZM278.053 232.943C279.799 232.943 281.303 231.909 281.986 230.42C282.063 230.252 282.228 230.135 282.413 230.135C282.659 230.135 282.859 229.936 282.859 229.69V226.967C282.859 226.508 282.487 226.135 282.027 226.135C281.756 226.135 281.507 226 281.33 225.795C280.537 224.875 279.363 224.293 278.053 224.293C278.016 224.293 277.98 224.293 277.943 224.294C277.295 224.311 276.626 224.197 276.126 223.785L276.098 223.762C275.246 223.059 273.986 223.18 273.283 224.032L272.962 224.42C272.436 225.058 272.527 226.001 273.165 226.527C273.648 226.926 273.806 227.583 273.747 228.207C273.735 228.342 273.728 228.479 273.728 228.618C273.728 231.007 275.664 232.943 278.053 232.943ZM302.645 225.826C302.487 226.013 302.261 226.135 302.016 226.135C301.601 226.135 301.265 226.472 301.265 226.887V229.762C301.265 229.968 301.432 230.135 301.638 230.135C301.794 230.135 301.932 230.233 301.995 230.375C302.669 231.888 304.186 232.943 305.949 232.943C308.337 232.943 310.274 231.007 310.274 228.618C310.274 227.519 309.864 226.515 309.188 225.752C308.925 225.455 308.788 225.052 308.894 224.669C309.042 224.129 308.725 223.571 308.185 223.422L306.462 222.948C305.823 222.773 305.163 223.148 304.988 223.787C304.876 224.195 304.55 224.502 304.165 224.677C303.576 224.944 303.057 225.339 302.645 225.826ZM296.663 228.135C296.663 229.24 295.768 230.135 294.663 230.135H289.46C288.356 230.135 287.46 229.24 287.46 228.135C287.46 227.031 288.356 226.135 289.46 226.135H294.663C295.768 226.135 296.663 227.031 296.663 228.135ZM205.069 246.822C204.034 246.437 203.506 245.285 203.891 244.25L207.099 235.625C207.484 234.59 208.635 234.063 209.67 234.448C210.706 234.833 211.233 235.984 210.848 237.02L207.641 245.644C207.256 246.68 206.104 247.207 205.069 246.822ZM221.516 235.225C222.569 235.561 223.15 236.686 222.815 237.738L219.987 246.612C219.652 247.664 218.527 248.245 217.474 247.91C216.422 247.575 215.841 246.45 216.176 245.397L219.003 236.524C219.339 235.471 220.464 234.89 221.516 235.225ZM198.167 265.383C197.131 264.998 196.604 263.846 196.989 262.811L200.197 254.186C200.582 253.151 201.733 252.624 202.768 253.009C203.804 253.394 204.331 254.545 203.946 255.581L200.738 264.205C200.353 265.241 199.202 265.768 198.167 265.383ZM215.453 254.252C216.506 254.588 217.087 255.713 216.752 256.765L213.924 265.639C213.589 266.691 212.464 267.273 211.412 266.937C210.359 266.602 209.778 265.477 210.113 264.425L212.941 255.551C213.276 254.498 214.401 253.917 215.453 254.252ZM192.513 272.621C192.978 272.621 193.432 272.376 193.594 271.94L193.624 271.862C193.827 271.316 194.434 271.037 194.981 271.241L195.866 271.57C196.901 271.955 197.429 273.106 197.044 274.141L196.656 275.184C196.597 275.342 196.599 275.514 196.648 275.675C196.737 275.965 196.973 276.199 197.274 276.24L197.47 276.266C198.003 276.338 198.376 276.828 198.304 277.361L198.114 278.771C197.995 279.649 197.187 280.264 196.31 280.146C195.82 280.08 195.338 280.258 194.929 280.534C194.239 281 193.408 281.271 192.513 281.271C190.124 281.271 188.188 279.335 188.188 276.946C188.188 274.557 190.124 272.621 192.513 272.621ZM209.539 273.327C210.509 273.636 211.045 274.674 210.736 275.645C210.58 276.135 210.656 276.661 210.822 277.148C210.971 277.586 211.052 278.056 211.052 278.545C211.052 280.934 209.116 282.87 206.727 282.87C205.364 282.87 204.148 282.239 203.355 281.254C203.267 281.145 203.144 281.069 203.006 281.051C202.727 281.013 202.531 280.756 202.569 280.477L202.612 280.156C202.629 280.027 202.615 279.896 202.578 279.771C202.463 279.382 202.402 278.971 202.402 278.545C202.402 276.156 204.338 274.22 206.727 274.22C206.881 274.22 207.022 274.124 207.069 273.977L207.206 273.547C207.36 273.064 207.877 272.797 208.36 272.951L209.539 273.327ZM36.057 167.915C38.4457 167.915 40.3821 165.978 40.3821 163.59C40.3821 161.201 38.4457 159.265 36.057 159.265C33.6684 159.265 31.7319 161.201 31.7319 163.59C31.7319 163.952 31.7764 164.304 31.8603 164.64C31.9911 165.164 32.0371 165.721 31.8472 166.227L19.7928 198.371C19.5215 199.095 18.8395 199.559 18.1216 199.844C16.5226 200.479 15.3921 202.04 15.3921 203.865C15.3921 206.254 17.3285 208.19 19.7172 208.19C20.8329 208.19 21.8499 207.768 22.6171 207.074C23.112 206.627 23.7142 206.268 24.3815 206.268H64.9078C66.4475 206.268 67.4098 207.935 66.6398 209.269L46.4639 244.208C46.1165 244.81 45.4022 245.071 44.7074 245.071C42.3187 245.071 40.3823 247.008 40.3823 249.396C40.3823 250.573 40.8523 251.64 41.6149 252.42C41.6543 252.46 41.6629 252.522 41.6347 252.571C41.5784 252.668 41.6713 252.784 41.7787 252.75L41.8434 252.73C41.8924 252.715 41.9457 252.725 41.9855 252.758C42.7288 253.36 43.676 253.721 44.7074 253.721C46.3204 253.721 47.7271 252.839 48.4707 251.53C48.8088 250.934 49.2821 250.391 49.9352 250.185L91.0149 237.267C91.761 237.032 92.5562 237.292 93.2266 237.695C93.8764 238.085 94.6373 238.309 95.4506 238.309C97.8393 238.309 99.7757 236.373 99.7757 233.984C99.7757 231.596 97.8393 229.659 95.4506 229.659C93.8024 229.659 92.3695 230.581 91.6395 231.937C91.3039 232.561 90.8224 233.134 90.1469 233.347L54.9799 244.406C53.2403 244.953 51.736 243.077 52.6479 241.498L71.6078 208.664C71.7873 208.353 72.1375 208.19 72.4965 208.19C74.8852 208.19 76.8216 206.254 76.8216 203.865C76.8216 201.476 74.8852 199.54 72.4965 199.54C71.1566 199.54 69.959 200.149 69.1657 201.106C68.6426 201.737 67.9378 202.268 67.1184 202.268H24.4741C24.0297 202.268 23.6399 201.987 23.4077 201.609C23.204 201.276 23.1265 200.873 23.2634 200.508L35.3034 168.403C35.4184 168.096 35.7296 167.915 36.057 167.915ZM112.069 306.961C112.247 306.599 112.64 306.405 113.043 306.405C115.432 306.405 117.368 304.469 117.368 302.08C117.368 299.691 115.432 297.755 113.043 297.755C110.655 297.755 108.718 299.691 108.718 302.08C108.718 302.394 108.752 302.699 108.815 302.994C108.942 303.585 108.963 304.214 108.696 304.757L93.1981 336.237C93.0686 336.5 92.7878 336.648 92.4945 336.648C90.1059 336.648 88.1694 338.585 88.1694 340.974C88.1694 343.362 90.1059 345.299 92.4945 345.299C92.5159 345.299 92.5372 345.298 92.5584 345.298C93.0981 345.29 93.6491 345.374 94.0976 345.674L126.478 367.35C126.923 367.648 127.208 368.121 127.409 368.617C128.049 370.205 129.604 371.325 131.421 371.325C133.127 371.325 134.602 370.338 135.306 368.903C135.579 368.348 135.963 367.83 136.525 367.572L179.579 347.761C180.334 347.414 181.208 347.613 181.952 347.98C182.529 348.264 183.177 348.424 183.863 348.424C186.251 348.424 188.188 346.487 188.188 344.099C188.188 341.71 186.251 339.773 183.863 339.773C183.769 339.773 183.676 339.776 183.584 339.782C182.683 339.839 181.711 339.659 181.141 338.959L155.615 307.62C155.071 306.953 155.064 306.018 155.261 305.18C155.336 304.862 155.375 304.53 155.375 304.188C155.375 301.8 153.439 299.863 151.05 299.863C148.662 299.863 146.725 301.8 146.725 304.188C146.725 304.887 146.891 305.546 147.185 306.13C147.5 306.757 147.691 307.473 147.482 308.143L130.747 361.859C130.569 362.431 130.078 362.844 129.54 363.105C128.834 363.446 127.988 363.548 127.337 363.112L97.8377 343.364C97.0796 342.857 96.8196 341.886 96.8196 340.974C96.8196 340.604 96.7734 340.246 96.6863 339.904C96.5281 339.282 96.4874 338.612 96.7707 338.037L112.069 306.961ZM147.138 82.6171C147.138 84.343 145.739 85.7421 144.013 85.7421C142.287 85.7421 140.888 84.343 140.888 82.6171C140.888 80.8913 142.287 79.4922 144.013 79.4922C145.739 79.4922 147.138 80.8913 147.138 82.6171ZM39.1821 124.563C40.908 124.563 42.3071 123.164 42.3071 121.438C42.3071 119.713 40.908 118.313 39.1821 118.313C37.4562 118.313 36.0571 119.713 36.0571 121.438C36.0571 123.164 37.4562 124.563 39.1821 124.563ZM64.2621 152.989C64.2621 154.715 62.863 156.114 61.1372 156.114C59.4113 156.114 58.0122 154.715 58.0122 152.989C58.0122 151.263 59.4113 149.864 61.1372 149.864C62.863 149.864 64.2621 151.263 64.2621 152.989ZM211.921 36.2363C211.921 37.9622 210.522 39.3613 208.796 39.3613C207.07 39.3613 205.671 37.9622 205.671 36.2363C205.671 34.5104 207.07 33.1113 208.796 33.1113C210.522 33.1113 211.921 34.5104 211.921 36.2363ZM259.245 21.9902C260.97 21.9902 262.37 20.5911 262.37 18.8652C262.37 17.1393 260.97 15.7402 259.245 15.7402C257.519 15.7402 256.12 17.1393 256.12 18.8652C256.12 20.5911 257.519 21.9902 259.245 21.9902ZM368.552 131.543C368.552 133.269 367.153 134.668 365.427 134.668C363.701 134.668 362.302 133.269 362.302 131.543C362.302 129.817 363.701 128.418 365.427 128.418C367.153 128.418 368.552 129.817 368.552 131.543ZM353.185 183.637C354.911 183.637 356.31 182.238 356.31 180.512C356.31 178.786 354.911 177.387 353.185 177.387C351.459 177.387 350.06 178.786 350.06 180.512C350.06 182.238 351.459 183.637 353.185 183.637ZM366.803 245.72C366.803 247.446 365.404 248.845 363.678 248.845C361.952 248.845 360.553 247.446 360.553 245.72C360.553 243.994 361.952 242.595 363.678 242.595C365.404 242.595 366.803 243.994 366.803 245.72ZM308.963 343.284C310.689 343.284 312.088 341.885 312.088 340.159C312.088 338.433 310.689 337.034 308.963 337.034C307.237 337.034 305.838 338.433 305.838 340.159C305.838 341.885 307.237 343.284 308.963 343.284ZM192.513 376.137C192.513 377.863 191.114 379.262 189.388 379.262C187.662 379.262 186.263 377.863 186.263 376.137C186.263 374.411 187.662 373.012 189.388 373.012C191.114 373.012 192.513 374.411 192.513 376.137ZM172.649 300.88C174.375 300.88 175.774 299.481 175.774 297.755C175.774 296.029 174.375 294.63 172.649 294.63C170.923 294.63 169.524 296.029 169.524 297.755C169.524 299.481 170.923 300.88 172.649 300.88ZM141.997 266.025C141.997 267.751 140.597 269.15 138.872 269.15C137.146 269.15 135.747 267.751 135.747 266.025C135.747 264.299 137.146 262.9 138.872 262.9C140.597 262.9 141.997 264.299 141.997 266.025ZM195.638 246.902C197.364 246.902 198.763 245.503 198.763 243.777C198.763 242.051 197.364 240.652 195.638 240.652C193.912 240.652 192.513 242.051 192.513 243.777C192.513 245.503 193.912 246.902 195.638 246.902ZM100.932 289.011C100.932 290.737 99.533 292.136 97.8071 292.136C96.0812 292.136 94.6821 290.737 94.6821 289.011C94.6821 287.285 96.0812 285.886 97.8071 285.886C99.533 285.886 100.932 287.285 100.932 289.011ZM35.5971 289.011C37.323 289.011 38.7221 287.612 38.7221 285.886C38.7221 284.16 37.323 282.761 35.5971 282.761C33.8713 282.761 32.4722 284.16 32.4722 285.886C32.4722 287.612 33.8713 289.011 35.5971 289.011ZM81.6948 344.099C81.6948 345.824 80.2957 347.224 78.5698 347.224C76.8439 347.224 75.4448 345.824 75.4448 344.099C75.4448 342.373 76.8439 340.974 78.5698 340.974C80.2957 340.974 81.6948 342.373 81.6948 344.099Z"
        fill="currentColor"/>
</svg>
