<svg width="300" height="297" viewBox="0 0 300 297" fill="none" xmlns="http://www.w3.org/2000/svg">
  <path fill-rule="evenodd" clip-rule="evenodd"
        d="M256.819 67.2958C255.279 69.6135 255.489 72.7734 257.545 74.6489C270.554 86.5169 281.042 100.529 288.251 116.022C288.661 116.902 288.357 117.951 287.551 118.492C240.197 150.233 193.76 163.596 148.029 161.974C102.839 160.371 57.9943 144.123 13.3168 115.935C12.4624 115.396 12.1439 114.299 12.5919 113.394C19.7407 98.9426 29.7673 85.8421 42.0369 74.6489C44.0927 72.7735 44.303 69.6135 42.7629 67.2958C39.5989 62.5342 37.8966 57.4791 37.8966 52.2413C37.8966 23.8265 87.9933 0.791748 149.791 0.791748C211.588 0.791748 261.685 23.8265 261.685 52.2413C261.685 57.4791 259.983 62.5342 256.819 67.2958ZM10.6223 123.689C9.55962 123.025 8.15138 123.482 7.71256 124.655C2.89602 137.537 0.290771 151.298 0.290771 165.593C0.290771 172.387 0.879201 179.061 2.01377 185.576C2.3116 187.286 4.51078 187.76 5.5658 186.381C9.05398 181.823 13.2086 176.949 17.9025 172.281C28.6006 161.641 42.5858 151.586 58.289 149.376V149.376C58.5368 149.341 58.5822 149.002 58.3524 148.903C42.3588 142.028 26.45 133.577 10.6223 123.689ZM7.14812 203.698C6.77002 203.455 6.48499 203.091 6.34217 202.665C6.17625 202.169 6.01357 201.673 5.85415 201.175C5.6747 200.615 5.7548 200.006 6.07461 199.512C10.015 193.429 16.0465 185.409 23.5438 177.953C31.2001 170.339 40.1121 163.584 49.6405 159.893C51.1024 159.327 52.5223 160.679 52.1622 162.205C50.6418 168.647 49.344 176.258 48.6046 184.305C47.4219 197.174 47.6389 211.462 50.8422 224.054V224.054C51.2499 225.657 49.63 227.018 48.1289 226.324C47.2533 225.919 46.3785 225.509 45.5045 225.095C44.8088 224.765 44.3671 224.063 44.3671 223.293V215.461V202.601V184.587C44.3671 183.759 43.6956 183.087 42.8671 183.087V183.087C42.0387 183.087 41.3671 183.759 41.3671 184.587V196.515C41.3671 198.058 39.6948 199.02 38.3614 198.244L26.5685 191.384V191.384C25.5685 190.802 24.3142 191.524 24.3142 192.68V192.68V199.769C24.3142 201.302 22.6601 202.265 21.3268 201.508L18.9249 200.144C18.2044 199.735 17.2889 199.988 16.8799 200.708V200.708C16.4709 201.429 16.7234 202.344 17.4438 202.753L25.0737 207.085L40.3545 215.76C40.9804 216.115 41.3671 216.779 41.3671 217.499V219.885C41.3671 221.366 39.8142 222.332 38.4918 221.665C27.8986 216.323 17.436 210.317 7.14812 203.698ZM17.4298 219.353C15.7143 218.36 13.772 220.151 14.7168 221.894C38.7276 266.18 90.1856 296.792 149.791 296.792C211.525 296.792 264.52 263.954 287.332 217.096C288.232 215.248 286.046 213.552 284.393 214.775C242.587 245.704 197.606 259.343 152.347 259.088C147.308 259.059 142.269 258.859 137.233 258.491C137.199 258.489 137.166 258.502 137.145 258.528L137.101 258.581C137.056 258.634 136.97 258.606 136.964 258.537V258.537C136.961 258.499 136.931 258.469 136.893 258.466C96.1699 255.433 55.657 241.488 17.4298 219.353ZM294.648 190.776C295.601 191.219 296.211 192.239 295.961 193.259C295.805 193.896 295.644 194.531 295.478 195.165C295.376 195.551 295.159 195.897 294.857 196.158C280.874 208.228 266.495 218.147 251.839 226.072C250.391 226.855 248.702 225.631 248.997 224.012C251.068 212.65 254.612 197.245 258.775 182.561C261.328 173.555 264.095 164.89 266.871 157.642C267.384 156.301 267.894 155.021 268.398 153.806C269.09 152.135 271.438 152.258 272.038 153.964C274.636 161.349 277.599 168.593 280.821 174.678C283.41 179.568 286.291 183.949 289.455 187.05C290.984 188.547 292.725 189.882 294.648 190.776ZM295.707 181.944C296.713 182.832 298.122 182.136 298.296 180.807C298.953 175.816 299.291 170.739 299.291 165.593C299.291 152.348 297.054 139.56 292.894 127.506C292.471 126.282 291.005 125.808 289.924 126.521C285.3 129.57 280.68 132.452 276.065 135.168C275.271 135.636 274.894 136.582 275.153 137.465L275.361 138.171C278.712 149.561 283.06 161.811 287.891 170.934C290.317 175.517 292.743 179.071 295.054 181.335C295.278 181.555 295.496 181.758 295.707 181.944ZM149.791 91.9594C202.58 91.9594 245.374 75.204 245.374 54.5352C245.374 33.8664 202.58 17.1111 149.791 17.1111C97.0014 17.1111 54.2073 33.8664 54.2073 54.5352C54.2073 75.204 97.0014 91.9594 149.791 91.9594ZM147.836 108.396C189.318 108.396 219.994 100.064 241.2 85.3634C242.108 84.7341 243.356 84.9324 244.005 85.8265V85.8265C244.653 86.7206 244.457 87.9718 243.55 88.6018C221.439 103.958 189.838 112.396 147.836 112.396C128.075 112.396 109.345 110.324 93.2574 106.437C78.0899 102.774 65.1507 97.4687 55.9215 90.6686C55.0322 90.0134 54.8903 88.7533 55.577 87.8882V87.8882C56.2637 87.023 57.5193 86.8808 58.4103 87.5337C67.0413 93.8578 79.3706 98.968 94.1967 102.549C109.93 106.35 128.339 108.396 147.836 108.396ZM136.403 171.951C136.111 170.606 137.198 169.343 138.57 169.45C141.625 169.687 144.684 169.86 147.746 169.969C164.534 170.564 181.375 169.214 198.272 165.791C200.25 165.391 201.666 167.912 200.304 169.401C199.73 170.028 199.143 170.677 198.544 171.345C192.923 177.617 186.115 185.765 178.928 194.563C172.982 201.84 166.787 209.549 160.759 217.05L160.758 217.051L160.758 217.051C155.883 223.117 151.117 229.047 146.679 234.506C145.535 235.913 143.265 235.189 143.142 233.38C142.677 226.546 142.103 218.476 141.399 210.349C140.214 196.652 138.614 182.139 136.403 171.951ZM116.37 170.666C118.128 169.712 117.713 166.854 115.745 166.498C98.997 163.471 82.3441 158.58 65.7824 151.981C64.7195 151.557 63.5147 152.101 63.1377 153.181L62.6232 154.655C60.206 161.58 57.7056 172.689 56.571 185.037C55.7657 193.8 55.663 203.035 56.7051 211.729C56.8937 213.302 58.7656 213.971 59.9507 212.92C68.3541 205.469 79.0605 196.468 89.9222 188.267C97.2735 182.716 104.749 177.492 111.665 173.356C113.25 172.407 114.822 171.507 116.37 170.666ZM262.529 147.218C263.355 145.39 261.281 143.321 259.49 144.224C246.374 150.84 233.293 156.137 220.246 160.172C218.976 160.564 218.416 162.058 219.093 163.201C223.629 170.867 229.419 182.987 234.589 194.863C236.553 199.374 238.454 203.911 240.186 208.221C240.931 210.076 243.689 209.853 244.124 207.902C246.068 199.184 248.456 189.627 251.078 180.379C253.67 171.235 256.51 162.325 259.4 154.78C260.422 152.113 261.467 149.568 262.529 147.218ZM239.948 231.355C239.973 231.45 240.06 231.511 240.158 231.506V231.506C240.385 231.493 240.462 231.8 240.256 231.896C238.923 232.517 237.588 233.122 236.251 233.711C235.675 233.965 235.007 233.665 234.811 233.066L232.542 226.13L232.531 226.097L232.519 226.064L227.961 214.059L227.945 214.017L227.926 213.975L223.985 205.228C223.645 204.473 222.757 204.136 222.001 204.476V204.476C221.246 204.817 220.91 205.705 221.25 206.46L223.708 211.917C224.172 212.946 223.693 214.154 222.65 214.586L208.219 220.559V220.559C207.438 220.882 207.078 221.786 207.423 222.557V222.557L211.243 231.108C211.726 232.188 211.172 233.447 210.05 233.821L206.387 235.043C205.601 235.306 205.177 236.155 205.439 236.941V236.941C205.701 237.727 206.551 238.151 207.337 237.889L214.663 235.445L214.728 235.423L214.791 235.396L228.186 229.52C229.268 229.045 230.523 229.607 230.89 230.73L231.831 233.604C232.155 234.596 231.662 235.672 230.696 236.065C205.052 246.495 178.751 251.237 152.392 251.088C150.799 251.079 149.207 251.052 147.614 251.007C145.96 250.961 145.107 249.03 146.163 247.755C152.351 240.281 159.615 231.243 167.09 221.943L167.092 221.941L167.095 221.936L167.096 221.935L167.097 221.935L167.097 221.934C173.12 214.441 179.279 206.778 185.123 199.625C192.295 190.846 199.008 182.814 204.502 176.684C207.251 173.617 209.657 171.068 211.637 169.157V169.157C212.184 168.629 213.076 168.764 213.448 169.427C217.49 176.623 222.551 187.253 227.254 198.056C233.157 211.614 238.256 224.892 239.948 231.355ZM136.202 248.994V248.994C136.261 249.73 135.647 250.344 134.911 250.281C133.452 250.155 131.993 250.015 130.535 249.86C129.523 249.753 128.76 248.897 128.76 247.88V239.62V239.594L128.759 239.569L128.304 226.199L128.304 226.182L128.303 226.165L127.632 214.256C127.586 213.429 126.877 212.797 126.05 212.843V212.843C125.223 212.89 124.59 213.598 124.637 214.425L125.078 222.252C125.147 223.477 124.106 224.475 122.884 224.355L107.549 222.839V222.839C106.695 222.754 105.944 223.403 105.903 224.26V224.26L105.498 232.776C105.441 233.979 104.341 234.859 103.155 234.651L101.09 234.289C100.274 234.145 99.4967 234.691 99.3536 235.507V235.507C99.2105 236.323 99.7559 237.1 100.572 237.243L106.549 238.292L106.577 238.297L106.604 238.301L124.032 240.691C125.022 240.827 125.76 241.673 125.76 242.672V247.032C125.76 248.237 124.703 249.169 123.509 249.005C101.143 245.933 78.8397 239.533 56.9732 230.247C55.6483 229.685 55.3505 227.946 56.4038 226.965L57.4451 225.995C66.096 217.936 80.3033 205.554 94.7428 194.651C101.963 189.2 109.189 184.158 115.771 180.221C119.701 177.871 123.301 175.976 126.465 174.618C127.585 174.137 128.84 174.82 129.073 176.017C130.905 185.41 132.327 198.308 133.429 211.039C134.319 221.32 134.975 231.131 135.484 238.744C135.762 242.916 135.997 246.427 136.202 248.994ZM41.3671 204.614C41.3671 203.902 40.9884 203.243 40.3728 202.885L30.3199 197.037C28.9866 196.261 27.3142 197.223 27.3142 198.766V203.743C27.3142 204.462 27.7009 205.127 28.3268 205.482L38.3797 211.189C39.713 211.946 41.3671 210.983 41.3671 209.45V204.614ZM38.6768 206.466C38.2726 207.189 37.3587 207.448 36.6356 207.043L31.1364 203.97C30.4133 203.565 30.1548 202.652 30.559 201.928V201.928C30.9632 201.205 31.877 200.947 32.6002 201.351L38.0993 204.425C38.8224 204.829 39.081 205.743 38.6768 206.466V206.466ZM108.725 228.082C108.779 226.938 109.78 226.074 110.919 226.186L123.608 227.441C124.606 227.539 125.376 228.361 125.41 229.363L125.62 235.52C125.662 236.759 124.578 237.738 123.349 237.569L110.184 235.764C109.158 235.623 108.409 234.722 108.458 233.687L108.725 228.082ZM111.307 230.702C111.209 231.525 111.797 232.271 112.619 232.369L121.561 233.432C122.384 233.53 123.13 232.942 123.228 232.119V232.119C123.325 231.297 122.738 230.551 121.915 230.453L112.974 229.39C112.151 229.292 111.405 229.879 111.307 230.702V230.702ZM226.436 218.494C226.036 217.44 224.843 216.925 223.801 217.356L212.691 221.955C211.65 222.386 211.17 223.59 211.63 224.619L214.14 230.236C214.588 231.24 215.762 231.694 216.769 231.252L227.467 226.56C228.442 226.132 228.911 225.014 228.533 224.018L226.436 218.494ZM224.867 222.388C225.16 223.163 224.77 224.029 223.996 224.323L218.044 226.578C217.27 226.872 216.404 226.482 216.11 225.707V225.707C215.816 224.933 216.206 224.067 216.981 223.773L222.932 221.517C223.707 221.224 224.573 221.614 224.867 222.388V222.388Z"
        fill="currentColor"/>
</svg>
