<svg width="244" height="297" viewBox="0 0 244 297" fill="none" xmlns="http://www.w3.org/2000/svg">
  <path fill-rule="evenodd" clip-rule="evenodd"
        d="M54.449 196.011C61.5622 189.86 78.9895 179.986 91.7932 189.698C92.8691 190.514 93.91 191.311 94.9183 192.082C108.908 202.786 116.629 208.694 124.772 196.011C133.502 182.414 123.802 167.36 115.558 164.932C109.01 163.004 102.769 165.669 96.5909 168.308C94.9888 168.992 93.391 169.674 91.7932 170.274C84.0333 173.188 75.3035 170.274 66.5737 164.932C57.8439 159.591 46.6892 128.997 39.8994 104.231C34.4675 84.4186 42.1626 88.8538 46.6891 93.548C47.4974 88.3682 50.1811 80.6309 54.449 91.12C57.3589 85.2927 63.8577 77.1345 66.5737 91.12C69.9686 108.602 83.1649 136.441 109.839 124.301C116.535 121.253 127.396 112.875 130.592 104.231C131.909 100.669 133.288 98.1429 134.627 95.6913C136.536 92.1938 138.363 88.8484 139.807 82.8647C140.507 79.9657 141.792 77.1551 143.05 74.4062C146.208 67.5039 149.188 60.9904 142.263 54.4421C141.479 53.7004 140.488 52.4511 139.24 50.8782C131.28 40.8421 112.866 17.6274 70.9386 28.9623L66.2748 31.2972C79.7809 16.797 94.0697 11.5018 108.512 14.6449C124.571 18.1401 141.497 32.1828 158.237 57.4743C158.846 58.3954 160.087 58.6649 161.014 58.0637C161.941 57.4624 162.202 56.2186 161.593 55.2974C144.645 29.6818 126.958 14.566 109.362 10.7364C93.9425 7.38052 79.1022 12.776 65.5236 26.3218C70.4292 15.3924 81.5974 1.11573 101.008 0.79712C130.592 0.311513 168.906 32.8472 176.666 59.0699C189.909 46.1069 221.517 33.2253 236.32 59.0699C248.303 79.9928 238.444 97.3639 229.631 102.299C221.684 106.75 203.505 105.168 195.06 104.433C194.139 104.353 193.334 104.282 192.671 104.231C186.384 103.747 167.226 117.131 164.056 139.681C162.667 149.569 167.066 156.295 172.485 164.58C179.423 175.187 188.033 188.349 188.306 213.978C188.791 259.626 184.426 285.363 149.992 295.075C115.558 304.787 92.2781 270.794 84.5183 255.741C84.2715 255.262 84.0311 254.795 83.7966 254.339C76.6586 240.475 75.0258 237.303 66.5737 237.773C57.8439 238.259 45.7192 240.201 39.8994 246.514C34.0795 252.827 25.8347 259.626 16.135 246.514C8.37515 236.025 2.55522 208.475 0.615234 196.011C1.90851 191.479 5.65906 185.133 10.315 196.011C12.255 189.698 16.7169 180.18 19.0448 192.612C21.1464 186.946 25.6406 179.015 26.8046 192.612C28.9062 184.033 33.7884 172.022 36.5044 192.612C39.2204 213.202 49.5991 203.457 54.449 196.011ZM228.236 73.6095C228.236 78.5611 224.227 82.5752 219.282 82.5752C214.336 82.5752 210.327 78.5611 210.327 73.6095C210.327 68.6579 214.336 64.6438 219.282 64.6438C224.227 64.6438 228.236 68.6579 228.236 73.6095Z"
        fill="currentColor"/>
  <path
    d="M223.608 72.6849C223.608 76.8015 220.271 80.1388 216.154 80.1388C212.037 80.1388 208.7 76.8015 208.7 72.6849C208.7 68.5682 212.037 65.231 216.154 65.231C220.271 65.231 223.608 68.5682 223.608 72.6849Z"
    fill="currentColor"/>
</svg>
