<svg width="377" height="386" viewBox="0 0 377 386" fill="none" xmlns="http://www.w3.org/2000/svg">
  <path fill-rule="evenodd" clip-rule="evenodd"
        d="M178.266 242.429L172.951 239.679C184.996 169.405 183.973 106.709 145.776 49.2932C143.847 49.6912 142.142 50.0983 140.571 50.4734C129.432 53.1336 125.032 54.1846 95.1914 38.9433C80.8743 43.9443 78.6261 50.8964 85.551 71.1442C149.933 231.941 113.983 288.389 42.8585 385.792L0.726074 385.792C12.0082 307.094 23.3366 249.429 35.6397 186.803L35.6398 186.803L35.6398 186.802C43.57 146.435 51.9053 104.007 60.8941 52.5552C62.3804 44.048 65.5902 35.9323 70.3558 28.7303C88.0796 1.94555 123.265 -6.96827 151.604 8.14724L169.05 17.4527L150.925 41.1868C149.019 43.6819 149.035 47.1562 150.86 49.7107C188.87 102.912 191.879 160.554 178.266 242.429ZM123.367 25.667C123.367 29.4591 120.297 32.5332 116.51 32.5332C112.723 32.5332 109.653 29.4591 109.653 25.667C109.653 21.8749 112.723 18.8008 116.51 18.8008C120.297 18.8008 123.367 21.8749 123.367 25.667ZM277.473 385.791L271.826 385.791L270.771 381.222L270.771 381.221C244.194 266.141 229.626 203.062 268.699 147.159C270.497 144.586 270.509 141.127 268.604 138.632L256.59 122.9L269.041 116.259C289.267 105.471 314.38 111.833 327.03 130.949C330.431 136.09 332.722 141.882 333.783 147.954C340.198 184.675 346.147 214.956 351.807 243.766L351.807 243.768L351.807 243.769C360.588 288.467 368.674 329.623 376.726 385.792L346.655 385.791C295.891 316.273 270.233 275.985 316.184 161.221C321.127 146.77 319.522 141.808 309.304 138.239C288.006 149.117 284.865 148.367 276.915 146.468L276.914 146.468C275.793 146.2 274.577 145.91 273.201 145.626C233.539 205.241 250.032 272.832 269.703 353.45C272.278 364.003 274.908 374.78 277.473 385.791ZM289.194 128.763C289.194 131.469 291.385 133.663 294.088 133.663C296.791 133.663 298.982 131.469 298.982 128.763C298.982 126.056 296.791 123.862 294.088 123.862C291.385 123.862 289.194 126.056 289.194 128.763ZM171.3 385.791L168.306 385.791C169.666 379.953 171.06 374.24 172.425 368.645C182.855 325.902 191.599 290.066 170.571 258.458C169.842 258.609 169.197 258.763 168.603 258.905L168.602 258.905C164.387 259.911 162.722 260.309 151.43 254.542C146.012 256.434 145.161 259.065 147.782 266.727C172.144 327.573 158.541 348.934 131.627 385.791L115.683 385.791C119.952 356.011 124.239 334.191 128.895 310.492C131.896 295.217 135.05 279.162 138.451 259.692C139.014 256.473 140.228 253.402 142.032 250.677C148.738 240.541 162.053 237.168 172.777 242.888L179.378 246.409L174.523 252.767C172.617 255.262 172.643 258.709 174.355 261.341C193.312 290.477 185.623 323.77 171.859 383.368L171.3 385.791ZM159.497 252.116C160.93 252.116 162.092 250.953 162.092 249.518C162.092 248.083 160.93 246.919 159.497 246.919C158.064 246.919 156.902 248.083 156.902 249.518C156.902 250.953 158.064 252.116 159.497 252.116Z"
        fill="currentColor"/>
</svg>
