<svg width="957" height="1555" viewBox="0 0 957 1555" fill="none" xmlns="http://www.w3.org/2000/svg">
<path d="M542.217 41.3811C541.261 42.6034 539.675 43.1648 538.18 42.7517C529.346 40.3114 525.025 36.8769 522.372 32.4186C519.105 26.929 517.482 18.5486 516.915 4.56497C516.825 2.35764 514.995 0.607915 512.786 0.663336L504.157 0.879889C501.948 0.93531 500.199 2.772 500.284 4.9795C500.746 16.952 501.988 27.2994 505.504 35.7659C506.373 37.8586 505.599 40.3768 503.455 41.1087C502.803 41.3311 502.159 41.5257 501.517 41.6977C498.309 42.5567 494.831 42.9422 490.12 43.1126C487.912 43.1925 486.145 44.998 486.175 47.207L486.295 55.8382C486.325 58.0472 488.141 59.8219 490.349 59.7482C495.805 59.5663 500.834 59.0988 505.82 57.7635C509.495 56.7792 512.981 55.3717 516.535 53.4467C517.897 52.709 519.552 52.7587 520.889 53.5405C521.81 54.079 522.761 54.5874 523.743 55.0676C526.271 56.3039 527.146 59.6194 525.264 61.711C519.113 68.5472 513.239 74.43 507.601 79.3887C491.03 93.9616 477.425 99.7285 465.473 99.4294C453.61 99.1325 441.231 92.7989 427.207 78.1905C424.491 75.3606 421.745 72.2533 418.961 68.8668C417.294 66.838 418.084 63.8033 420.433 62.6304C424.547 60.5771 428.178 58.3074 431.335 55.7243C432.527 54.7488 434.148 54.4452 435.586 54.9957C439.131 56.3522 442.439 57.4355 445.974 58.2159C450.468 59.2081 455.086 59.6609 460.833 59.7926C463.042 59.8431 464.834 58.0443 464.834 55.8351V47.203C464.834 44.9939 463.041 43.2127 460.832 43.1552C455.964 43.0282 452.599 42.6461 449.559 41.9749C448.721 41.7899 447.891 41.5795 447.043 41.3377C444.85 40.7129 443.811 38.2789 444.489 36.1026C446.387 30.0081 447.171 23.3032 447.45 16.0239C447.534 13.8163 445.764 11.9973 443.555 11.9631L434.924 11.8296C432.715 11.7955 430.905 13.5625 430.812 15.7697C430.357 26.6157 428.714 33.1715 425.345 38.0108C422.413 42.2223 417.532 46.0271 408.54 49.7801C406.835 50.4914 404.879 49.8722 403.85 48.3389C397.388 38.7143 390.682 27.7241 383.648 15.3489C382.556 13.4284 380.118 12.7422 378.192 13.8241L370.666 18.0515C368.74 19.1333 368.056 21.5753 369.147 23.4961C385.265 51.8607 400.294 74.1717 415.209 89.7088C430.742 105.889 447.013 115.605 465.057 116.056C483.011 116.506 500.57 107.72 518.584 91.8783C536.004 76.5597 554.732 53.869 575.721 23.9661C576.99 22.1579 576.543 19.6627 574.729 18.4016L567.641 13.4739C565.828 12.2129 563.336 12.6617 562.066 14.4698C555.141 24.3343 548.537 33.2965 542.217 41.3811Z" fill="currentColor"/>
<path d="M382.488 165.339C380.973 166.946 381.05 169.482 382.669 170.984C415.812 201.736 443.959 219.551 473.586 219.873C503.323 220.196 531.906 202.893 565.888 170.965C567.498 169.452 567.558 166.916 566.032 165.318L560.07 159.076C558.544 157.478 556.009 157.426 554.399 158.938C521.031 190.263 496.643 203.491 473.767 203.242C450.826 202.993 426.764 189.183 394.076 158.878C392.456 157.376 389.922 157.448 388.408 159.056L382.488 165.339Z" fill="currentColor"/>
<path d="M374.643 102.312C373.252 101.219 372.779 99.3381 373.279 97.6414C374.027 95.1077 374.419 92.4957 374.373 89.7382C374.286 84.6284 372.688 79.7715 370.414 74.8616C369.485 72.8571 367.058 72.0919 365.094 73.1038L356.191 77.6918C354.906 78.3537 354.409 79.9291 355.029 81.2341C356.254 83.8102 356.979 85.7619 357.368 87.3437C357.438 87.6293 357.107 87.822 356.885 87.6297V87.6297C356.755 87.5174 356.558 87.5316 356.446 87.6614L346.332 99.3387C346.016 99.703 346.057 100.256 346.422 100.571V100.571C346.937 101.015 346.765 101.844 346.102 101.997C345.431 102.151 344.786 102.253 344.155 102.315C341.485 102.579 338.372 102.191 333.805 100.803C331.692 100.16 329.406 101.225 328.662 103.305L325.757 111.434C325.013 113.514 326.093 115.816 328.201 116.48C334.225 118.377 339.935 119.444 345.786 118.867C350.521 118.401 354.883 116.91 359.225 114.601C360.699 113.817 362.514 113.931 363.825 114.965C403.518 146.243 437.856 161.961 473.514 161.353C508.873 160.749 543.896 144.085 585.046 114.542C586.191 113.72 587.687 113.557 588.998 114.076C592.538 115.477 596.115 116.551 600.013 117.154C605.605 118.019 611.425 117.851 618.332 116.803C620.517 116.472 621.948 114.373 621.543 112.201L619.962 103.715C619.558 101.543 617.47 100.124 615.283 100.441C610.581 101.122 607.057 101.218 604.045 100.909C603.814 100.885 603.734 100.593 603.918 100.451V100.451C604.032 100.363 604.053 100.199 603.965 100.085L594.936 88.4067C594.392 87.7035 593.374 87.5798 592.669 88.1221V88.1221C591.661 88.8982 590.227 88.2396 590.241 86.9674C590.265 84.7833 590.493 82.5248 590.835 79.9738C591.128 77.7842 589.632 75.7504 587.447 75.4247L578.909 74.1523C576.724 73.8266 574.679 75.3328 574.381 77.5218C573.482 84.1476 573.053 90.4504 574.862 98.1066C575.253 99.7612 574.659 101.523 573.273 102.507C534.086 130.346 503.069 144.214 473.23 144.723C443.178 145.236 412.694 132.193 374.643 102.312Z" fill="currentColor"/>
<path fill-rule="evenodd" clip-rule="evenodd" d="M618.821 174.287C618.777 180.259 619.744 186.064 621.596 192.296C622.083 193.936 621.537 195.722 620.165 196.745C606.966 206.592 594.422 214.624 581.94 221.205C579.382 222.554 576.334 220.749 576.344 217.858C576.366 211.707 576.869 206.242 577.869 200.948C579.558 192.007 582.738 183.165 587.948 171.991C588.882 169.989 588.051 167.599 586.062 166.639L578.288 162.886C576.298 161.926 573.904 162.759 572.968 164.761C567.39 176.698 563.578 186.998 561.526 197.861C559.726 207.389 559.336 217.047 560.044 228.292C560.153 230.04 559.143 231.675 557.508 232.302C533.425 241.529 507.817 246.481 476.492 249.239L466.025 249.321C434.065 246.601 408.076 241.656 383.659 232.306C382.024 231.679 381.014 230.044 381.124 228.296C381.827 217.093 381.438 207.468 379.644 197.972C377.598 187.142 373.798 176.872 368.238 164.974C367.303 162.972 364.908 162.139 362.919 163.099L355.145 166.851C353.155 167.812 352.325 170.202 353.258 172.204C358.449 183.339 361.618 192.15 363.301 201.059C364.295 206.32 364.796 211.75 364.82 217.859C364.832 220.751 361.783 222.556 359.226 221.206C346.805 214.654 334.322 206.661 321.189 196.865C319.818 195.842 319.271 194.056 319.758 192.416C321.601 186.208 322.563 180.424 322.519 174.473C322.463 166.93 320.79 159.653 318.002 151.491C317.288 149.4 314.981 148.34 312.908 149.103L304.807 152.086C302.734 152.849 301.682 155.148 302.389 157.241C304.776 164.306 305.85 169.584 305.888 174.597C305.895 175.584 305.862 176.581 305.786 177.599C305.563 180.563 302.095 181.761 299.823 179.844C289.942 171.508 279.581 162.177 268.532 151.722C266.928 150.204 264.396 150.263 262.871 151.862L256.914 158.109C255.389 159.708 255.45 162.241 257.054 163.759C265.994 172.22 274.545 180.009 282.811 187.179C285.496 189.507 284.081 193.819 280.527 193.778C272.517 193.687 263.771 192.654 252.431 190.874C250.249 190.531 248.189 192.008 247.834 194.188L246.446 202.708C246.09 204.888 247.576 206.947 249.758 207.29C272.506 210.867 286.982 211.827 305.632 207.762C306.798 207.508 308.02 207.769 308.972 208.489C320.054 216.876 330.788 224.118 341.475 230.362C344.571 232.171 344.036 236.833 340.547 237.66C311.105 244.639 282.867 244.029 239.036 241.446C236.831 241.316 234.928 242.995 234.795 245.2L234.276 253.816C234.143 256.022 235.833 257.918 238.038 258.048C287.486 260.966 319.328 261.57 355.811 250.794C357.964 250.158 360.239 251.378 360.9 253.524C368.143 277.041 377.527 294.295 391.791 306.336C406.665 318.891 425.84 324.925 450.551 327.809C452.623 328.051 454.192 329.82 454.144 331.906L452.671 396.916C452.621 399.128 450.782 400.881 448.571 400.809C423.347 399.991 400.483 397.446 378.757 392.79C376.679 392.345 375.341 390.334 375.668 388.235C377.716 375.085 378.36 364.178 377.484 353.773C376.501 342.107 373.639 331.479 369.206 319.43C368.443 317.357 366.125 316.329 364.063 317.121L356.005 320.217C353.943 321.01 352.918 323.324 353.679 325.398C357.759 336.524 360.101 345.557 360.91 355.169C361.598 363.336 361.204 372.208 359.573 383.423C359.229 385.786 356.871 387.283 354.584 386.598C342.204 382.89 330.059 378.402 317.898 373.056C314.614 371.612 311.326 370.104 308.031 368.531C306.576 367.837 305.693 366.329 305.779 364.72C307.08 340.295 307.191 323.557 305.586 296.468C305.456 294.263 303.554 292.579 301.349 292.718L292.734 293.261C290.53 293.4 288.856 295.307 288.987 297.512C290.29 319.528 290.431 334.409 289.7 352.629C289.582 355.578 286.408 357.36 283.838 355.908C270.733 348.502 257.325 340.037 243.329 330.401C242.111 329.563 241.467 328.118 241.605 326.646C242.312 319.084 242.072 311.974 240.746 304.574C238.951 294.562 235.23 284.391 229.773 272.253C228.867 270.238 226.487 269.364 224.481 270.291L216.646 273.913C214.641 274.839 213.769 277.215 214.674 279.231C219.862 290.789 222.933 299.468 224.374 307.508C224.502 308.219 224.617 308.928 224.72 309.636C225.194 312.902 221.548 314.836 218.902 312.863C202.405 300.568 184.972 286.734 166.203 271.209C164.501 269.801 161.978 270.032 160.566 271.732L155.051 278.372C153.64 280.072 153.874 282.595 155.577 284.003C174.062 299.296 191.371 313.052 207.864 325.381C210.752 327.539 209.565 332.075 205.974 332.393C188.703 333.919 169.831 333.701 142.76 333.253C140.551 333.217 138.724 334.977 138.687 337.186L138.475 349.816C138.475 349.816 138.475 349.816 138.476 349.816V349.816C179.943 350.511 205.201 350.934 233.297 345.219L233.355 345.207C234.417 344.991 235.52 345.216 236.415 345.826C248.796 354.268 260.802 361.859 272.612 368.651C275.402 370.256 275.301 374.32 272.36 375.629C237.156 391.289 197.95 393.841 129.494 394.172C127.285 394.182 125.476 395.979 125.484 398.189L125.515 406.821C125.523 409.03 127.346 410.814 129.555 410.804C207.527 410.434 251.59 407.368 295.241 382.685C296.351 382.057 297.69 381.973 298.859 382.483C309.427 387.095 327.989 394.928 340.636 399.5C343.604 400.572 344.376 404.504 341.892 406.45C329.246 416.359 316.518 423.328 302.819 427.394C275.39 435.536 242.614 437.665 201.703 437.79C199.494 437.797 197.703 439.587 197.703 441.796V450.428C197.703 452.638 199.495 454.429 201.704 454.423C239.497 454.31 271.957 452.53 300.124 445.38C301.568 445.014 303.107 445.47 304.122 446.56C341.939 487.16 378.335 504.17 406.131 510.756C418.583 513.707 435.807 513.999 445.788 513.824C448.09 513.784 449.98 515.653 449.928 517.955L448.595 576.791C448.543 579.076 446.589 580.855 444.31 580.675C441.168 580.426 438.019 580.152 434.864 579.851C432.98 579.672 431.495 578.186 431.252 576.31C429.731 564.565 426.841 554.157 420.937 543.98C413.862 531.785 402.845 520.585 386.249 507.712C384.503 506.358 381.991 506.706 380.658 508.468L375.449 515.351C374.115 517.113 374.465 519.619 376.21 520.975C391.962 533.213 401.035 542.819 406.55 552.326C410.12 558.479 412.364 564.872 413.803 572.42C414.296 575.008 412.07 577.249 409.46 576.889C391.31 574.392 372.897 571.054 354.116 566.874C352.392 566.49 351.131 565.015 351 563.254C349.844 547.778 347.738 530.933 340.587 518.605C333.512 506.411 322.495 495.211 305.899 482.338C304.153 480.984 301.641 481.332 300.308 483.094L295.098 489.977C293.765 491.738 294.115 494.245 295.86 495.6C311.612 507.838 320.685 517.444 326.2 526.952C330.728 534.755 330.995 544.988 331.708 556.02C331.885 558.769 329.335 560.932 326.669 560.238C300.31 553.371 273.16 544.912 244.952 534.86C243.147 534.217 242.065 532.381 242.308 530.481C243.997 517.271 243.474 503.866 240.08 481.907C239.743 479.724 237.685 478.236 235.504 478.59L226.984 479.973C224.803 480.327 223.325 482.384 223.662 484.567C226.319 501.784 227.058 512.932 226.363 522.825C226.182 525.408 223.543 527.006 221.122 526.087C203.706 519.477 185.876 512.284 167.573 504.51C166.49 504.05 165.667 503.135 165.311 502.013C162.166 492.077 158.754 483.472 153.769 474.884C148.288 465.442 141.091 456.336 130.748 445.545C129.22 443.95 126.683 443.927 125.107 445.475L118.948 451.524C117.372 453.072 117.351 455.599 118.826 457.244C125.908 465.141 133.217 475.752 138.651 484.278C140.733 487.544 137.361 491.351 133.827 489.766C111.143 479.59 87.7238 468.576 63.4681 456.723C61.4833 455.753 59.086 456.572 58.1134 458.556L54.3127 466.306C53.3401 468.289 54.1602 470.687 56.1451 471.656C81.9959 484.289 106.95 495.999 131.126 506.779C134.342 508.213 134.258 512.739 130.92 513.86C107.005 521.894 81.9284 522.665 41.3903 520.865C39.1834 520.767 37.3046 522.47 37.2004 524.677L36.7932 533.3C36.689 535.506 38.406 537.381 40.613 537.479C93.1499 539.818 123.254 538.107 158.344 520.249C159.41 519.706 160.67 519.651 161.772 520.119C180.033 527.865 197.858 535.05 215.3 541.669C217.958 542.678 218.753 546.053 216.706 548.025C197.49 566.539 172.675 575.797 140.461 580.704C112.743 584.927 80.5132 585.82 42.6037 586.87C30.569 587.203 17.9614 587.552 4.74452 588.029C2.53682 588.109 0.814597 589.966 0.897895 592.174L1.22338 600.8C1.30668 603.007 3.16383 604.729 5.37154 604.649C18.0384 604.194 30.281 603.855 42.0894 603.529C68.0745 602.908 124.646 600.762 142.966 597.147C181.041 591.347 212.187 579.332 235.783 552.042C236.885 550.768 238.655 550.275 240.243 550.839C263.783 559.206 286.651 566.497 308.991 572.702C312.209 573.596 313.001 577.757 310.22 579.607C261.71 611.87 177.9 629.269 100.728 633.299C98.5221 633.414 96.8222 635.284 96.9246 637.491L97.3246 646.114C97.427 648.321 99.3111 650.027 101.517 649.914C195.886 645.092 273.121 625.318 327.523 587.7C330.102 585.635 332.662 583.5 335.204 581.292C336.19 580.436 337.527 580.104 338.796 580.407C346.866 582.333 354.874 584.112 362.826 585.742C374.567 588.149 386.187 590.232 397.71 591.989C401.054 592.499 402.336 596.656 399.801 598.896C378.185 618.002 354.058 635.731 331.919 646.977C302.446 661.949 268.59 672.635 222.383 683.537C220.233 684.044 218.89 686.195 219.391 688.346L221.348 696.754C221.849 698.905 224.003 700.243 226.154 699.736C272.875 688.716 308.237 677.663 339.452 661.806C369.479 646.552 397.542 624.846 425.991 597.131C426.845 596.299 428.027 595.885 429.214 596.006C434.263 596.521 439.298 596.972 444.319 597.358C446.448 597.521 448.084 599.316 448.036 601.451L426.526 1550.58C426.475 1552.83 428.281 1554.67 430.525 1554.67H527.12C529.383 1554.67 531.195 1552.8 531.118 1550.53L498.651 602.236C498.576 600.055 500.263 598.219 502.441 598.091C511.047 597.588 519.687 596.892 528.371 596.006C529.566 595.884 530.758 596.306 531.614 597.15C560.851 625.983 587.234 646.143 618.019 661.805C649.189 677.662 684.498 688.715 731.148 699.735C733.298 700.243 735.453 698.906 735.954 696.754L737.914 688.348C738.415 686.196 737.074 684.045 734.924 683.537C688.789 672.636 654.987 661.951 625.561 646.981C601.618 634.8 580.325 619.654 557.57 598.88C555.093 596.619 556.391 592.515 559.706 592.009C579.05 589.059 598.668 585.189 618.672 580.407C619.943 580.103 621.29 580.444 622.276 581.301C681.246 632.569 749.341 644.767 855.591 649.92C857.798 650.027 859.698 648.322 859.8 646.115L860.201 637.492C860.303 635.285 858.569 633.412 856.363 633.305C759.539 628.604 698.322 618.066 646.772 579.699C644.142 577.742 644.978 573.662 648.137 572.785C670.539 566.562 693.471 559.244 717.08 550.841C718.669 550.275 720.441 550.769 721.543 552.046C745.106 579.332 776.207 591.348 814.227 597.148C843.007 601.538 876.69 602.471 914.932 603.529C926.729 603.856 938.959 604.194 951.613 604.65C953.821 604.73 955.678 603.008 955.762 600.8L956.088 592.175C956.171 589.967 954.449 588.109 952.241 588.03C939.045 587.553 926.459 587.204 914.443 586.871C876.59 585.82 844.41 584.928 816.735 580.706C784.565 575.798 759.787 566.538 740.599 548.017C738.555 546.044 739.351 542.673 742.005 541.664C759.415 535.047 777.206 527.865 795.433 520.122C796.536 519.654 797.798 519.709 798.865 520.253C833.902 538.107 863.965 539.819 916.417 537.48C918.624 537.382 920.34 535.507 920.236 533.301L919.828 524.678C919.724 522.471 917.845 520.768 915.638 520.866C875.16 522.666 850.124 521.894 826.247 513.859C822.911 512.737 822.828 508.215 826.041 506.78C850.184 495.998 875.104 484.287 900.92 471.653C902.904 470.682 903.723 468.284 902.749 466.301L898.944 458.553C897.97 456.57 895.572 455.753 893.588 456.724C868.63 468.938 844.56 480.261 821.265 490.694C817.973 492.169 814.701 488.909 816.411 485.733C816.863 484.895 817.328 484.061 817.81 483.23C822.384 475.339 828.593 467.336 838.28 457.199C839.806 455.602 839.786 453.07 838.209 451.523L832.046 445.478C830.469 443.932 827.932 443.956 826.405 445.552C816.078 456.343 808.893 465.448 803.42 474.89C798.443 483.476 795.037 492.079 791.897 502.013C791.542 503.135 790.719 504.051 789.637 504.511C771.376 512.279 753.587 519.465 736.211 526.071C733.79 526.992 731.149 525.393 730.968 522.809C730.277 512.919 731.015 501.773 733.667 484.566C734.003 482.383 732.525 480.327 730.344 479.973L721.823 478.592C719.642 478.238 717.585 479.727 717.248 481.91C713.86 503.868 713.337 517.272 715.024 530.48C715.266 532.379 714.185 534.214 712.381 534.857C684.222 544.906 657.121 553.364 630.807 560.23C628.142 560.925 625.59 558.762 625.768 556.013C626.482 544.98 626.757 534.753 631.279 526.948C636.786 517.441 645.843 507.836 661.57 495.6C663.313 494.243 663.662 491.736 662.327 489.976L657.113 483.096C655.778 481.336 653.266 480.989 651.522 482.344C634.951 495.217 623.951 506.417 616.887 518.611C609.746 530.937 607.644 547.778 606.49 563.252C606.359 565.013 605.099 566.488 603.375 566.872C584.633 571.049 566.258 574.386 548.146 576.883C545.536 577.243 543.309 575.002 543.802 572.414C545.239 564.867 547.48 558.474 551.044 552.322C556.551 542.815 565.608 533.211 581.335 520.974C583.078 519.618 583.427 517.111 582.092 515.35L576.878 508.471C575.543 506.71 573.031 506.363 571.287 507.719C554.716 520.592 543.716 531.791 536.652 543.985C530.757 554.161 527.872 564.565 526.354 576.307C526.111 578.184 524.626 579.67 522.742 579.849C515.802 580.511 508.894 581.047 502.013 581.456C499.78 581.588 497.884 579.848 497.807 577.612L495.867 520.935C495.79 518.683 497.58 516.805 499.833 516.74C507.225 516.529 523.023 515.784 534.001 513.183C562.395 506.455 599.6 489.065 638.26 447.518C639.276 446.427 640.817 445.97 642.262 446.338C671.079 453.676 704.308 455.499 743.033 455.612C745.242 455.618 747.033 453.827 747.033 451.618V442.985C747.033 440.776 745.242 438.986 743.033 438.98C701.183 438.854 667.64 436.682 639.564 428.348C625.398 424.143 612.249 416.906 599.182 406.605C596.705 404.653 597.501 400.766 600.495 399.776C610.714 396.397 620.837 392.5 630.978 388.041C635.198 386.186 639.418 384.235 643.646 382.185C644.849 381.602 646.268 381.656 647.431 382.314C692.016 407.532 737.017 410.662 816.765 411.038C818.974 411.048 820.798 409.263 820.806 407.054L820.837 398.422C820.845 396.213 819.035 394.416 816.826 394.405C746.507 394.067 706.345 391.444 670.191 375.226C667.256 373.909 667.161 369.848 669.951 368.247C682.189 361.226 694.631 353.366 707.468 344.609C708.363 343.999 709.467 343.774 710.529 343.99L710.695 344.024C738.473 349.673 763.519 349.449 803.553 348.785C805.762 348.748 807.523 346.927 807.486 344.718L807.342 336.087C807.305 333.879 805.478 332.118 803.269 332.155C775.197 332.62 755.74 332.844 737.87 331.214C734.283 330.886 733.105 326.352 735.992 324.198C753.029 311.481 770.916 297.271 790.037 281.451C791.739 280.043 791.974 277.519 790.563 275.82L785.047 269.18C783.636 267.48 781.113 267.248 779.411 268.657C760.019 284.699 742.02 298.976 724.995 311.649C722.356 313.613 718.715 311.697 719.156 308.437C719.282 307.504 719.429 306.57 719.597 305.633C721.077 297.378 724.234 288.471 729.56 276.614C730.465 274.598 729.594 272.222 727.589 271.295L719.753 267.673C717.748 266.746 715.367 267.621 714.461 269.635C708.867 282.068 705.06 292.468 703.226 302.699C701.865 310.295 701.625 317.592 702.365 325.364C702.506 326.837 701.862 328.284 700.643 329.124C686.154 339.102 672.282 347.856 658.723 355.5C656.154 356.949 652.982 355.169 652.862 352.222C652.094 333.37 652.23 318.08 653.578 295.348C653.709 293.143 652.036 291.236 649.831 291.097L641.216 290.554C639.011 290.415 637.11 292.099 636.979 294.304C635.33 322.097 635.447 339.222 636.787 364.301C636.873 365.91 635.99 367.417 634.537 368.112C631.112 369.748 627.696 371.315 624.284 372.816C611.752 378.326 599.235 382.944 586.474 386.752C584.187 387.435 581.832 385.939 581.485 383.579C579.779 371.961 579.361 362.792 580.072 354.352C580.903 344.483 583.311 335.215 587.503 323.796C588.265 321.722 587.24 319.409 585.178 318.617L577.12 315.521C575.058 314.728 572.74 315.757 571.976 317.83C567.433 330.166 564.503 341.031 563.498 352.956C562.599 363.636 563.27 374.841 565.392 388.382C565.721 390.481 564.384 392.493 562.307 392.94C541.486 397.418 519.649 399.998 495.766 401.003C493.558 401.096 491.705 399.365 491.629 397.157L489.394 331.872C489.323 329.785 490.874 327.997 492.946 327.732C516.494 324.724 534.907 318.664 549.301 306.514C563.608 294.438 573.02 277.128 580.285 253.529C580.945 251.383 583.22 250.162 585.374 250.799C621.978 261.618 653.918 261.012 703.535 258.084C705.74 257.954 707.43 256.058 707.297 253.852L706.778 245.236C706.645 243.031 704.742 241.352 702.537 241.482C658.523 244.076 630.184 244.688 600.616 237.663C597.127 236.834 596.594 232.173 599.69 230.365C610.438 224.089 621.232 216.809 632.379 208.372C633.33 207.652 634.552 207.391 635.718 207.645C654.433 211.727 668.952 210.765 691.78 207.174C693.962 206.831 695.448 204.773 695.093 202.592L693.704 194.073C693.349 191.892 691.289 190.415 689.107 190.758C677.679 192.553 668.876 193.591 660.81 193.674C657.257 193.711 655.845 189.4 658.529 187.073C666.844 179.863 675.446 172.028 684.44 163.516C686.045 161.997 686.105 159.464 684.581 157.865L678.623 151.618C677.099 150.019 674.567 149.961 672.962 151.479C661.861 161.984 651.452 171.358 641.526 179.73C639.255 181.645 635.788 180.45 635.56 177.487C635.48 176.443 635.446 175.422 635.453 174.411C635.491 169.377 636.57 164.078 638.967 156.984C639.675 154.891 638.622 152.593 636.549 151.83L628.449 148.847C626.376 148.083 624.069 149.143 623.355 151.234C620.557 159.423 618.878 166.722 618.821 174.287ZM538.573 293.805C527.937 302.782 513.727 308.07 493.009 310.942C490.691 311.264 488.628 309.489 488.548 307.15L487.229 268.646C487.157 266.548 488.722 264.753 490.808 264.517C515.115 261.756 536.588 257.359 557.084 250.171C560.231 249.067 563.355 251.987 562.264 255.139C555.93 273.421 548.404 285.506 538.573 293.805ZM451.981 264.669C454.055 264.896 455.623 266.667 455.576 268.753L454.705 307.173C454.652 309.515 452.604 311.314 450.28 311.019C428.346 308.233 413.515 302.908 402.519 293.626C392.733 285.366 385.237 273.339 378.928 255.15C377.835 251.999 380.958 249.079 384.106 250.181C405.043 257.517 427.005 261.933 451.981 264.669ZM446.648 496.93C448.764 496.876 450.445 495.161 450.493 493.045L452.113 421.542C452.163 419.337 450.417 417.509 448.212 417.438C419.524 416.517 393.541 413.424 368.694 407.574C367.377 407.264 365.992 407.632 364.999 408.551C352.256 420.349 339.22 429.816 325.142 436.551C322.607 437.764 321.93 441.127 323.925 443.106C356.707 475.642 387.231 489.185 409.966 494.572C421.015 497.19 437.634 497.158 446.648 496.93ZM496.333 417.626C494.126 417.718 492.396 419.567 492.472 421.775L495.026 496.386C495.098 498.484 496.776 500.173 498.875 500.187C506.783 500.239 518.963 499.654 530.166 496.999C553.496 491.471 584.826 477.553 618.454 444.084C620.447 442.1 619.764 438.735 617.223 437.529C602.69 430.629 589.245 420.876 576.097 408.691C575.104 407.771 573.718 407.402 572.401 407.713C548.518 413.346 523.608 416.485 496.333 417.626Z" fill="currentColor"/>
</svg>
