<svg width="257" height="332" viewBox="0 0 257 332" fill="none" xmlns="http://www.w3.org/2000/svg">
  <path fill-rule="evenodd" clip-rule="evenodd"
        d="M89.105 72.8435C74.7321 53.0821 70.4883 39.7767 72.6946 12.1342C72.8034 10.7706 73.2224 9.44279 73.9027 8.25612C76.7523 3.2863 83.329 1.96742 87.8744 5.4543L90.1788 7.22206L92.4044 4.4737C98.4771 -3.02535 110.591 1.83401 109.798 11.4509C109.706 12.5574 109.422 13.6511 108.971 14.6656C97.6571 40.1097 94.6108 51.7697 89.423 71.6268L89.105 72.8435ZM74.1333 79.9236C58.8696 76.1378 46.8259 68.7657 22.2348 49.0916C19.8161 47.1566 18.5388 44.1172 18.8395 41.0343L19.0508 38.8681C19.3913 35.3778 22.3253 32.716 25.8321 32.716C28.9482 32.716 31.6671 30.6021 32.4353 27.5823L34.252 20.4411C35.173 16.8204 38.433 14.2859 42.1691 14.2859C45.2197 14.2859 48.0228 15.9937 49.4193 18.706C63.015 45.1133 69.504 59.8027 74.1333 79.9236ZM24.9085 116.947C42.0151 111.886 52.6303 107.494 67.499 98.5386C47.5427 79.2435 34.0541 68.8542 16.9295 61.6676C12.0628 59.6253 6.50347 61.2821 3.18613 65.3871C-0.550303 70.0106 -0.533617 76.6204 3.22611 81.225L10.053 89.5861L7.95337 92.4441C3.07409 99.0856 4.12248 108.363 10.3609 113.748C14.3631 117.202 19.8386 118.447 24.9085 116.947ZM51.0461 160.421C52.3143 141.898 57.8883 132.682 68.2797 119.179C40.9103 117.253 26.2045 122.265 12.2267 135.246C9.78263 137.516 8.51346 140.757 8.51346 144.093C8.51346 150.134 12.7211 155.359 18.623 156.648L28.5539 158.816L32.2807 165.361C34.0341 168.44 37.3052 170.342 40.8489 170.342C46.3171 170.342 50.6726 165.876 51.0461 160.421ZM87.1319 107.422C87.1319 111.686 83.6754 115.143 79.4116 115.143C75.1478 115.143 71.6913 111.686 71.6913 107.422C71.6913 103.159 75.1478 99.7021 79.4116 99.7021C83.6754 99.7021 87.1319 103.159 87.1319 107.422ZM88.3421 94.1225C91.2189 94.1225 93.5509 91.7904 93.5509 88.9136C93.5509 86.0369 91.2189 83.7048 88.3421 83.7048C85.4653 83.7048 83.1332 86.0369 83.1332 88.9136C83.1332 91.7904 85.4653 94.1225 88.3421 94.1225ZM105.084 103.609C105.084 106.486 102.752 108.818 99.8754 108.818C96.9986 108.818 94.6665 106.486 94.6665 103.609C94.6665 100.733 96.9986 98.4006 99.8754 98.4006C102.752 98.4006 105.084 100.733 105.084 103.609ZM136.029 5.63868C110.984 29.1114 105.147 46.3805 98.6519 78.3324C114.661 60.0161 126.595 49.7186 157.232 33.8533C159.859 32.4926 161.861 30.1449 162.746 27.321C164.83 20.6634 160.255 13.7763 153.309 13.1183L150.152 12.8192L149.9 10.7389C149.293 5.72993 144.397 2.41451 139.52 3.70993C138.22 4.05545 137.011 4.7184 136.029 5.63868ZM112.411 86.3488C123.578 67.1304 134.083 57.0693 160.768 45.693C166.073 43.4315 172.16 44.2153 176.867 47.5471C184.253 52.7757 186.306 62.8427 181.559 70.5466L180.71 71.9243C178.741 75.1183 175.866 77.6533 172.45 79.2058L165.692 82.2775C163.473 83.2863 161.175 84.1294 158.796 84.6605C146.823 87.3333 137.082 87.0276 124.856 86.644L124.856 86.644C121.003 86.5231 116.904 86.3945 112.411 86.3488ZM163.828 104.169C151.532 95.0174 140.549 91.752 113.34 99.8299C130.532 110.769 139.603 117.703 149.061 127.958C151.949 131.09 156.246 132.575 160.407 131.663C165.32 130.586 168.968 126.45 169.424 121.441L169.736 118.002C170.22 112.677 168.118 107.362 163.828 104.169ZM92.8744 118.518C74.8709 127.363 67.1628 134.933 62.1629 155.024C61.7829 156.551 61.6128 158.127 61.6128 159.7V166.94C61.6128 172.735 65.7014 177.725 71.3832 178.865C78.7154 180.336 85.5935 174.899 85.808 167.423C86.3138 149.798 86.9056 135.747 92.8744 118.518ZM95.7811 161.546C94.2969 139.765 96.1066 127.591 114.061 114.599C130.547 123.586 138.188 129.8 144.837 139.139C147.426 142.775 147.58 147.558 145.64 151.578C142.875 157.309 136.343 160.387 130.496 157.876C126.057 155.97 121.572 153.56 115.495 150.149L112.895 162.618C111.724 168.237 105.517 171.191 100.418 168.556C97.7589 167.181 95.9846 164.531 95.7811 161.546ZM132.908 210.163L99.7764 192.941C98.0528 192.045 98.4894 189.466 100.412 189.187L120.799 186.23C121.691 186.101 122.387 185.391 122.497 184.496L124.224 170.527C124.416 168.971 126.243 168.231 127.464 169.215L137.556 177.349C138.374 178.008 139.561 177.923 140.276 177.155L150.023 166.68C151.085 165.54 152.987 166.41 152.817 167.959L149.146 201.477C148.701 205.534 146.077 209.025 142.303 210.58C139.263 211.831 135.825 211.679 132.908 210.163ZM43.5106 209.109C60.6751 196.561 72.0534 195.255 98.3172 212.419C77.6416 221.133 67.7614 229.554 56.3343 245.596C55.1131 247.31 52.3268 246.283 52.5699 244.192L54.918 223.998C55.087 222.545 53.686 221.409 52.2997 221.877C40.6923 225.795 32.937 228.805 24.0044 232.597C21.9299 233.477 20.1659 230.785 21.8175 229.251L43.5106 209.109ZM115.241 219.52C84.6446 231.484 71.9155 244.65 57.6628 280.888C57.5714 281.121 57.5224 281.374 57.5224 281.624V292.33C57.5224 294.304 60.0975 295.094 61.2568 293.496C67.9565 284.262 74.1763 278.756 89.3186 274.406C90.1187 274.176 90.7075 273.475 90.7939 272.647C93.1155 250.388 100.158 238.942 115.241 219.52ZM117.303 318.132C99.9857 268.3 100.878 247.36 124.754 224.977C144.412 232.225 130.55 289.938 129.624 292.006C128.864 293.705 126.849 320.774 126.154 330.394C126.082 331.388 124.759 331.664 124.277 330.792L117.373 318.289L117.366 318.276L117.356 318.257C117.349 318.243 117.343 318.23 117.337 318.217C117.324 318.189 117.313 318.161 117.303 318.132ZM157.349 207.177C188.658 220.539 205.222 229.362 228.269 246.663C230.547 248.373 233.386 249.396 236.16 248.749C239.023 248.083 241.483 246.852 243.996 244.892C249.295 240.758 248.294 232.662 243.023 228.491C231.596 219.449 222.081 212.571 210.923 205.229C198.739 197.212 183.301 196.166 169.874 201.863L157.349 207.177ZM241.19 196.96C209.897 182.938 198.258 183.619 166.746 185.464C165.77 185.521 164.775 185.579 163.761 185.638L179.298 175.399C187.82 169.783 198.005 167.245 208.187 167.932L208.505 167.953C223.678 168.977 233.634 169.649 249.254 175.513C254.719 177.564 257.853 183.581 255.816 189.051C254.75 191.912 253.532 194.055 251.764 195.879C249.066 198.66 244.726 198.544 241.19 196.96ZM149.74 224.452C151.202 240.945 158.109 252.921 183.26 277.714L196.464 290.783C199.646 293.933 204.964 292.597 206.07 288.259C208.309 279.472 210.869 266.784 208.966 260.44C205.881 250.157 187.841 236.982 149.74 224.452Z"
        fill="currentColor"/>
</svg>
