<svg width="66" height="77" viewBox="0 0 66 77" fill="none" xmlns="http://www.w3.org/2000/svg">
<path fill-rule="evenodd" clip-rule="evenodd" d="M23.1818 37.6855C26.6211 41.2153 28.875 45.8794 30.0045 52.8689H28.8636C28.5577 48.9531 27.6563 46.1541 25.645 42.5337C15.0456 28.0407 3.60949 36.5945 3.60949 36.5945C-1.50423 41.3363 -0.202554 47.5658 2.21484 51.0059L5.562 53.8882C4.16735 49.3943 7.79344 43.1959 11.4195 42.5337C19.6993 41.0217 25.042 47.2382 26.2955 52.8689H24.0762C22.5357 52.8689 21.2869 54.1177 21.2869 55.6582C21.2869 57.1986 22.5357 58.4475 24.0762 58.4475H26.0808C24.9954 61.9605 22.668 62.8026 20.8102 62.8026C18.6717 62.8026 14.2088 60.4782 18.3928 54.8066C15.0456 53.6909 9.39069 57.8085 11.4195 62.8026C13.4688 67.847 17.4558 67.6129 20.6617 67.4246C21.2375 67.3908 21.7881 67.3585 22.2978 67.3585C25.312 67.3585 28.3263 63.6639 28.8961 58.4475H30.6334C30.7494 60.0832 30.8213 61.8231 30.8496 63.6766C29.9456 64.3771 29.1907 65.3898 29.1907 66.75C29.1907 69.282 26.8967 71.3216 25.7498 72.0249C25.9411 72.0311 26.1463 72.0433 26.3617 72.0561C27.6855 72.1346 29.3944 72.236 30.6465 71.1018C31.7494 72.0249 32.7376 74.2141 33.1611 76.113C33.5846 74.2141 34.4404 72.0249 35.5433 71.1018C36.7954 72.236 38.5043 72.1346 39.8281 72.0561C40.0435 72.0433 40.2487 72.0311 40.4401 72.0249C39.2931 71.3216 36.9991 69.282 36.9991 66.75C36.9991 65.3228 36.1903 64.2781 35.2474 63.5752C35.2747 61.7596 35.3414 60.0534 35.4487 58.4475H37.1787C37.7217 63.7147 40.7544 67.455 43.7872 67.455C44.2969 67.455 44.8475 67.4873 45.4234 67.5211C48.6292 67.7094 52.6162 67.9436 54.6655 62.8991C56.6944 57.905 51.0394 53.7874 47.6923 54.9032C51.8762 60.5747 47.4133 62.8991 45.2749 62.8991C43.4001 62.8991 41.0472 62.0417 39.9749 58.4475H42.1137C43.6541 58.4475 44.903 57.1986 44.903 55.6582C44.903 54.1177 43.6541 52.8689 42.1137 52.8689H39.8115C41.1042 47.264 46.433 41.1268 54.6655 42.6302C58.2916 43.2924 61.9177 49.4908 60.5231 53.9847L63.8702 51.1025C66.2876 47.6623 67.5893 41.4329 62.4756 36.691C62.4756 36.691 51.0394 28.1372 40.4401 42.6302C38.4453 46.2208 37.5423 49.0035 37.2291 52.8689H36.0452C37.1224 45.8788 39.2989 41.2151 42.7379 37.6855C47.9951 32.29 47.2287 23.5495 42.7429 18.1292C39.1819 13.8263 34.6366 4.88694 32.9008 0.950287C31.1649 4.88694 26.7378 13.8263 23.1767 18.1292C18.691 23.5495 17.9246 32.29 23.1818 37.6855Z" fill="currentColor"/>
</svg>
