<svg width="231" height="374" viewBox="0 0 231 374" fill="none" xmlns="http://www.w3.org/2000/svg">
  <path fill-rule="evenodd" clip-rule="evenodd"
        d="M130.567 10.4787C128.038 9.88585 126.867 9.01023 126.172 7.84263C125.314 6.40098 124.928 4.13036 124.829 0.181396L120.83 0.281744C120.924 4.02407 121.254 7.15429 122.543 9.54864C122.054 9.78928 121.604 9.95452 121.157 10.0742C120.182 10.3353 119.103 10.4145 117.454 10.4373L117.509 14.4369C119.203 14.4135 120.705 14.3361 122.191 13.9381C123.257 13.6526 124.257 13.2192 125.299 12.598C126.041 13.0979 126.875 13.5028 127.799 13.8328C125.978 15.934 124.258 17.6985 122.62 19.1389C118.634 22.6436 115.363 24.0306 112.488 23.9586C109.635 23.8872 106.658 22.364 103.285 18.8507C102.379 17.9066 101.459 16.8342 100.52 15.6321C102.212 14.9098 103.615 14.0797 104.736 13.0507C105.81 13.4821 106.764 13.8184 107.799 14.0469C109.119 14.3384 110.484 14.4363 112.334 14.4363V10.4363C110.616 10.4363 109.577 10.3432 108.661 10.1409C108.16 10.0304 107.671 9.88217 107.1 9.67452C107.914 7.71277 108.14 5.45934 108.179 2.93799L104.179 2.87613C104.13 6.07112 103.743 7.88707 102.837 9.18755C102.059 10.3052 100.711 11.3037 98.0924 12.2978C96.2647 9.62765 94.3568 6.49746 92.3359 2.89955L88.8484 4.85846C92.9046 12.0799 96.6669 17.7324 100.4 21.6208C104.135 25.5122 108.048 27.8488 112.388 27.9574C116.706 28.0654 120.929 25.9525 125.261 22.1426C129.603 18.3249 134.282 12.6034 139.554 5.02071L136.27 2.73731C134.263 5.62412 132.367 8.20119 130.567 10.4787ZM150.242 46.9493C149.662 45.1968 149.356 43.6055 149.368 41.9619C149.384 39.8681 149.916 37.8592 150.781 35.511L154.534 36.8932C153.732 39.0723 153.379 40.5755 153.368 41.9916C153.363 42.7035 153.444 43.437 153.635 44.2656C156.583 41.8398 159.7 39.043 163.087 35.8138L165.847 38.7086C162.786 41.628 159.915 44.2244 157.165 46.5326C160.004 46.7963 162.827 46.487 167.223 45.7707L167.866 49.7186C161.63 50.7349 157.966 51.0405 152.99 49.8848C149.466 52.5767 146.094 54.7881 142.708 56.6011C150.911 58.9817 158.176 58.8047 170.464 58.0647L170.704 62.0574C157.785 62.8354 149.824 63.049 140.382 60.0752C138.597 66.2362 136.277 70.6991 132.649 73.7623C129.009 76.8348 124.3 78.288 118.211 78.9712L118.812 96.5234C125.278 96.3007 131.115 95.6124 136.666 94.3508C136.04 90.6841 135.827 87.7328 136.063 84.9315C136.329 81.777 137.155 78.931 138.441 75.5832L142.175 77.0179C140.956 80.189 140.27 82.6396 140.049 85.2673C139.857 87.5477 140.007 90.0497 140.555 93.3598C143.984 92.3895 147.33 91.1812 150.682 89.7076C151.694 89.2628 152.707 88.7934 153.724 88.2986C153.353 81.622 153.321 77.3682 153.794 69.8635L157.786 70.115C157.368 76.7488 157.353 80.7351 157.624 86.2865C161.458 84.198 165.384 81.7414 169.522 78.8707C169.274 76.7833 169.307 74.8576 169.667 72.8447C170.151 70.1479 171.204 67.4021 172.769 64.0174L176.4 65.6957C174.875 68.9939 173.996 71.3669 173.605 73.5504C173.451 74.4088 173.37 75.2549 173.362 76.1338C178.122 72.6545 183.19 68.6454 188.731 64.0433L191.286 67.1204C185.678 71.7783 180.513 75.8664 175.625 79.4342C180.822 80.1396 186.121 80.0562 194.691 79.9127L194.758 83.9121L194.566 83.9154C184.372 84.0861 178.364 84.1867 171.464 82.7833L171.024 82.6939C167.259 85.2755 163.637 87.5371 160.076 89.5036C169.382 94.1874 179.35 94.8375 197.956 94.904L197.942 98.904C177.885 98.8323 166.851 98.1396 155.801 91.7354C154.629 92.3112 153.461 92.8556 152.292 93.3694C149.303 94.6836 146.32 95.7952 143.293 96.7227C146.886 99.7971 150.461 101.907 154.357 103.063C161.323 105.131 169.688 105.621 180.203 105.621V109.621C170.22 109.621 161.737 109.193 154.441 107.242C145.001 117.546 135.895 121.825 128.969 123.466C125.416 124.308 122.468 124.448 120.383 124.371C120.167 124.363 119.961 124.353 119.764 124.341L120.298 139.94C122.533 139.823 124.778 139.651 127.038 139.423C127.375 136.277 128.061 133.543 129.607 130.874C131.412 127.758 134.286 124.912 138.7 121.566L141.116 124.754C136.859 127.98 134.479 130.443 133.068 132.879C132.022 134.684 131.45 136.575 131.125 138.952C136.108 138.308 141.171 137.397 146.352 136.221L146.12 135.989L146.182 135.083C146.451 131.173 147.075 127.926 148.903 124.771C150.708 121.655 153.582 118.809 157.996 115.463L160.412 118.651C156.156 121.878 153.775 124.34 152.364 126.776C151.094 128.969 150.523 131.288 150.244 134.451C150.474 134.676 150.706 134.899 150.938 135.118C157.908 133.351 165.105 131.115 172.616 128.411C172.054 124.779 172.168 121.302 173.19 114.993L177.139 115.633C176.256 121.077 176.104 124.116 176.456 126.998C181.127 125.243 185.922 123.312 190.86 121.205C191.652 118.634 192.496 116.443 193.764 114.256C195.195 111.787 197.114 109.413 199.962 106.509L202.817 109.31C200.098 112.083 198.427 114.188 197.225 116.262C196.707 117.155 196.266 118.059 195.864 119.032C202.412 116.14 209.213 112.951 216.313 109.464L218.076 113.054C210.822 116.617 203.861 119.879 197.15 122.837C203.763 125.584 210.187 125.815 221.714 125.269L221.903 129.265C208.482 129.9 201.077 129.558 192.262 124.956C187.263 127.087 182.401 129.042 177.656 130.82C182.4 135.963 188.658 138.438 196.966 139.705C203.622 140.72 211.361 140.935 220.465 141.188L220.466 141.188C223.646 141.276 226.992 141.369 230.517 141.502L230.366 145.499C226.979 145.371 223.717 145.281 220.582 145.194C211.385 144.939 203.285 144.715 196.363 143.659C186.982 142.228 179.353 139.224 173.636 132.295C167.086 134.644 160.754 136.647 154.585 138.3C167.47 148.616 182.657 151.249 207.464 152.401L207.279 156.397C180.94 155.173 164.267 152.283 149.82 139.516C144.155 140.886 138.62 141.952 133.171 142.713C139.206 148.42 144.72 152.455 150.989 155.644C158.264 159.345 166.651 161.957 178.228 164.656L177.32 168.551C165.634 165.827 156.879 163.128 149.175 159.209C141.657 155.384 135.231 150.444 128.069 143.338C125.51 143.607 122.967 143.807 120.435 143.938L108.406 139.774L108.773 123.593C108.226 123.666 107.506 123.737 106.63 123.769C104.586 123.845 101.697 123.707 98.2165 122.882C91.4342 121.275 82.5228 117.087 73.2856 107.013C66.146 108.918 57.8475 109.335 48.0899 109.335V105.335C58.379 105.335 66.5599 104.855 73.3701 102.834C77.1541 101.71 80.6302 99.6661 84.1225 96.6874C81.185 95.7839 78.289 94.7031 75.3867 93.4271C74.2496 92.9272 73.1126 92.3978 71.9728 91.8379C61.1548 98.1012 50.3474 98.7776 30.7321 98.8478L30.7178 94.8478C48.8776 94.7829 58.6193 94.1493 67.6961 89.6036C64.2367 87.6901 60.719 85.4924 57.0636 82.9867L56.65 83.0708C49.893 84.4451 44.0099 84.3465 34.037 84.1795H34.0369L33.8456 84.1763L33.9125 80.1769C42.2425 80.3163 47.4109 80.3977 52.459 79.723C47.7008 76.2457 42.6729 72.2653 37.2174 67.7342L39.7731 64.6571C45.1677 69.1376 50.1035 73.0434 54.7401 76.4354C54.7283 75.6086 54.6493 74.8105 54.5042 74.0012C54.1222 71.87 53.2637 69.5518 51.7723 66.3252L55.4032 64.647C56.9346 67.9601 57.9675 70.651 58.4415 73.2955C58.7939 75.2616 58.8275 77.1425 58.5872 79.1785C62.6065 81.966 66.4213 84.354 70.1468 86.3864C70.4081 80.9914 70.3918 77.0977 69.9846 70.6353L73.9767 70.3838C74.4388 77.7187 74.4084 81.8815 74.0472 88.3997C75.0331 88.8791 76.0155 89.334 76.9966 89.7654C80.2591 91.1998 83.5172 92.3773 86.8538 93.324C87.3831 90.111 87.5276 87.6796 87.341 85.4638C87.1248 82.898 86.4549 80.5042 85.2633 77.4029L88.9972 75.9682C90.2567 79.2461 91.0663 82.0354 91.3268 85.128C91.5573 87.8636 91.3505 90.744 90.7436 94.3154C96.5081 95.6222 102.589 96.2978 109.387 96.4677L109.784 78.9805C103.411 78.3287 98.5204 76.887 94.7677 73.7193C91.1491 70.6649 88.8364 66.2152 87.0563 60.0742C77.6438 63.0374 69.7057 62.8242 56.8278 62.0488L57.0682 58.056C69.3129 58.7934 76.5536 58.9701 84.7261 56.6012C81.3546 54.7951 77.9968 52.5928 74.4889 49.9129C69.5276 51.0645 65.8739 50.7595 59.6576 49.7464L60.301 45.7985C64.6751 46.5114 67.4875 46.8198 70.3123 46.5596C67.5737 44.2603 64.7147 41.6742 61.6661 38.7672L64.4265 35.8723C67.8005 39.0897 70.9068 41.8767 73.8444 44.294C74.0329 43.4716 74.1133 42.7432 74.108 42.0363C74.0976 40.6254 73.7455 39.1274 72.9455 36.9549L76.6991 35.5727C77.5614 37.9142 78.0924 39.918 78.1079 42.0066C78.1201 43.6453 77.8148 45.2316 77.2378 46.9781C81.0654 49.8773 84.6541 52.1399 88.2514 53.918C88.3408 51.8188 88.232 50.0738 87.9159 48.4005C87.4684 46.0313 86.5838 43.6907 85.088 40.5917L88.6903 38.8529C90.2537 42.0919 91.3053 44.7934 91.8464 47.658C92.3151 50.139 92.385 52.6565 92.1526 55.6576C98.2172 58.074 104.646 59.3288 112.621 60.0073C113.023 59.8615 113.456 59.7821 113.907 59.7821C114.338 59.7821 114.752 59.8544 115.138 59.9875C122.958 59.2992 129.297 58.042 135.282 55.6565C135.049 52.6454 135.119 50.12 135.589 47.6312C136.131 44.759 137.186 42.0501 138.754 38.8017L142.356 40.5405C140.856 43.6488 139.968 45.9969 139.519 48.3737C139.202 50.0547 139.093 51.8078 139.183 53.9172C142.795 52.1324 146.398 49.8608 150.242 46.9493ZM87.8017 140.916L108.406 139.774C107.059 139.677 105.707 139.56 104.35 139.423C104.012 136.277 103.326 133.542 101.777 130.872C99.9694 127.756 97.0913 124.91 92.6707 121.565L90.2568 124.754C94.52 127.981 96.9041 130.444 98.3173 132.88C99.3646 134.685 99.9375 136.576 100.263 138.953C95.2712 138.309 90.1988 137.398 85.0085 136.222L85.2405 135.989L85.1782 135.082C84.9093 131.172 84.2837 127.925 82.4531 124.77C80.6453 121.654 77.7672 118.808 73.3466 115.462L70.9327 118.652C75.1959 121.878 77.58 124.341 78.9932 126.777C80.2649 128.969 80.837 131.288 81.1167 134.45C80.8845 134.676 80.6518 134.899 80.4186 135.12C73.4371 133.352 66.2287 131.116 58.7059 128.412C59.2685 124.779 59.1549 121.302 58.1305 114.992L54.1822 115.633C55.0664 121.079 55.2183 124.119 54.8653 127.001C50.185 125.245 45.381 123.313 40.4329 121.205C39.6387 118.634 38.7933 116.442 37.5236 114.255C36.0901 111.786 34.1688 109.412 31.3168 106.508L28.4631 109.311C31.1864 112.084 32.8604 114.189 34.0643 116.263C34.5831 117.157 35.0245 118.062 35.4273 119.035C28.8684 116.142 22.0548 112.952 14.9422 109.464L13.1811 113.056C20.4455 116.618 27.4155 119.88 34.1365 122.838C27.5127 125.583 21.0785 125.814 9.53451 125.269L9.34584 129.265C22.788 129.9 30.202 129.558 39.03 124.956C44.0377 127.087 48.9084 129.043 53.6621 130.822C48.9103 135.963 42.6428 138.437 34.3232 139.705C27.657 140.72 19.9057 140.935 10.7884 141.187L10.7881 141.187L10.7878 141.187H10.7876C7.60311 141.276 4.25194 141.368 0.722168 141.502L0.872992 145.499C4.26414 145.371 7.53092 145.281 10.6701 145.194L38.1536 143.67L68.4023 143.768C57.1607 149.641 43.5148 151.487 23.8081 152.401L23.9935 156.397C47.1272 155.323 62.8142 152.968 76.0826 143.793L96.9782 143.862C91.4096 148.968 86.2173 152.672 80.3686 155.643C73.0825 159.344 64.6827 161.957 53.0877 164.655L53.9945 168.551C65.6979 165.827 74.4656 163.128 82.1802 159.209C89.516 155.483 95.8138 150.698 102.767 143.881L108.313 143.899L103.099 373.942H128.31L120.435 143.938L108.313 143.899L108.315 143.777C106.655 143.66 104.99 143.514 103.317 143.338C103.133 143.52 102.95 143.701 102.767 143.881L96.9782 143.862C97.3872 143.487 97.7982 143.104 98.2117 142.714C94.7793 142.235 91.3129 141.636 87.8017 140.916ZM79.3115 141.387C80.0592 140.788 80.8003 140.165 81.5355 139.516C83.6414 140.025 85.7293 140.491 87.8017 140.916L79.3115 141.387ZM71.8362 141.802C73.5246 140.745 75.1632 139.583 76.7663 138.301C70.5877 136.648 64.2452 134.644 57.6845 132.295C51.9593 139.224 44.3192 142.228 34.9255 143.659L38.1536 143.67L71.8362 141.802ZM71.8362 141.802L79.3115 141.387C78.2497 142.237 77.1743 143.038 76.0826 143.793L68.4023 143.768C69.5716 143.157 70.7149 142.503 71.8362 141.802ZM130.068 70.7056C127.337 73.0114 123.625 74.3051 118.073 74.9601L117.69 63.7595C124.65 63.0243 130.635 61.764 136.373 59.5259C134.726 64.9948 132.755 68.4381 130.068 70.7056ZM110.128 63.792L109.875 74.9676C104.022 74.3367 100.163 73.0386 97.3478 70.6627C94.6723 68.4043 92.7085 64.9753 91.0667 59.529C96.9062 61.8052 103.003 63.0663 110.128 63.792ZM108.865 119.529L109.297 100.467C101.818 100.28 95.1102 99.498 88.7056 97.9459C85.1374 101.309 81.4838 103.916 77.4587 105.611C85.7156 114.163 93.4434 117.64 99.1387 118.99C102.231 119.723 104.757 119.836 106.483 119.772C107.347 119.74 108.01 119.664 108.444 119.6C108.625 119.573 108.766 119.548 108.865 119.529ZM118.948 100.521L119.626 120.322C119.898 120.343 120.2 120.362 120.53 120.374C122.297 120.439 124.882 120.323 128.047 119.574C133.885 118.19 141.807 114.622 150.267 105.844C146.131 104.112 142.378 101.437 138.712 97.979C132.534 99.478 126.081 100.275 118.948 100.521ZM91.8707 40.5099C100.149 48.3088 107.105 52.8455 114.439 52.9252C121.794 53.0051 128.855 48.6017 137.337 40.5005L134.574 37.6079C126.188 45.6178 120.143 48.987 114.483 48.9254C108.802 48.8637 102.836 45.3448 94.6136 37.5985L91.8707 40.5099ZM90.0792 24.2053C90.4101 23.3843 90.594 22.5391 90.5786 21.6279C90.5528 20.1006 89.9652 18.6673 89.2022 17.1867L85.6466 19.019C86.1853 20.0644 86.4395 20.7462 86.5338 21.26L86.3162 21.0719L83.6974 24.0955C83.8447 24.2231 83.9918 24.3499 84.1385 24.4759C83.843 24.5726 83.5721 24.627 83.3113 24.6527C82.5052 24.7321 81.5317 24.5649 79.9091 23.9849L78.5628 27.7516C80.3556 28.3924 82.0049 28.8008 83.7035 28.6334C85.0536 28.5004 86.2775 28.0211 87.5167 27.2783C97.2859 35.0777 105.689 39.0001 114.422 38.8511C123.053 38.7038 131.601 34.5774 141.691 27.272C142.709 27.7113 143.722 28.0478 144.845 28.2214C146.438 28.4677 148.108 28.3655 150.199 27.976L149.466 24.0437C147.748 24.3639 146.606 24.4144 145.663 24.2973L145.834 24.1659L143.387 21.0015C143.096 21.2266 142.806 21.449 142.519 21.6686C142.436 20.6604 142.574 19.6742 142.774 18.3274L138.818 17.7377C138.497 19.8915 138.227 21.7745 138.971 24.3005C129.283 31.2619 121.671 34.7268 114.354 34.8517C106.978 34.9775 99.4944 31.7085 90.0792 24.2053Z"
        fill="currentColor"/>
</svg>
