<svg width="446" height="442" viewBox="0 0 446 442" fill="none" xmlns="http://www.w3.org/2000/svg">
  <path
    d="M310.48 280.877H338.544C343.426 280.199 347.184 276.006 347.184 270.935C345.664 258.306 345.647 251.425 347.184 239.528C347.184 233.984 342.692 229.49 337.151 229.49C319.778 227.208 315.245 228.315 305.416 229.49C301.441 230.395 296.834 234.822 295.383 239.528C292.14 252.005 292.851 258.835 295.383 270.935C295.383 276.479 299.875 280.973 305.416 280.973H308.506C309.155 280.909 309.814 280.877 310.48 280.877Z"
    fill="currentColor"/>
  <path
    d="M302.955 300.952C302.955 297.205 305.692 294.097 309.275 293.52C321.159 295.285 327.165 295.12 337.151 293.52C337.858 293.52 338.556 293.488 339.246 293.424C351.454 290.187 357.296 291.14 367.503 293.424C371.659 293.424 375.027 296.795 375.027 300.952C377.346 324.998 378.074 338.48 375.027 362.527C375.027 366.684 371.659 370.055 367.503 370.055C345.592 373.298 333.036 372.68 310.48 370.055C306.324 370.055 302.955 366.684 302.955 362.527C300.758 338.48 298.644 324.999 302.955 300.952Z"
    fill="currentColor"/>
  <path
    d="M124.551 280.97C124.237 280.94 123.921 280.917 123.603 280.901C118.631 280.305 114.776 276.071 114.776 270.935C112.126 259.602 109.823 253.536 114.776 239.528C113.821 232.958 118.467 228.632 124.809 229.49H140.872C146.412 229.49 150.904 233.984 150.904 239.528V270.935C150.904 276.479 146.412 280.973 140.872 280.973H124.809C124.739 280.973 124.669 280.972 124.599 280.971C124.583 280.97 124.567 280.97 124.551 280.97Z"
    fill="currentColor"/>
  <path
    d="M123.595 293.488C123.303 293.472 123.012 293.451 122.724 293.425L122.684 293.424L122.611 293.424C110.047 288.418 103.356 287.307 93.0898 293.424C92.4001 293.488 91.7014 293.52 90.9952 293.52C81.9868 294.158 76.9345 294.11 67.926 293.52C67.2198 293.52 66.5211 293.488 65.8314 293.424H65.5875C61.4318 293.424 58.063 296.795 58.063 300.952V362.527C58.063 362.787 58.0762 363.043 58.1018 363.296C58.4872 367.093 61.6916 370.055 65.5875 370.055H122.611C126.766 370.055 130.135 366.684 130.135 362.527V300.952C130.135 297.128 127.285 293.97 123.595 293.488Z"
    fill="currentColor"/>
  <path
    d="M66.5333 280.877C76.635 281.49 82.2883 281.428 92.3879 280.877C97.2696 280.199 101.028 276.006 101.028 270.935C99.0757 259.143 97.6851 252.604 101.028 239.528C101.028 233.984 96.5361 229.49 90.9952 229.49C84.0496 229.349 79.471 229.317 67.926 229.49C62.3851 229.49 57.8934 233.984 57.8934 239.528V270.935C57.8934 276.006 61.6516 280.199 66.5333 280.877Z"
    fill="currentColor"/>
  <path
    d="M57.8934 80.0568C57.8934 75.8991 61.2622 72.5286 65.4179 72.5286H86.405C90.5606 72.5286 93.9295 75.8991 93.9295 80.0568C91.484 101.84 91.4076 113.395 93.9295 132.634C93.9295 136.792 90.5006 138.759 86.3449 138.759L65.4179 140.162C61.2622 140.162 57.8934 136.792 57.8934 132.634C52.8583 113.324 52.4388 101.915 57.8934 80.0568Z"
    fill="currentColor"/>
  <path
    d="M57.8934 160.309C57.8934 156.151 60.9368 153.274 65.4179 152.78C69.8989 152.287 84.6775 151.469 91.1473 150.671C97.6171 149.872 109.404 149.476 122.441 152.78C126.597 152.78 129.965 156.151 129.965 160.309C132.118 180.052 132.178 190.789 129.965 209.265C129.965 213.423 126.597 216.793 122.441 216.793C112.852 219.87 105.344 220.252 96.8109 218.252C86.5466 217.406 76.5227 216.83 65.4179 216.793C61.2622 216.793 57.8934 213.423 57.8934 209.265V160.309Z"
    fill="currentColor"/>
  <path
    d="M310.31 152.78C306.155 152.78 302.786 156.151 302.786 160.309C300.617 178.8 300.556 189.502 302.786 209.265C302.786 213.423 306.155 216.793 310.31 216.793C337.03 218.815 354.924 221.271 367.333 216.793C371.489 216.793 374.858 213.423 374.858 209.265C373.298 189.59 372.637 178.635 374.858 160.309C374.858 156.151 371.489 152.78 367.333 152.78C339.706 147.756 328.462 148.923 310.31 152.78Z"
    fill="currentColor"/>
  <path
    d="M110.298 78.5396C111 75.1091 114.034 72.5286 117.67 72.5286C192.565 69.0128 236.622 69.6038 316.684 72.5286C320.84 72.5286 324.209 75.8991 324.209 80.0568C321.317 101.24 321.442 112.723 324.209 132.634C324.209 136.792 320.84 140.162 316.684 140.162C257.435 141.67 206.556 143.362 149.32 139.598C139.152 139.349 127.792 138.567 116.073 138.257C111.918 138.257 110.145 136.792 110.145 132.634C105.956 112.102 106.652 100.589 110.145 80.0568C110.145 79.5371 110.198 79.0296 110.298 78.5396Z"
    fill="currentColor"/>
  <path
    d="M360.121 239.528C360.121 233.984 364.613 229.49 370.154 229.49H377.919C383.46 229.49 387.951 233.984 387.951 239.528V270.935C387.951 276.479 383.46 280.973 377.919 280.973H370.154C365.53 279.142 360.777 275.173 360.121 270.935C358.03 258.475 358.005 251.618 360.121 239.528Z"
    fill="currentColor"/>
  <path
    d="M346.516 72.5286C342.36 72.5286 338.991 75.8991 338.991 80.0568C337.451 100.591 337.362 112.101 338.991 132.634C338.991 136.792 342.36 140.162 346.516 140.162L368.294 142.005C372.45 142.005 375.027 136.792 375.027 132.634C378.745 112.109 378.73 100.581 375.027 80.0568C375.027 75.8991 371.658 72.5286 367.503 72.5286H346.516Z"
    fill="currentColor"/>
</svg>
